<svg xmlns="http://www.w3.org/2000/svg" viewBox="0 0 23.98 24"><defs><style>.cls-1{fill:#2a5165;}.cls-2{fill:#264653;}.cls-3{fill:#f3b575;}.cls-4{fill:#f37543;}.cls-5{fill:#fea99f;}.cls-6{fill:#f3a161;}.cls-7{fill:#fe4b6e;}.cls-8{fill:#265a67;}.cls-9{fill:#f1a76e;}.cls-10{fill:#f4a366;}.cls-11{fill:#f4c084;}.cls-12{fill:#353c60;}.cls-13{fill:#f3884d;}.cls-14{fill:#fdfdfe;}.cls-15{fill:#fefefe;}.cls-16{fill:#0c7f06;}.cls-17{fill:#f3d392;}.cls-18{fill:#f38957;}.cls-19{fill:#f3d39c;}.cls-20{fill:#352d51;}.cls-21{fill:#f3f6ba;}.cls-22{fill:#fefbfa;}.cls-23{fill:#fe8a86;}.cls-24{fill:#355fa0;}.cls-25{fill:#355082;}.cls-26{fill:#cc8e90;}.cls-27{fill:#de9795;}.cls-28{fill:#353156;}.cls-29{fill:#497daf;}.cls-30{fill:#f3b675;}.cls-31{fill:#fe8b86;}.cls-32{fill:#f4a466;}.cls-33{fill:#fe7d82;}.cls-34{fill:#fe8282;}.cls-35{fill:#322e3e;}.cls-36{fill:#332f3e;}.cls-37{fill:#8c9ca1;}.cls-38{fill:#899ca2;}.cls-39{fill:#7898ab;}</style></defs><g id="Layer_2" data-name="Layer 2"><g id="Layer_1-2" data-name="Layer 1"><path class="cls-1" d="M22.71,3.51V7.4a3.11,3.11,0,0,1-1,2c-.61.59-1.2,1.2-1.81,1.79a6.28,6.28,0,0,1-1.21,1,3.11,3.11,0,0,1-1.69.38.17.17,0,0,1-.17-.07,1.86,1.86,0,0,1,.12-.74c.3-1.29.58-2.59.88-3.88,0-.07,0-.14,0-.22a.13.13,0,0,0-.09-.15,2,2,0,0,0-.41-.1c-.13,0-.13.1-.15.18-.13.58-.27,1.16-.4,1.75-.22,1-.45,2-.68,3,0,.09,0,.23-.17.25h-4.5a.57.57,0,0,1-.26,0c-.13-.13,0-.25,0-.36a12.12,12.12,0,0,0,.54-1.87,12.45,12.45,0,0,0,.15-3.17.75.75,0,0,1,0-.15.46.46,0,0,1,.14-.2l1.91-1.91c.08-.07.14-.19.28-.1a.26.26,0,0,0,.37.05c.2-.12.25-.08.25.16,0,.54,0,1.09,0,1.63a.74.74,0,0,0,0,.26c0,.09.09.15.18.14s.12-.08.14-.16a.79.79,0,0,0,0-.22c0-.76,0-1.52,0-2.29,0-.18-.11-.32-.11-.5a2.84,2.84,0,0,1,1.47-.44H22.4A.42.42,0,0,1,22.71,3.51Z"/><path class="cls-2" d="M22.71,3.51h-6a3.19,3.19,0,0,0-1.45.34.45.45,0,0,1-.23.07,4.22,4.22,0,0,0-.91.88,3.9,3.9,0,0,0-.51.48L11.93,7a.12.12,0,0,1,0-.09c-.07-.43-.17-.85-.24-1.27a.62.62,0,0,1,.17-.22l.9-.89a1.92,1.92,0,0,0,.18-.22.43.43,0,0,0-.37-.7H10.89a1.06,1.06,0,0,1-.31,0c-.25-.18-.45-.42-.71-.6a6.5,6.5,0,0,0-.93-.52c-.07,0-.22-.07,0-.17.63,0,1.26,0,1.89,0H22.33a.56.56,0,0,1,.38.07Z"/><path class="cls-3" d="M0,19a19.44,19.44,0,0,1,2.23-4,1.19,1.19,0,0,0,.09-.15c.08-.14.12-.31.34-.31a10.52,10.52,0,0,1,.81.94,4.74,4.74,0,0,1,.4.49,1.78,1.78,0,0,0,1.1.69l2.5.59a3,3,0,0,1,.32.09.7.7,0,0,1,.52.71,7.55,7.55,0,0,1-.17,1.16c-.1.65-.22,1.3-.33,2,0,.1,0,.22-.11.3a1,1,0,0,1-.68,0c-.09-.09,0-.19,0-.29.19-.86.39-1.72.58-2.59.06-.25.06-.25-.19-.31L3.6,17.42c-.22-.05-.25,0-.3.19-.1.49-.22,1-.33,1.47a1.14,1.14,0,0,1-.14.43.1.1,0,0,1-.14,0c-.18-.12-.26,0-.34.14-.31.53-.63,1.05-.94,1.57-.06.1-.09.21-.21.25A2.12,2.12,0,0,1,.13,20.33,2.56,2.56,0,0,1,0,19.8v-.14a1.19,1.19,0,0,0,0-.53Z"/><path class="cls-2" d="M16.81,12.54a3.4,3.4,0,0,0,1.72-.33,4.27,4.27,0,0,0,1.08-.86c.72-.69,1.41-1.4,2.11-2.1a3.05,3.05,0,0,0,1-1.8l0,0v3.37h0c-.28-.22-.48-.07-.67.14s-.63.61-.94.9a1.29,1.29,0,0,0-.16.17c-.16.22-.08.43.2.49h.73a1.36,1.36,0,0,0,.88-.16v1.41a.43.43,0,0,1-.31.06H19c-.68,0-1.35,0-2,0-.21-.07-.28-.28-.41-.42A1.33,1.33,0,0,1,16.81,12.54Z"/><path class="cls-4" d="M22.71,14.66V15.9a.38.38,0,0,1-.21,0H17c-.26,0-.28,0-.18-.25a2.1,2.1,0,0,0,.2-.81.31.31,0,0,1,.07-.21.36.36,0,0,1,.25-.06H19c1.11,0,2.23,0,3.34,0C22.49,14.6,22.61,14.57,22.71,14.66Z"/><path class="cls-5" d="M17.13,14.67a2.39,2.39,0,0,1-.31,1.23h5.89v0H17a.4.4,0,0,0-.39.18,3.87,3.87,0,0,1-1,.84c-.14,0-.22-.08-.32-.15l-.26-.18c-.15-.15-.39-.2-.47-.43s0-.21-.34-.19H12a.39.39,0,0,1-.21,0,.05.05,0,0,1,0-.06c.1-.1.22-.07.34-.07h2.29c.29,0,.31,0,.37-.29a3.17,3.17,0,0,1,.32-.84c.21-.32.41-.65.61-1l.05-.09a.71.71,0,0,1,.5-.39.37.37,0,0,1,.41.12.88.88,0,0,1,.32.37A1.07,1.07,0,0,1,17.13,14.67Z"/><path class="cls-3" d="M11.26,22.94l.1,1.06H6.43a1.1,1.1,0,0,1,.11-.71.4.4,0,0,1,.3-.05,1.11,1.11,0,0,0,1-.61c.05-.07.07-.18.19-.19a2,2,0,0,0,1.4.3A.48.48,0,0,0,10,22.1c-.11-.43-.2-.86-.31-1.29a.64.64,0,0,1,0-.47c.13,0,.12.08.13.14.12.42.24.83.35,1.25a1.88,1.88,0,0,0,.61,1.05A.54.54,0,0,0,11.26,22.94Z"/><path class="cls-6" d="M22.71,2.31H18.5c0-.07.06-.08.1-.1a.42.42,0,0,0,0-.73s-.11-.05-.09-.13h4.16Z"/><path class="cls-7" d="M6.57,23.29,6.43,24H5.72c-.2-.07-.43-.07-.64-.12l-1.61-.37c-.25-.07-.51-.11-.77-.16a.93.93,0,0,1-.39-.15c-.32-.1-.32-.1-.24-.44l.15-.7c.11,0,.17,0,.25.07.51.31,1,.59,1.55.9.14.09.21.06.24-.1s0-.25.15-.29.58.12.86.17.27.21.43.27a1.41,1.41,0,0,0,.57.11C6.38,23.19,6.49,23.18,6.57,23.29Z"/><path class="cls-6" d="M22.71,13.78v.84a.18.18,0,0,1-.1,0H19.19c-.06,0,0-.08,0-.12a.56.56,0,0,0,0-.64.07.07,0,0,1,0-.11h3.44A.11.11,0,0,1,22.71,13.78Z"/><path class="cls-8" d="M22.71,12.32a.5.5,0,0,1-.47.22h-1a.4.4,0,0,1-.42-.22.39.39,0,0,1,.14-.45c.42-.4.82-.8,1.24-1.19.16-.16.28-.13.55.09Z"/><path class="cls-3" d="M2.31,23.2c.23,0,.45.11.67.15s.53.09.79.16c.48.12,1,.2,1.43.33.17.05.39,0,.52.16H2.17A7,7,0,0,0,2.31,23.2Z"/><path class="cls-9" d="M22.71,13.78H19.42c-.09,0-.18,0-.26,0s-.12,0-.13-.08h3.68Z"/><path class="cls-10" d="M19.16,14.58c.08.07.17,0,.26,0h3.29v0H19C19,14.57,19.09,14.55,19.16,14.58Z"/><path class="cls-11" d="M0,19.13a.69.69,0,0,1,0,.53Z"/><path class="cls-12" d="M11.67,5.59A6.38,6.38,0,0,1,11.93,7a11.65,11.65,0,0,1,0,1.67,10.19,10.19,0,0,1-.71,3.58c0,.11-.08.22-.13.33s0,.15,0,.23l-.39,1a.64.64,0,0,1,0,.07c-.06.13-.12.26-.3.23a6.85,6.85,0,0,1-.83-.58A.79.79,0,0,1,9.7,13a1,1,0,0,0,.13-.76A8.51,8.51,0,0,0,10,10a1.94,1.94,0,0,0-.06-.59A3.4,3.4,0,0,1,10,8.74a.23.23,0,0,1,.08-.12,1.62,1.62,0,0,1,.54,0A.52.52,0,0,0,11,7.79a.56.56,0,0,0-.49-.24c-.17,0-.34,0-.49-.07a1.72,1.72,0,0,1,0-.6c0-.09,0-.18,0-.27a.38.38,0,0,0-.23-.08,4.57,4.57,0,0,1-.62-.22,1.35,1.35,0,0,1-.77-1c0-.17-.11-.22-.28-.22h-.8c-.16,0-.17.06-.12.19a.86.86,0,0,0,.37.45,1.94,1.94,0,0,1,.24.15.3.3,0,0,1,.11.39.29.29,0,0,1-.37.12A1.37,1.37,0,0,1,6.84,6a1.41,1.41,0,0,1-.3-.63.22.22,0,0,0-.26-.21c-.17,0-.36,0-.5,0s-.11.29-.16.44A2,2,0,0,1,4.29,6.81c-.22.09-.46.09-.68.19s0,.18,0,.27a.33.33,0,0,1,0,.22c-.17.11-.36,0-.54.06a.53.53,0,0,0-.49.34.53.53,0,0,0,.16.58A.52.52,0,0,0,3,8.58a1.4,1.4,0,0,1,.5,0,.4.4,0,0,1,.09.2,7,7,0,0,1,.13.78,1.7,1.7,0,0,0,0,.22,4,4,0,0,0,0,1c0,.21,0,.44.1.65,0,0,0,.06-.07.07s-.18.19-.14.35a7,7,0,0,0,.32.87,1.07,1.07,0,0,1,.11.33.44.44,0,0,0,.08.28.13.13,0,0,1,0,.06,6.06,6.06,0,0,0-.53.35c-.1,0-.16.18-.3.16a1.68,1.68,0,0,1-.38-.57,9.78,9.78,0,0,1-.74-1.65,1.64,1.64,0,0,1-.1-.45c-.06-.32-.14-.63-.2-1a4.91,4.91,0,0,1-.12-1c0-.07,0-.15,0-.23,0-.6,0-1.21,0-1.82,0-.09,0-.18,0-.27A5.42,5.42,0,0,1,3.22,3.29,4.32,4.32,0,0,1,5.9,2.08a2.09,2.09,0,0,1,.43,0c.16,0,.33,0,.5,0h0a.32.32,0,0,1,.25-.06,6.71,6.71,0,0,1,1.54.26.3.3,0,0,1,.21.12,4.91,4.91,0,0,1,1.63,1.07l.1.12a.67.67,0,0,1,.19.14,5.1,5.1,0,0,1,.91,1.78A.22.22,0,0,1,11.67,5.59Z"/><path class="cls-2" d="M10.65,13.74l.48-1.2h4.59c.09,0,.18,0,.25,0a.2.2,0,0,1,0,.21,3.93,3.93,0,0,1-.25.89l-.05.06a.36.36,0,0,1-.25.06H11A.5.5,0,0,1,10.65,13.74Z"/><path class="cls-13" d="M15.75,13.68l.22-1.1c.18-.75.36-1.5.53-2.25l.63-2.82c0-.12.07-.19.22-.15a2.88,2.88,0,0,0,.4.09c.15,0,.18.09.15.25-.36,1.56-.72,3.14-1.07,4.71,0,0,0,.08,0,.13a4.73,4.73,0,0,0-.18.83C16.22,13.22,16,13.29,15.75,13.68Z"/><path class="cls-14" d="M14.16,4.79s0,0,0-.06a2.36,2.36,0,0,1,.9-.82.31.31,0,0,1,.19.34V6.83c0,.16,0,.3-.22.31s-.26-.14-.26-.31V4.77c-.15.1-.23.29-.43.24S14.2,4.89,14.16,4.79Z"/><path class="cls-15" d="M18.06,5.58c0,.11-.08.19-.23.19a3.53,3.53,0,0,1-.46,0c-.12,0-.17,0-.16.15s0,.3,0,.44-.06.25-.22.25-.24-.09-.25-.24a3.23,3.23,0,0,1,0-.44c0-.12,0-.18-.16-.17h-.42c-.16,0-.27-.07-.27-.23s.11-.24.27-.25h.46c.1,0,.14,0,.13-.13V4.7c0-.16.08-.26.24-.26a.23.23,0,0,1,.23.25c0,.19-.06.43,0,.55s.35,0,.54.06S18.06,5.36,18.06,5.58Z"/><circle class="cls-16" cx="22.16" cy="1.82" r="1.82"/><path class="cls-15" d="M23.15,1.87c0,.1-.07.17-.21.18h-.43c-.1,0-.14,0-.14.13s0,.27,0,.4-.06.22-.2.23A.2.2,0,0,1,22,2.59a2.67,2.67,0,0,1,0-.4c0-.11,0-.16-.15-.15h-.38c-.14,0-.24-.06-.25-.21s.1-.22.25-.22.28,0,.42,0,.12,0,.12-.12V1.07c0-.15.07-.24.22-.23s.2.08.2.22-.05.39,0,.5.33,0,.5.05S23.15,1.67,23.15,1.87Z"/><path class="cls-15" d="M19,4.8c-.1,0-.14.11-.21.16a.23.23,0,0,1-.32,0,.22.22,0,0,1,0-.32c.2-.22.42-.43.64-.64a.2.2,0,0,1,.24-.05.24.24,0,0,1,.15.23V6.79c0,.17,0,.35-.23.35S19,7,19,6.8V5A.38.38,0,0,0,19,4.8Z"/><path class="cls-17" d="M3.28,13.91c.11,0,.14-.17.27-.18s.1,0,.15.08a1,1,0,0,0,.86.09,1.22,1.22,0,0,1,.53-.1.3.3,0,0,1,.1.22A3.87,3.87,0,0,0,6,15.7c.09.12.17.24.27.35a.57.57,0,0,0,.93,0,4.75,4.75,0,0,0,1-1.82.27.27,0,0,1,.1-.17,1,1,0,0,1,.54.19,4.28,4.28,0,0,1,2.17,2.58l.69,2.33a1.32,1.32,0,0,1-.21.43c0,.08-.09.16-.12.24a.17.17,0,0,0,.06.21.17.17,0,0,0,.23,0c.07-.05.08-.18.2-.18s.09.17.13.26a.44.44,0,0,0,.77.11,4.28,4.28,0,0,0,.37-.57c.58-.94,1.16-1.88,1.73-2.82.05-.08.08-.18.19-.2s.36.26.56.35a1.7,1.7,0,0,0,.3.23c.11.07.12.14,0,.25q-1.2,2-2.39,4a6.36,6.36,0,0,1-.49.78,1.49,1.49,0,0,1-1.93.37.91.91,0,0,1-.58-.61c-.12-.3-.19-.61-.28-.91s-.25-.89-.37-1.34a.6.6,0,0,0-.09-.22.16.16,0,0,0-.18-.09.16.16,0,0,0-.13.18,3.23,3.23,0,0,0,.11.47c0,.09.08.17,0,.26A4.65,4.65,0,0,0,10,21.85c0,.19.15.36.07.57a.49.49,0,0,1-.4.37,2.19,2.19,0,0,1-1.4-.19.46.46,0,0,1-.16-.15c-.09-.11,0-.22,0-.34s0-.49-.3-.56a.05.05,0,0,1,0-.07c.08-.52.17-1,.24-1.56s.26-1.21.29-1.82a.63.63,0,0,0-.55-.7C6.82,17.19,5.93,17,5,16.78a2.29,2.29,0,0,1-1.36-.91C3.34,15.43,3,15,2.62,14.58a0,0,0,0,1,0-.06A2.06,2.06,0,0,1,3.28,13.91Z"/><path class="cls-18" d="M9.72,20.33c-.06-.2-.12-.4-.16-.6s-.07-.32.14-.38.28.09.32.24c.2.67.4,1.34.57,2a1.5,1.5,0,0,0,.64,1l0,.35c-.12.12-.24.09-.37,0a2,2,0,0,1-.78-1.19C10,21.28,9.85,20.8,9.72,20.33Z"/><path class="cls-19" d="M18.55,1.34c.34.22.41.41.29.7a.56.56,0,0,1-.34.26H11.08c-.38,0-.57-.28-.47-.62A.41.41,0,0,1,11,1.35h7.56Z"/><path class="cls-6" d="M11,1.35c-.27.14-.37.28-.34.54s.21.35.43.41H8.83a7.15,7.15,0,0,0-2-.32c0-.17,0-.34,0-.51s0-.15.15-.15Z"/><path class="cls-20" d="M3.28,13.91a7,7,0,0,0-.66.67l-.3.3A2.06,2.06,0,0,1,1.69,13,14.32,14.32,0,0,1,2,11.25c.15.38.26.76.43,1.13A10.19,10.19,0,0,0,3.28,13.91Z"/><path class="cls-1" d="M6.83,2a1.39,1.39,0,0,1-.5,0A1.67,1.67,0,0,1,6.83,2Z"/><path class="cls-1" d="M1.73,7c0,.09,0,.19,0,.27A.5.5,0,0,1,1.73,7Z"/><path class="cls-1" d="M1.7,9c.05.07,0,.16,0,.23A.44.44,0,0,1,1.7,9Z"/><path class="cls-8" d="M11.67,5.59a5.9,5.9,0,0,0-.79-1.66l-.32-.42h1.95a.51.51,0,0,1,.5.3.49.49,0,0,1-.1.56C12.51,4.78,12.08,5.18,11.67,5.59Z"/><path class="cls-7" d="M2.79,19.53l.45-1.93c.07-.31.06-.31.38-.24,1.3.29,2.58.59,3.88.87.21,0,.19.13.16.28-.22.94-.43,1.89-.65,2.83a.28.28,0,0,1,0,.09.37.37,0,0,1-.58-.34c0-.18,0-.33-.25-.35-.06-.11,0-.22,0-.33.08-.33.16-.67.23-1s0-.35-.26-.42L4.42,18.6c-.24-.06-.33,0-.4.25s-.13.55-.2.83a.62.62,0,0,1-.11.33.14.14,0,0,1-.17,0c-.23-.13-.48-.25-.7-.4A.08.08,0,0,1,2.79,19.53Z"/><path class="cls-17" d="M2.79,19.53a7.71,7.71,0,0,0,.89.49c.18,0,.29.14.44.2a4.82,4.82,0,0,1,.5.27c.27.14.29.2.22.49a1.09,1.09,0,0,1,0,.17c-.09.43-.21.86-.3,1.3a.44.44,0,0,1-.1.22A1,1,0,0,0,4.3,23c0,.17-.08.22-.25.11-.6-.36-1.22-.7-1.83-1.05a8.69,8.69,0,0,1-1-.59l1.08-1.76C2.47,19.39,2.48,19.39,2.79,19.53Z"/><path class="cls-5" d="M4.44,22.45c.07-.45.2-.89.31-1.33.17-.07.31,0,.46.07A.53.53,0,0,0,5.82,21c.09-.12.17-.26.35-.28s.31,0,.31.21c0,.47,0,.5.52.5a4.36,4.36,0,0,0,.72.05c.15.07.38.05.39.3a1.41,1.41,0,0,1,0,.5s0,.11,0,.17a3.29,3.29,0,0,1-.38.54,1.07,1.07,0,0,1-.88.3H6.57a2.12,2.12,0,0,0-.44-.05,1.28,1.28,0,0,1-.86-.38,1.66,1.66,0,0,0-.57-.27A.45.45,0,0,1,4.44,22.45Z"/><path class="cls-19" d="M19.16,14.58l-.13.08h-1.9a3.65,3.65,0,0,0-.18-.93H19l.13.08A.47.47,0,0,1,19.16,14.58Z"/><path class="cls-21" d="M11.75,19.17c-.21-.5-.32-1-.48-1.55a6.71,6.71,0,0,0-.79-1.92,4.4,4.4,0,0,0-2.09-1.62A.11.11,0,0,1,8.34,14c0-.28.05-.57.11-.84s.24-.07.36,0l.31.1c.15.08.34.11.46.26a8.62,8.62,0,0,1,.8.54c.29.12.44.39.64.6a.19.19,0,0,1,.06.07,5.05,5.05,0,0,1,.62,1c0,.07.09.13.06.22v0a.28.28,0,0,1,.14.18c.2.61.37,1.22.51,1.85a.26.26,0,0,1,0,.15c-.15.3-.34.59-.51.89A.23.23,0,0,1,11.75,19.17Z"/><path class="cls-21" d="M15.13,16.61,13.42,19.4c-.15.25-.31.49-.46.73a.51.51,0,0,1-.51.31A.54.54,0,0,1,12,20a.83.83,0,0,0,0-.15c0-.11,0-.18.08-.26.15-.28.33-.54.47-.82.51-.85,1-1.72,1.51-2.58a.5.5,0,0,1,.2-.23h.14a.81.81,0,0,1,.35.26C14.78,16.4,15,16.43,15.13,16.61Z"/><path class="cls-4" d="M11.76,15.9A7.75,7.75,0,0,0,11,14.66c.1-.09.21-.06.32-.06h3.56a.31.31,0,0,1,.22.07,4.39,4.39,0,0,0-.37,1.11c0,.14-.12.13-.23.13Z"/><path class="cls-19" d="M15.13,14.66h-.84a1.46,1.46,0,0,1-.19-.07.51.51,0,0,1,0-.79c.05,0,.12,0,.18-.06H15.7A5.86,5.86,0,0,1,15.13,14.66Z"/><path class="cls-22" d="M14.68,16.21a.83.83,0,0,1-.35-.26h.13C14.73,15.94,14.73,15.94,14.68,16.21Z"/><path class="cls-23" d="M4.44,22.45l.64.21a.31.31,0,0,1,.19.2,8.6,8.6,0,0,1-.88-.19A.42.42,0,0,1,4.44,22.45Z"/><path class="cls-5" d="M3.55,6.92a3.84,3.84,0,0,0,1.14-.34,1.72,1.72,0,0,0,.94-1.36c0-.14.06-.18.19-.17H6a1.37,1.37,0,0,1,.5,0c.17.06.1.29.17.44a1.54,1.54,0,0,0,.84.84c.15.06.28.05.35-.11s0-.27-.16-.33a1,1,0,0,1-.62-.67c0-.11,0-.2.13-.19h1c.08,0,.14,0,.15.11C8.48,6,9,6.3,9.76,6.47l.26.06a.11.11,0,0,1,0,.08c0,.56,0,1.11,0,1.67a1.42,1.42,0,0,1-.06.46,3.1,3.1,0,0,1-.09.61.45.45,0,0,1,0,.34,3.39,3.39,0,0,1-1.73,1.82.69.69,0,0,1-.34.09,7.34,7.34,0,0,1-1.24.12c-.3,0-.58-.12-.87-.11a.46.46,0,0,1-.3-.08.77.77,0,0,0-.25-.14,2.59,2.59,0,0,1-1.11-1,.86.86,0,0,0-.1-.16.92.92,0,0,1-.26-.63,4.13,4.13,0,0,1-.15-.78A7.63,7.63,0,0,1,3.55,6.92Z"/><path class="cls-20" d="M7.86,11.57A3.26,3.26,0,0,0,9.94,9.35.17.17,0,0,1,10,9.5,10.23,10.23,0,0,1,9.94,12c0,.12,0,.25-.09.35a.38.38,0,0,0-.38.32,5,5,0,0,1-.21.48c0,.05,0,.13-.12.13a1.89,1.89,0,0,0-.66-.13c-.1.05-.2,0-.29,0s-.27,0-.37-.11a6.66,6.66,0,0,1,0-1.34A.13.13,0,0,1,7.86,11.57Z"/><path class="cls-24" d="M5,4.13c-.26,0-.37-.12-.4-.32a.41.41,0,0,1,.29-.48,5.13,5.13,0,0,1,3.8,0A.41.41,0,0,1,9,3.82a.38.38,0,0,1-.4.31.65.65,0,0,1-.24,0H5.25A.65.65,0,0,1,5,4.13Z"/><path class="cls-20" d="M3.69,9.61a3,3,0,0,0,.31.62.39.39,0,0,0,.08.14,3.08,3.08,0,0,0,1.11,1,.28.28,0,0,0,.23.12c.08,0,.16.11.26.09a.18.18,0,0,1,.05.07c0,.44,0,.89,0,1.33a.16.16,0,0,1,0,.07c-.13.09-.29,0-.43.07l-.07,0a1.24,1.24,0,0,0-.27,0c-.13,0-.25.11-.4.07a4.94,4.94,0,0,1-.47-1.11,2.15,2.15,0,0,0-.28-.64.22.22,0,0,1-.14-.23,3.09,3.09,0,0,0,0-.43,4.35,4.35,0,0,1,0-1C3.64,9.73,3.62,9.66,3.69,9.61Z"/><path class="cls-6" d="M14.15,13.82a.48.48,0,0,0,0,.76c0,.06-.05.06-.09.06H11s0,0,0,0L10.38,14c.17,0,.21-.1.27-.21a.31.31,0,0,1,.19,0H14C14,13.76,14.11,13.7,14.15,13.82Z"/><path class="cls-5" d="M3.5,8.65H3a.57.57,0,0,1-.56-.59A.58.58,0,0,1,3,7.48H3.5A5.72,5.72,0,0,1,3.5,8.65Z"/><path class="cls-5" d="M10.07,7.48h.55a.6.6,0,0,1,.56.58.59.59,0,0,1-.56.59h-.55A5.72,5.72,0,0,1,10.07,7.48Z"/><path class="cls-21" d="M4.52,13.2l.41-.09a.14.14,0,0,1,.15,0,1.28,1.28,0,0,1,0,.7,7.33,7.33,0,0,1-.81.19.78.78,0,0,1-.73-.28,1.62,1.62,0,0,1,.54-.35A.58.58,0,0,1,4.52,13.2Z"/><path class="cls-25" d="M4.52,13.2l-.43.18h0A1.23,1.23,0,0,1,4,13.11c-.07-.37-.29-.69-.38-1,0-.08,0-.16-.06-.23-.06-.24,0-.33.26-.36a.22.22,0,0,1,.18.15C4.11,12.16,4.32,12.68,4.52,13.2Z"/><path class="cls-25" d="M9.14,13.25c.12-.27.23-.54.35-.8s.19-.22.36-.13a.33.33,0,0,1,0,.4c-.11.24-.21.49-.31.73Z"/><path class="cls-9" d="M14.15,13.82c-.07-.08-.17,0-.25,0H10.65v0h3.63Z"/><path class="cls-1" d="M5,4.13H8.56c-.05.06-.12,0-.19,0H5.2C5.14,4.17,5.07,4.19,5,4.13Z"/><path class="cls-26" d="M10.07,7.48V8.65l0,.09c0-.74,0-1.48,0-2.21a1.23,1.23,0,0,1,0,.54C10.07,7.21,10.07,7.34,10.07,7.48Z"/><path class="cls-27" d="M3.5,8.65V7.48c0-.19,0-.38,0-.56,0,.64,0,1.27,0,1.91Z"/><path class="cls-28" d="M3.64,9.79v1A2.5,2.5,0,0,1,3.64,9.79Z"/><path class="cls-28" d="M4,13.11a.37.37,0,0,1,.12.26C4,13.32,4,13.21,4,13.11Z"/><path class="cls-29" d="M5.09,13.82a3.38,3.38,0,0,1,0-.71s.09,0,.12,0h.06a1.35,1.35,0,0,1,.4,0c.1,0,.09.11.1.17a.63.63,0,0,0,.26.43c.16.12.34.23.51.34a.51.51,0,0,0,.57,0l.42-.28a.59.59,0,0,0,.3-.51c0-.06,0-.12.08-.14s.22,0,.33,0,.18,0,.27,0a7.79,7.79,0,0,1-.09,1,5.07,5.07,0,0,1-1.09,2,.62.62,0,0,1-1.07,0,4.79,4.79,0,0,1-1-1.74Z"/><path class="cls-30" d="M12.38,18.16l.13.62c-.14.38-.4.69-.58,1.06a1.37,1.37,0,0,1-.13.2c-.09.09-.19.15-.31.06a.21.21,0,0,1-.08-.32c.11-.2.23-.4.34-.61A9.49,9.49,0,0,1,12.38,18.16Z"/><path class="cls-31" d="M6.17,20.72a2,2,0,0,0-.35.36.5.5,0,0,1-.56.18l-.51-.14c.1-.48.19-.39-.28-.65A6.74,6.74,0,0,1,3.68,20L4,18.84c.08-.31.18-.37.5-.3l1.7.37c.32.08.39.18.32.5S6.27,20.28,6.17,20.72Z"/><path class="cls-32" d="M11,14.62h2.92c.08,0,.16,0,.23,0l.14.08H11Z"/><path class="cls-33" d="M7.86,13.07a.63.63,0,0,1-.21.58c-.27.19-.5.47-.87.48a1.38,1.38,0,0,1-1.1-1.06s0,0,0-.05h0a9.48,9.48,0,0,0,0-1.41s0,0,0,0c.15-.09.29,0,.43,0a3.76,3.76,0,0,0,1.53-.06c.07,0,.15-.07.22,0V13S7.88,13.05,7.86,13.07Z"/><path class="cls-34" d="M6.81,10.76a2.62,2.62,0,0,1-.67-.16A.24.24,0,0,1,6,10.29a.2.2,0,0,1,.28-.14,1.28,1.28,0,0,0,1.08,0,.24.24,0,0,1,.32.13c.06.13,0,.21-.1.28A1.49,1.49,0,0,1,6.81,10.76Z"/><path class="cls-35" d="M8.33,7.58H8a.22.22,0,0,1-.23-.24A.2.2,0,0,1,8,7.11q.38,0,.75,0c.15,0,.23.09.22.25a.22.22,0,0,1-.23.22Z"/><path class="cls-35" d="M5.43,7.58H5.08a.23.23,0,0,1-.24-.24.2.2,0,0,1,.21-.23q.39,0,.78,0a.21.21,0,0,1,.2.24.21.21,0,0,1-.22.23Z"/><path class="cls-36" d="M5.91,8.29c0,.17,0,.29-.24.31s-.25-.11-.25-.31,0-.32.25-.32S5.91,8.12,5.91,8.29Z"/><path class="cls-36" d="M8.29,8.29c0,.16,0,.31-.24.3s-.25-.14-.24-.31S7.85,8,8,8,8.28,8.13,8.29,8.29Z"/><path class="cls-20" d="M5.42,11.47c-.14.08-.2,0-.23-.12Z"/><path class="cls-20" d="M4.08,10.37c-.1,0-.09-.08-.08-.14A.17.17,0,0,1,4.08,10.37Z"/><path class="cls-37" d="M7.86,13.07V13c.12,0,.24,0,.35.05Z"/><path class="cls-20" d="M5.68,11.6a7.38,7.38,0,0,1,0,1.41Z"/><path class="cls-38" d="M5.68,13v.05H5.24C5.38,13,5.53,13,5.68,13Z"/><path class="cls-39" d="M5.18,13.07s-.08,0-.12,0H4.93A.37.37,0,0,1,5.18,13.07Z"/></g></g></svg>