<svg xmlns="http://www.w3.org/2000/svg" viewBox="0 0 22.85 23"><defs><style>.cls-1{fill:#004066;}.cls-2{fill:#993962;}.cls-3{fill:#824262;}.cls-4{fill:#d9edfd;}.cls-5{fill:#c9dbfd;}.cls-6{fill:#fe005c;}.cls-7{fill:#c4dafc;}.cls-8{fill:#01a0fe;}.cls-9{fill:#e81861;}.cls-10{fill:#54b66a;}.cls-11{fill:#9dbafa;}.cls-12{fill:#465a65;}.cls-13{fill:#59d86c;}.cls-14{fill:#fecdbe;}.cls-15{fill:#feb33f;}.cls-16{fill:#fc8644;}.cls-17{fill:#fea1bc;}.cls-18{fill:#bfe0fd;}.cls-19{fill:#f27fa2;}.cls-20{fill:#54b76a;}.cls-21{fill:#0ca4fe;}.cls-22{fill:#0fa4fe;}.cls-23{fill:#09a3fe;}.cls-24{fill:#0ea4fe;}.cls-25{fill:#475b67;}.cls-26{fill:#485c67;}.cls-27{fill:#485c68;}.cls-28{fill:#f27ea1;}.cls-29{fill:#f27ea2;}.cls-30{fill:#d8c6e3;}</style></defs><g id="Layer_2" data-name="Layer 2"><g id="Layer_1-2" data-name="Layer 1"><path class="cls-1" d="M5.11,23v0a.31.31,0,0,1,.22-.09h12c.15,0,.32,0,.45.09a.06.06,0,0,0,0,0Z"/><path class="cls-2" d="M14.36,0s0,0,0,0a.35.35,0,0,1-.29.09H9a3,3,0,0,0-.67,0A.57.57,0,0,1,8,.07a.06.06,0,0,1,0-.07Z"/><path class="cls-2" d="M.84,0a0,0,0,0,0,0,0H7.13a0,0,0,0,1,0,.07.62.62,0,0,1-.44.07,2.15,2.15,0,0,0-.62,0H1.18A.41.41,0,0,1,.84,0Z"/><path class="cls-3" d="M7.13,0V0h.81V0A.83.83,0,0,1,7.13,0Z"/><path class="cls-4" d="M15.14,2.4v1a.66.66,0,0,1,.06.31c0,1.57,0,3.14,0,4.71a.19.19,0,0,1,0,.08c-.06.15-.2.24-.3.36a2.35,2.35,0,0,0-.3.33.36.36,0,0,0,.05.52c.12.14.26.26.36.4a.73.73,0,0,1,0,.79.56.56,0,0,1-.56.35,1.62,1.62,0,0,0-.58.07.32.32,0,0,0-.24.27,3.22,3.22,0,0,0,0,.82.91.91,0,0,0,.17.43c0,.06.12.12,0,.19a3.39,3.39,0,0,1-1.1,0,.34.34,0,0,1-.13-.25,4.58,4.58,0,0,1-.13-.74,6,6,0,0,0-.44-1.68,1.44,1.44,0,0,0-1-.9,4.22,4.22,0,0,0-1,0c.24.37.07.63-.16.89s-.55.68-.84,1a.65.65,0,0,1-1.16-.14.57.57,0,0,1,.22-.55c.38-.41.8-.77,1.2-1.15l.11-.11c.09-.1,0-.14-.06-.16a.6.6,0,0,0-.23,0c-.07,0-.15,0-.2,0a.39.39,0,0,1,0-.28s0-.06,0-.08c-.05-.34.16-.48.41-.64a2.77,2.77,0,0,0,1.23-1.54.62.62,0,0,1,.16-.31l.07,0a.83.83,0,0,0,.56-.4,1.93,1.93,0,0,0,.31-1.28A.6.6,0,0,0,11.09,4c-.1,0-.19.06-.3,0s0-.11,0-.16A2.37,2.37,0,0,0,11,2.67c0-.1-.05-.21.06-.29a.83.83,0,0,1,.31,0h3.47A.53.53,0,0,1,15.14,2.4Z"/><path class="cls-5" d="M22.81,5v6.5a1.36,1.36,0,0,0-.92-.23l-.13,0A.77.77,0,0,1,21.45,10l.19-.19a.41.41,0,0,0,.05-.63,2.91,2.91,0,0,0-.45-.48c-.29-.28-.4-.29-.74-.06a.81.81,0,0,0-.19.18.66.66,0,0,1-.86.17l-.11,0A.55.55,0,0,1,19,8.42,3.62,3.62,0,0,1,19,8a.39.39,0,0,0-.35-.43,2.43,2.43,0,0,0-.6,0c-.57,0-.69.14-.7.76a.7.7,0,0,1-.65.78.62.62,0,0,1-.51-.12,3.31,3.31,0,0,1-.27-.26.52.52,0,0,0-.56-.18c-.08,0-.17,0-.17-.09V3.7a.48.48,0,0,1,0-.24h6A1.69,1.69,0,0,1,22.77,4.8C22.73,4.88,22.8,4.94,22.81,5Z"/><path class="cls-6" d="M15.14,2.4H11c-.11-.05-.12-.15-.15-.24A2.93,2.93,0,0,0,8.78.24c-.16,0-.34,0-.47-.16.08-.06.18,0,.28,0h5.78a.9.9,0,0,1,.76.72A10,10,0,0,1,15.14,2.4Z"/><path class="cls-7" d="M15.17,3.46v5s0,0,0,0V3.4Z"/><path class="cls-5" d="M.08,18.12V13.21c.1,0,.13.08.17.15a.91.91,0,0,0,.77.43H13.93a1.38,1.38,0,0,0,1-.32c.13-.05.15.06.17.14a.53.53,0,0,1-.14.52,3.89,3.89,0,0,0-.34.36.4.4,0,0,0,.05.58l.5.51c.25.23.39.23.66,0s.23-.25.37-.35a.79.79,0,0,1,1.16.57c0,.12,0,.25,0,.38,0,.35.12.46.48.47H18a3.25,3.25,0,0,0,.54,0,.35.35,0,0,0,.37-.34A1.09,1.09,0,0,0,19,16a.72.72,0,0,1,.35-.7c.5-.22.71-.17,1.18.3a.41.41,0,0,0,.63,0,7.25,7.25,0,0,0,.62-.62.3.3,0,0,0,0-.35,1,1,0,0,0-.26-.36A.78.78,0,0,1,21.7,13l.07,0a1.89,1.89,0,0,0,1-.22c0,.5,0,1,0,1.48,0,1.31,0,2.62,0,3.92a.32.32,0,0,1-.23.08H.53A.71.71,0,0,1,.08,18.12Z"/><path class="cls-8" d="M.08,18.12H22.81a1.7,1.7,0,0,1-1.69,1.74H14.36a.41.41,0,0,1-.3.08H8.82a.38.38,0,0,1-.29-.08H1.84a1.7,1.7,0,0,1-1.36-.62A1.49,1.49,0,0,1,.08,18.12Z"/><path class="cls-6" d="M7.8,22.58l.5-1.78a.41.41,0,0,1,.32-.08h5.65a.38.38,0,0,1,.31.08l.51,1.78c-.11.13-.26.1-.4.1H8.17C8,22.68,7.9,22.71,7.8,22.58Z"/><path class="cls-9" d="M14.58,20.8H8.3l.23-.94h5.83Z"/><path class="cls-8" d="M7.8,22.58h9.8c.11,0,.21,0,.25.13a.19.19,0,0,1-.11.24H5.11A.19.19,0,0,1,5,22.71c0-.12.15-.12.25-.12Z"/><path class="cls-10" d="M22.81,12.71a.57.57,0,0,1-.53.27h-.55c0-.07,0-.1.07-.12a.45.45,0,0,0,.22-.46,4.34,4.34,0,0,1,0-.51.9.9,0,0,0-.12-.51.15.15,0,0,1,0-.17,2.17,2.17,0,0,0,.36,0,.56.56,0,0,1,.59.3A4,4,0,0,1,22.81,12.71Z"/><path class="cls-4" d="M0,5A5.18,5.18,0,0,0,.07,3.61c0-.4,0-.81,0-1.21A.59.59,0,0,1,.4,2.34H3.87a.8.8,0,0,1,.31,0,.19.19,0,0,1,.1.17,7.09,7.09,0,0,0,.21,1.37.23.23,0,0,1,0,.11c-.1.08-.2,0-.3,0a.59.59,0,0,0-.55.53A2,2,0,0,0,3.9,5.86a.86.86,0,0,0,.58.42l.07,0a.38.38,0,0,1,.13.23A2.86,2.86,0,0,0,6.11,8.26a.38.38,0,0,1,.23.41,1.54,1.54,0,0,1,0,.48c-.1.1-.22,0-.32,0s-.17,0-.21.07.06.13.11.17c.44.39.85.81,1.26,1.23a.51.51,0,0,1,.2.51.69.69,0,0,1-.19.25.55.55,0,0,1-.85,0,4.84,4.84,0,0,1-.57-.63l-.45-.56C5.08,10,5,9.75,5.16,9.46a1.46,1.46,0,0,0-1.89.92A5.84,5.84,0,0,0,2.84,12a2.57,2.57,0,0,1-.24,1A6.18,6.18,0,0,1,.68,13a.73.73,0,0,1-.6-.69c0-.13,0-.25,0-.38,0-2.27,0-4.54,0-6.81C.06,5.06.09,5,0,5Z"/><path class="cls-11" d="M.08,12.31a1.08,1.08,0,0,0,.45.56A1,1,0,0,0,.94,13H2.6a.39.39,0,0,1,.31-.08h9.38a.4.4,0,0,1,.32.08h1.18a1.09,1.09,0,0,1,1,.06.36.36,0,0,1,.21.44,1,1,0,0,1-.86.4h-7c-2,0-3.94,0-5.9,0a1,1,0,0,1-1.12-.67A6.76,6.76,0,0,1,.08,12.31Z"/><path class="cls-6" d="M4.2,2.41H.08A11.6,11.6,0,0,1,.07.84.87.87,0,0,1,.84,0H6.46c.09,0,.18,0,.26,0a.56.56,0,0,1-.34.15,1.15,1.15,0,0,0-.75.63,1.89,1.89,0,0,0-.11.25.83.83,0,0,1-.61.56.78.78,0,0,0-.6.55C4.29,2.29,4.28,2.37,4.2,2.41Z"/><path class="cls-12" d="M4.2,2.41A.92.92,0,0,1,5,1.57a.52.52,0,0,0,.38-.28,1.47,1.47,0,0,0,.1-.22,1.4,1.4,0,0,1,1.26-1c.14,0,.27,0,.41,0h.81c.13,0,.24.07.37,0A3.09,3.09,0,0,1,11,2.41a2.68,2.68,0,0,1-.07,1.32c0,.08,0,.18-.13.22a.66.66,0,0,1-.36-.16,4.38,4.38,0,0,0-1.17-.62.53.53,0,0,0-.7.26.77.77,0,0,1-.88.39,4.1,4.1,0,0,1-1.44-.53.51.51,0,0,0-.66,0,5.3,5.3,0,0,1-.83.57c-.1.06-.2.14-.33.06A4.72,4.72,0,0,1,4.2,2.41Z"/><path class="cls-13" d="M15,13.48c-.16-.42-.26-.49-.7-.5h-.49a.7.7,0,0,1-.31-.67c0-.23,0-.46,0-.69a.41.41,0,0,1,.34-.39,2,2,0,0,1,.6,0,.4.4,0,0,0,.26-.06.77.77,0,0,0,.18-1.05l-.29-.29a.43.43,0,0,1-.06-.65,3.85,3.85,0,0,1,.6-.61c.12,0,.19.12.27.19a.55.55,0,0,0,.65.14h.11a.72.72,0,0,0,.84,0,.5.5,0,0,0,.25-.47,2.2,2.2,0,0,1,0-.44c.07-.4.2-.51.6-.49H18a.44.44,0,0,1,.37.48,1.82,1.82,0,0,1,0,.33c0,.49.35.65.75.67a.75.75,0,0,0,.26-.05l.27.09a.44.44,0,0,0,.51-.13,1.33,1.33,0,0,1,.3-.28,1.53,1.53,0,0,1,.69.71.48.48,0,0,1-.07.53,3.76,3.76,0,0,1-.28.29.58.58,0,0,0-.14.66.57.57,0,0,0,.52.42c.19,0,.39,0,.58,0l.09,0a.88.88,0,0,1,.23.72,2.67,2.67,0,0,0,0,.4.53.53,0,0,1-.36.65h0a1.1,1.1,0,0,1-.48.06.53.53,0,0,0-.56.39.54.54,0,0,0,.13.67,1.61,1.61,0,0,1,.31.38.5.5,0,0,1,0,.55,2.75,2.75,0,0,1-.55.58.12.12,0,0,1-.13,0l-.09-.07a.74.74,0,0,0-1-.24,1.49,1.49,0,0,0-.47,0,.59.59,0,0,0-.5.6,3,3,0,0,1,0,.42.45.45,0,0,1-.33.43h-.33a.42.42,0,0,1-.43-.46c0-.13,0-.27,0-.4a.72.72,0,0,0-1.09-.56.34.34,0,0,1-.2,0,.5.5,0,0,0-.58.15c-.08.07-.14.2-.28.17-.19-.19-.39-.37-.58-.57a.41.41,0,0,1,0-.53,1.54,1.54,0,0,1,.34-.38A.52.52,0,0,0,15,13.48Z"/><path class="cls-14" d="M4.44,4a3.42,3.42,0,0,0,1.07-.64c.36-.28.43-.29.82-.06a4,4,0,0,0,1.42.51.68.68,0,0,0,.78-.39.51.51,0,0,1,.65-.29,2.45,2.45,0,0,1,.78.33c.29.17.57.36.85.54,0,0,0,.06,0,.09s0,.15,0,.23V5.73a1.37,1.37,0,0,1-.12.6c-.15.27-.21.59-.37.86a2.9,2.9,0,0,1-1.15,1.1c-.18.1-.27.2-.24.41a.2.2,0,0,1,0,.15l0,0a.18.18,0,0,1,0-.1c0-.15-.09-.17-.21-.13a3.25,3.25,0,0,1-1.16.14,3,3,0,0,1-.79-.1c-.31-.09-.31-.09-.32.22a.53.53,0,0,1,0,.33s-.07,0-.07,0v0a.88.88,0,0,0-.51-1A2.51,2.51,0,0,1,4.61,6.53a.37.37,0,0,0-.09-.2,1.88,1.88,0,0,1-.16-.84c0-.4,0-.8,0-1.2A.29.29,0,0,1,4.44,4Z"/><path class="cls-15" d="M2.78,12a5.32,5.32,0,0,1,.56-1.92,1.34,1.34,0,0,1,1.28-.74h.73c-.23.22-.31.44-.14.69a2.75,2.75,0,0,0,.22.26,12.93,12.93,0,0,0,.83,1c.37.37.57.37.94,0l.11-.13a.51.51,0,0,1,.23-.27.28.28,0,0,1,.13,0,.53.53,0,0,1,.22.27,1.34,1.34,0,0,0,.26.27.46.46,0,0,0,.67,0,11.2,11.2,0,0,0,.95-1.1l.08-.11c.31-.35.31-.46,0-.85a8.3,8.3,0,0,1,1,0,1.35,1.35,0,0,1,1,.82,5.41,5.41,0,0,1,.46,1.53,2.54,2.54,0,0,1,0,.29c-.11.11-.26.08-.4.08H3.17A.53.53,0,0,1,2.78,12Z"/><path class="cls-16" d="M2.78,12h9.64l.19,1H2.6Z"/><path class="cls-17" d="M6.32,9.21V8.85c.11,0,.21,0,.31,0a3.38,3.38,0,0,0,2,0,.28.28,0,0,1,.25,0h0v.31c0,.25-.27.37-.43.52a7.32,7.32,0,0,0-.87.89H7.57a11.53,11.53,0,0,0-1.1-1.11C6.4,9.39,6.29,9.34,6.32,9.21Z"/><path class="cls-18" d="M7.62,10.55a.57.57,0,0,1,.19-.29l1.13-1.1.19,0c.16,0,.35,0,.41.11s-.13.19-.21.27c-.4.4-.81.79-1.22,1.18a.65.65,0,0,0-.22.47,1,1,0,0,1-.22-.24A.25.25,0,0,1,7.62,10.55Z"/><path class="cls-17" d="M11.08,4a.63.63,0,0,1,.63.63A2,2,0,0,1,11.34,6a.68.68,0,0,1-.57.33A.49.49,0,0,1,10.84,6a3.22,3.22,0,0,0,.21-1.81A.29.29,0,0,1,11.08,4Z"/><path class="cls-19" d="M11.08,4a3.34,3.34,0,0,1-.31,2.36h0c.07-.71,0-1.41,0-2.12a1,1,0,0,1,0-.17A.43.43,0,0,1,11.08,4Z"/><path class="cls-20" d="M16.16,8.85a.52.52,0,0,1-.68,0,1.22,1.22,0,0,1-.35-.33v0l0,0a.5.5,0,0,1,.72.12Z"/><path class="cls-10" d="M21.77,11.2a1.83,1.83,0,0,1-.66,0,.61.61,0,0,1-.52-.49.61.61,0,0,1,.17-.7l.09-.09c.41-.41.39-.71-.06-1.08a1.57,1.57,0,0,1-.32-.31c.33-.25.48-.25.77,0a4.59,4.59,0,0,1,.53.55.44.44,0,0,1-.05.66c-.06.07-.13.13-.2.2A.71.71,0,0,0,21.77,11.2Z"/><path class="cls-10" d="M19.39,8.86c-.24.24-.48.09-.72,0a.51.51,0,0,1-.35-.49,1.4,1.4,0,0,1,0-.29A.61.61,0,0,0,18,7.43a1.84,1.84,0,0,1,.7,0,.4.4,0,0,1,.33.42,5.24,5.24,0,0,0,0,.56A.44.44,0,0,0,19.39,8.86Z"/><path class="cls-21" d="M20.55,5c-.08,0-.17,0-.17-.1s.1-.09.18-.09.17,0,.17.09S20.62,5,20.55,5Z"/><path class="cls-22" d="M16,5c-.07,0-.18,0-.19-.1s.09-.09.17-.09.18,0,.18.09S16.08,5,16,5Z"/><path class="cls-22" d="M19.42,5c-.07,0-.18,0-.18-.1s.09-.09.16-.09.18,0,.19.09S19.49,5,19.42,5Z"/><path class="cls-23" d="M21.69,4.81c.07,0,.16,0,.17.09s-.09.1-.16.09-.19,0-.18-.09S21.62,4.81,21.69,4.81Z"/><path class="cls-23" d="M18.27,4.81c.08,0,.18,0,.18.1s-.1.08-.17.08-.17,0-.18-.07S18.2,4.82,18.27,4.81Z"/><path class="cls-24" d="M17.12,4.81c.08,0,.18,0,.19.08s-.1.11-.18.11S17,5,17,4.9,17.06,4.82,17.12,4.81Z"/><path class="cls-10" d="M20.46,15.64a4.55,4.55,0,0,0,.59-.57.46.46,0,0,0,0-.57,2.1,2.1,0,0,0-.31-.35.57.57,0,0,1-.15-.71.6.6,0,0,1,.63-.46h.49a.88.88,0,0,0-.42.52.57.57,0,0,0,.16.63,1.46,1.46,0,0,1,.37.45.35.35,0,0,1,0,.45,4.44,4.44,0,0,1-.65.65A.45.45,0,0,1,20.46,15.64Z"/><path class="cls-25" d="M6.59,16.39H5.21c-.14,0-.27,0-.28-.18s.14-.21.28-.21H8c.13,0,.26,0,.27.19s-.14.2-.28.2Z"/><path class="cls-12" d="M4.28,14.37H5.69c.14,0,.25,0,.26.19s-.11.19-.25.19H2.83c-.14,0-.27,0-.27-.2s.13-.18.26-.18Z"/><path class="cls-10" d="M18,16.76a.64.64,0,0,0,.28-.58V16c-.07-.53.4-.81.9-.75a.18.18,0,0,1,.14.1.66.66,0,0,0-.31.69,1.09,1.09,0,0,1,0,.36.42.42,0,0,1-.45.38Z"/><path class="cls-12" d="M8.3,14.74H7.2c-.13,0-.25,0-.24-.19s.12-.18.25-.18H9.38c.14,0,.25,0,.25.19s-.12.19-.25.19Z"/><path class="cls-26" d="M10.7,16h.94c.14,0,.25.05.24.2s-.1.19-.22.19H9.73c-.14,0-.25-.05-.25-.2s.13-.18.26-.18C10.06,16,10.38,16,10.7,16Z"/><path class="cls-27" d="M3.31,16c.18,0,.36,0,.54,0s.23.05.23.2-.1.19-.23.19H2.78a.2.2,0,0,1-.22-.18c0-.14.09-.2.22-.2s.36,0,.53,0Z"/><path class="cls-12" d="M11.1,14.74h-.61c-.12,0-.2-.06-.2-.18a.18.18,0,0,1,.2-.19h1.19c.13,0,.2.06.2.19s-.08.18-.2.18Z"/><path class="cls-20" d="M15.12,15.64l.17-.14c.35-.35.42-.37.89-.17a3.06,3.06,0,0,1-.36.36A.45.45,0,0,1,15.12,15.64Z"/><path class="cls-18" d="M6.32,9.21c.32.38.73.68,1.07,1a.51.51,0,0,1,.19.29c0,.13.06.26,0,.36a.72.72,0,0,1-.22.24.56.56,0,0,0-.2-.46c-.44-.43-.87-.88-1.33-1.29a.33.33,0,0,1-.14-.17.69.69,0,0,1,.64-.07Z"/><path class="cls-17" d="M4.48,6.32A.63.63,0,0,1,3.94,6a2,2,0,0,1-.39-1.52A.59.59,0,0,1,4.17,4a.19.19,0,0,1,0,.19,3.49,3.49,0,0,0,.24,1.94A.46.46,0,0,1,4.48,6.32Z"/><path class="cls-28" d="M4.48,6.32A3.18,3.18,0,0,1,4.17,4c.1,0,.18,0,.27.08a15.94,15.94,0,0,0,.08,2.29Z"/><path class="cls-5" d="M17.73,10.19a2.05,2.05,0,0,1,1.56.31A2,2,0,0,1,20,12.66,1.8,1.8,0,0,1,18.36,14a2.88,2.88,0,0,1-.72,0,.34.34,0,0,1-.26,0,1.74,1.74,0,0,1-1.11-1.23,2,2,0,0,1,.43-2.05A1.25,1.25,0,0,1,17.73,10.19Z"/><path class="cls-10" d="M17.73,10.19A1.87,1.87,0,0,0,16.24,12a1.87,1.87,0,0,0,1.4,2c-.09.14-.23.08-.34.06a1.86,1.86,0,0,1-1.8-1.86,1.86,1.86,0,0,1,1.88-2A.61.61,0,0,1,17.73,10.19Z"/><path class="cls-29" d="M8.92,8.85a3.26,3.26,0,0,1-2.6,0c0-.4,0-.4.37-.29a3.53,3.53,0,0,0,2,0c.28-.09.28-.09.28.21A.45.45,0,0,1,8.92,8.85Z"/><path class="cls-30" d="M7.53,10.91a.85.85,0,0,0,0-.36h0a1,1,0,0,0,0,.36Z"/></g></g></svg>