<svg xmlns="http://www.w3.org/2000/svg" viewBox="0 0 18.75 24"><defs><style>.cls-1{fill:#2d4356;}.cls-2{fill:#e0eaf3;}.cls-3{fill:#80d8e2;}.cls-4{fill:#5fabb0;}.cls-5{fill:#eff4f9;}.cls-6{fill:#d58651;}.cls-7{fill:#bfc7ce;}.cls-8{fill:#d99c73;}.cls-9{fill:#fbe3a8;}.cls-10{fill:#feda80;}.cls-11{fill:#81d8e2;}.cls-12{fill:#a9e5ec;}.cls-13{fill:#fb785e;}.cls-14{fill:#fa9481;}.cls-15{fill:#d0624f;}.cls-16{fill:#eef4f9;}</style></defs><g id="Layer_2" data-name="Layer 2"><g id="Layer_1-2" data-name="Layer 1"><path class="cls-1" d="M12.8,0a1.27,1.27,0,0,1,.83.78,1.34,1.34,0,0,1,.06.4c0,.32,0,.32.33.32h3.59a1.13,1.13,0,0,1,1.12.91,1.62,1.62,0,0,1,0,.31V20.1a.69.69,0,0,1-.22.53c-1.06,1.05-2.1,2.1-3.15,3.15l-.24.22H3.47c-.05-.07-.14-.07-.2-.11A1.11,1.11,0,0,1,2.63,23c0-.28,0-.56,0-.84,0-.09,0-.19.12-.17s.48-.07.72,0c0,.26,0,.52,0,.78a.33.33,0,0,0,.27.44,1.37,1.37,0,0,0,.28,0h10c.36,0,.39,0,.46-.27,0-.61,0-1.23,0-1.84a1.24,1.24,0,0,1,1.27-1.26h1.61c.46,0,.5,0,.5-.48v-5.9c0-.21,0-.42,0-.63s-.14-.25-.31-.26H3.77a.27.27,0,0,0-.29.25c0,.54,0,1.08,0,1.63a.23.23,0,0,1,0,.11c-.24,0-.48-.07-.72,0-.09,0-.12,0-.12-.13s0-.14,0-.21V2.79A1.15,1.15,0,0,1,3.91,1.5c1.16,0,2.32,0,3.49,0,.21,0,.3,0,.29-.28A1.18,1.18,0,0,1,8.58,0Z"/><path class="cls-2" d="M3.38,22.64c0-.19,0-.39,0-.58a.15.15,0,0,1,.1-.16,3.67,3.67,0,0,0,2.87-2,.63.63,0,0,1,.48-.12h4.61a2,2,0,0,0,.35,0c.13,0,.24-.09.25-.24s-.11-.23-.25-.26a1.82,1.82,0,0,0-.33,0H7.17a2.06,2.06,0,0,1-.35,0c-.11,0-.2,0-.17-.19l.1-.65A.27.27,0,0,1,7,18.27h9.49a1.7,1.7,0,0,0,.39,0,.24.24,0,0,0,0-.48,1.48,1.48,0,0,0-.42,0H7.19c-.17,0-.35.05-.48-.11a6.17,6.17,0,0,0-.19-.74c.05-.1.13-.1.22-.11h9.7a2.54,2.54,0,0,0,.39,0c.15,0,.26-.09.26-.26s-.12-.21-.25-.24a2.67,2.67,0,0,0-.4,0H6.68a.73.73,0,0,1-.54-.11,3.51,3.51,0,0,0-.62-.71c0-.11.09-.13.18-.14a2.06,2.06,0,0,1,.35,0h3.7a1.51,1.51,0,0,0,.3,0c.15,0,.29-.07.29-.24s-.14-.25-.3-.27H5.15c-.28,0-.56,0-.84-.06a2.71,2.71,0,0,0-.84-.2c-.09,0-.1-.1-.1-.19,0-.51,0-1,0-1.54a.26.26,0,0,1,.23-.1H17.46c.18,0,.38-.06.53.11,0,1.32,0,2.64,0,3.95,0,1,0,2,0,2.95,0,.19-.05.23-.23.23h-2a1.12,1.12,0,0,0-1.19,1.17v1.82a.27.27,0,0,1-.25.11H3.82C3.51,23,3.47,22.94,3.38,22.64Z"/><path class="cls-1" d="M0,18.17a3,3,0,1,1,3,3A3,3,0,0,1,0,18.17Z"/><path class="cls-1" d="M6.14,16.13H16.8c.28,0,.44.14.45.37s-.17.37-.47.37H6.52Z"/><path class="cls-1" d="M6.71,17.62H16.78c.3,0,.47.14.47.37s-.18.37-.47.37h-10C6.76,18.12,6.68,17.88,6.71,17.62Z"/><path class="cls-1" d="M6.65,19c0,.16.14.09.22.09h4.75c.39,0,.56.11.56.37s-.17.37-.55.38H6.34Z"/><path class="cls-1" d="M4.31,14.68a.55.55,0,0,1,.28-.06c1.81,0,3.63,0,5.45,0a.42.42,0,0,1,.4.19.37.37,0,0,1-.33.56c-.35,0-.7,0-1,0H5.76c-.08,0-.17-.05-.24,0A4.68,4.68,0,0,0,4.31,14.68Z"/><path class="cls-3" d="M3.38,11.25c0-1.62,0-3.24,0-4.85,0-1.18,0-2.36,0-3.54.1-.3.14-.34.45-.34.8,0,1.6,0,2.41,0,.11,0,.23,0,.31.1s0,.27,0,.4a1.11,1.11,0,0,0,1.09,1.1h6.07A1.11,1.11,0,0,0,14.81,3c0-.13,0-.26,0-.4s.18-.1.29-.1q1.23,0,2.46,0c.29,0,.33,0,.42.34,0,.9,0,1.81,0,2.72,0,1.89,0,3.78,0,5.67a.23.23,0,0,1-.22.1H3.91C3.73,11.36,3.53,11.42,3.38,11.25Z"/><path class="cls-4" d="M3.38,11.25H18s0,0,0,.07c0,.3,0,.3-.3.3q-7,0-14,0C3.36,11.62,3.36,11.62,3.38,11.25Z"/><path class="cls-5" d="M18,12.75H3.38c0-.37,0-.37.35-.37,4.64,0,9.28,0,13.91,0C18,12.38,18,12.38,18,12.75Z"/><path class="cls-6" d="M14.05,2.62c0,.12,0,.24,0,.35a.36.36,0,0,1-.41.4H7.72A.36.36,0,0,1,7.31,3c0-.11,0-.23,0-.35s.25-.1.39-.1h5.93C13.79,2.52,14,2.48,14.05,2.62Z"/><path class="cls-7" d="M3.38,22.64a.51.51,0,0,0,.48.24H14.62v0c0,.35,0,.35-.33.35H4C3.45,23.25,3.35,23.15,3.38,22.64Z"/><path class="cls-8" d="M14.05,2.62H7.32a.28.28,0,0,0,0-.09c0-.22,0-.29.27-.29H13.7C14.07,2.25,14.07,2.25,14.05,2.62Z"/><path class="cls-9" d="M8.44,1.36c0-.5.08-.61.58-.61h3.34c.5,0,.59.11.57.61a26.35,26.35,0,0,0-4-.13C8.76,1.22,8.63,1.37,8.44,1.36Z"/><path class="cls-10" d="M8.44,1.36a.51.51,0,0,1,.48-.24h3.53a.51.51,0,0,1,.48.24c0,.15-.06.14-.16.14H8.63C8.54,1.5,8.4,1.54,8.44,1.36Z"/><path class="cls-11" d="M17.08,21l-1.7,1.64V21.23c.1-.3.14-.33.44-.34s.65,0,1,0C16.9,20.9,17,20.88,17.08,21Z"/><path class="cls-12" d="M6.55,2.62H3.88a.53.53,0,0,0-.5.24,1.92,1.92,0,0,1,0-.24.35.35,0,0,1,.36-.37H6.41c.11,0,.17,0,.15.14S6.56,2.55,6.55,2.62Z"/><path class="cls-12" d="M18,2.86a.5.5,0,0,0-.49-.24H14.82s0,0,0-.07c0-.37,0-.3.29-.3h2.32C17.92,2.25,18,2.35,18,2.86Z"/><path class="cls-12" d="M17.08,21H15.76a.45.45,0,0,0-.38.23,1.29,1.29,0,0,1,0-.34.3.3,0,0,1,.29-.26h1.8Z"/><path class="cls-1" d="M6.4,13.13c.58,0,1.17,0,1.75,0,.3,0,.47.13.47.36s-.17.38-.46.38c-1.19,0-2.38,0-3.58,0-.29,0-.46-.14-.45-.38s.17-.36.47-.36C5.2,13.12,5.8,13.13,6.4,13.13Z"/><path class="cls-3" d="M5.21,17.86a.61.61,0,0,1,0,.33,2.2,2.2,0,0,1-2.24,2,2.19,2.19,0,0,1-2.24-2,.66.66,0,0,1,0-.34c.08,0,.06-.13.09-.2A2.26,2.26,0,0,1,3.93,16.4a2.06,2.06,0,0,1,1.23,1.4S5.19,17.84,5.21,17.86Z"/><path class="cls-4" d="M.76,18.19a2.8,2.8,0,0,0,.66,1.22,2.24,2.24,0,0,0,3.7-.87l.12-.35a2.24,2.24,0,1,1-4.48,0Z"/><path class="cls-12" d="M5.21,17.86c-.06.16-.07,0-.08,0A2.36,2.36,0,0,0,4.59,17a2.25,2.25,0,0,0-3.69.77c0,.06,0,.12-.06.15s0,0,0,0a2.23,2.23,0,0,1,4.42,0Z"/><path class="cls-1" d="M14.06,10.87c-.78,0-1.56,0-2.34,0a.76.76,0,0,1-.85-.83V8.75a1.11,1.11,0,0,1,.66-1c.3-.14.59-.29.9-.41.16-.07.18-.15.16-.32a2.43,2.43,0,0,1,0-.93,1.5,1.5,0,0,1,3,.27,2.7,2.7,0,0,1,0,.75c0,.12,0,.16.13.2l.9.42a1.1,1.1,0,0,1,.7,1.11v1.28a.75.75,0,0,1-.8.79C15.66,10.88,14.86,10.87,14.06,10.87Z"/><path class="cls-1" d="M7.15,6.75H9.68c.27,0,.43.13.44.35a.38.38,0,0,1-.42.4H4.62a.5.5,0,0,1-.36-.09A.34.34,0,0,1,4.15,7a.35.35,0,0,1,.35-.26H7.15Z"/><path class="cls-1" d="M6.68,9H4.59c-.29,0-.46-.14-.46-.38s.17-.37.47-.37H8.72c.29,0,.47.14.46.38S9,9,8.72,9Z"/><path class="cls-1" d="M6.21,5.25H7.78c.3,0,.47.14.47.38S8.07,6,7.78,6H4.59c-.29,0-.46-.14-.46-.38s.17-.37.46-.37Z"/><path class="cls-1" d="M5.7,10.5H4.58c-.28,0-.45-.14-.45-.37s.16-.38.43-.38h2.3c.28,0,.45.14.45.37s-.17.38-.46.38Z"/><path class="cls-1" d="M2.7,19.12a1.58,1.58,0,0,1-.8-.57.34.34,0,0,1,.1-.4.32.32,0,0,1,.43,0c.19.16.3.07.43-.07a8.37,8.37,0,0,1,.57-.62A.38.38,0,0,1,4,17.35a.39.39,0,0,1,0,.58L3,19A.45.45,0,0,1,2.7,19.12Z"/><path class="cls-13" d="M16.49,9v.8a.65.65,0,0,1-.73,0c0-.21-.16-.37-.39-.37s-.33.16-.38.37-.16.1-.27.11H13.4a.35.35,0,0,1-.27-.11c0-.21-.15-.37-.38-.37s-.34.16-.38.37a.66.66,0,0,1-.74,0V9a.46.46,0,0,1,.28-.34l.89-.41a.39.39,0,0,1,.44,0,1.35,1.35,0,0,0,1.6,0,.5.5,0,0,1,.59,0c.25.14.52.23.78.36A.44.44,0,0,1,16.49,9Z"/><path class="cls-14" d="M16.49,9a.62.62,0,0,0-.23-.19l-.35-.17a1.19,1.19,0,0,0-1.37-.07,1.17,1.17,0,0,1-1.32-.17.38.38,0,0,0-.43,0l-.91.43a.62.62,0,0,0-.25.2c0-.45,0-.46.4-.65l.87-.41a.2.2,0,0,1,.24,0,1.45,1.45,0,0,0,1.84,0,.21.21,0,0,1,.25,0l.87.41C16.51,8.49,16.51,8.5,16.49,9Z"/><path class="cls-2" d="M13.32,6.56V6.47a.78.78,0,0,1,1.24-.41.75.75,0,0,1,.24.41v.09c-.08.47-.3.67-.74.67S13.4,7,13.32,6.56Z"/><path class="cls-15" d="M13.13,9.75H15a.28.28,0,0,0,0,.09c0,.22,0,.3-.27.29-.41,0-.83,0-1.24,0S13.11,10.12,13.13,9.75Z"/><path class="cls-7" d="M13.32,6.56a.77.77,0,0,0,1.48,0,.81.81,0,0,1-.18.7.74.74,0,0,1-.81.2.72.72,0,0,1-.5-.71C13.31,6.69,13.32,6.62,13.32,6.56Z"/><path class="cls-16" d="M14.8,6.47a2,2,0,0,0-.28-.3.72.72,0,0,0-1,.13c0,.06-.1.11-.15.17a.75.75,0,1,1,1.48,0Z"/><path class="cls-15" d="M11.63,9.75h.74v.07c0,.3,0,.3-.29.3a.14.14,0,0,1-.09,0C11.61,10.12,11.61,10.12,11.63,9.75Z"/><path class="cls-15" d="M15.76,9.75h.73v0c0,.33,0,.33-.32.33a.08.08,0,0,1-.07,0C15.74,10.12,15.74,10.12,15.76,9.75Z"/></g></g></svg>