<svg xmlns="http://www.w3.org/2000/svg" viewBox="0 0 23.64 23"><defs><style>.cls-1{fill:#b9b9b9;}.cls-2{fill:#c8c8c8;}.cls-3{fill:#e5e5e5;}.cls-4{fill:#e9473b;}.cls-5{fill:#a7a7a7;}.cls-6{fill:#cbcac9;}.cls-7{fill:#d53322;}.cls-8{fill:#414356;}.cls-9{fill:#585a60;}.cls-10{fill:#dc6464;}.cls-11{fill:#f67c79;}.cls-12{fill:#2f3242;}</style></defs><g id="Layer_2" data-name="Layer 2"><g id="Layer_1-2" data-name="Layer 1"><path class="cls-1" d="M23.6,21.85A1.56,1.56,0,0,1,22,23c-.8,0-1.6,0-2.39,0-.06,0-.11,0-.15-.05a.46.46,0,0,1,.36-.08,2.55,2.55,0,0,0,.78,0,1.39,1.39,0,0,0,1.12-1.07,2.22,2.22,0,0,0,.07-.63V10.39c0-.14,0-.3.07-.42.13.53.18,1.07.27,1.6.16.95.29,1.91.44,2.86s.3,1.92.44,2.88.34,2.19.5,3.29a2.43,2.43,0,0,0,.1.6v.37C23.58,21.65,23.65,21.76,23.6,21.85Z"/><path class="cls-2" d="M23.6,21.85c0-.1,0-.2,0-.28v.27Z"/><path class="cls-3" d="M19.81,22.91a.85.85,0,0,1-.32,0,.42.42,0,0,1-.24.05H2.17A1.56,1.56,0,0,1,1,21.88a1.4,1.4,0,0,1-.06-.45V9.3A.5.5,0,0,1,1,8.94a.62.62,0,0,1,.33,0H20.58a.62.62,0,0,1,.33,0,.57.57,0,0,1,.08.42V21.41a1.56,1.56,0,0,1-.79,1.4A.49.49,0,0,1,19.81,22.91Z"/><path class="cls-4" d="M16.72,2h2.59a1.57,1.57,0,0,1,1.58,1.2c0,.11,0,.22,0,.32C21,4.83,21,6.1,21,7.37a.4.4,0,0,1-.06.26.77.77,0,0,1-.47.07H.28A.34.34,0,0,1,0,7.62a0,0,0,0,1,0,0c.17-.13.37-.06.56-.07S.9,7.5.9,7.17V3.61a1.6,1.6,0,0,1,.71-1.35A.94.94,0,0,1,2,2.1s0-.05,0,0,0,0,0,0a.87.87,0,0,1-.69,0,.58.58,0,0,1,.32,0h1.9a.23.23,0,0,1,.07.19,9.14,9.14,0,0,1,0,1.17.39.39,0,0,1-.11.17,1.08,1.08,0,0,0-.24,1.37,1.1,1.1,0,0,0,1.3.52l.07,0a1.09,1.09,0,0,0,.65-1.33A.85.85,0,0,0,5,3.66a.68.68,0,0,1-.18-.26,11,11,0,0,1,0-1.15A.24.24,0,0,1,4.9,2H9.46a.23.23,0,0,1,.07.19,9.14,9.14,0,0,1,0,1.17.41.41,0,0,1-.13.19A1.09,1.09,0,0,0,9.17,5a1.11,1.11,0,0,0,1.28.51l.09,0a1.1,1.1,0,0,0,.63-.67A1,1,0,0,0,11,3.68c-.07-.09-.17-.16-.2-.28,0-.38,0-.77,0-1.15A.24.24,0,0,1,10.81,2h4.55a.21.21,0,0,1,.09.2,11.18,11.18,0,0,1,0,1.16.32.32,0,0,1-.11.17A1.09,1.09,0,0,0,15.08,5a1.11,1.11,0,0,0,1.31.51l.06,0a1.12,1.12,0,0,0,.37-1.82.44.44,0,0,1-.16-.22c0-.38,0-.77,0-1.15A.27.27,0,0,1,16.72,2Z"/><path class="cls-5" d="M20.92,7.61V3.79c0-.07,0-.15,0-.23.1.67.21,1.33.31,2,.15,1,.3,1.9.44,2.85.07.53.19,1,.21,1.57v11.4a1.56,1.56,0,0,1-1.22,1.56,1.79,1.79,0,0,1-.86,0,1.52,1.52,0,0,0,1.11-1.45V9a.17.17,0,0,1-.06-.14,9.19,9.19,0,0,1,0-1.05A.24.24,0,0,1,20.92,7.61Z"/><path class="cls-6" d="M1,9V21.52a1.55,1.55,0,0,0,1,1.35c.07,0,.17,0,.21.13a2.44,2.44,0,0,1-1.41-.25A1.41,1.41,0,0,1,0,21.54Q0,15.29,0,9.05A.28.28,0,0,1,0,9,2.06,2.06,0,0,1,.9,8.91.13.13,0,0,1,1,9Z"/><path class="cls-7" d="M1.33,2.08h.74a3.87,3.87,0,0,0-.55.34A1.44,1.44,0,0,0,1,3.51C1,4.76,1,6,1,7.27c0,.31,0,.31-.32.31H0C0,6.21,0,4.84,0,3.47A1.5,1.5,0,0,1,1.33,2.08Z"/><path class="cls-8" d="M4.9,3.46a1.16,1.16,0,0,1-.24,2A1.22,1.22,0,0,1,4,4.6a.39.39,0,0,0-.18-.27.65.65,0,0,1-.29-.87V2c0-.44,0-.89,0-1.33a.67.67,0,0,1,1-.65.09.09,0,0,1,0,.09,1,1,0,0,0-.2.8c0,.9,0,1.8,0,2.7A.63.63,0,0,0,4.39,4c.1.16.22.17.34,0a.57.57,0,0,0,.1-.31C4.83,3.65,4.81,3.54,4.9,3.46Z"/><path class="cls-8" d="M15.37,3.45c0-.47,0-.94,0-1.41s0-.88,0-1.31a.67.67,0,0,1,1-.67.11.11,0,0,1,0,.11,1.15,1.15,0,0,0-.23.84V3.47a1.06,1.06,0,0,0,.09.5c0,.09.09.19.2.19s.17-.1.21-.19a.53.53,0,0,0,.06-.27.36.36,0,0,1,.07-.24,1.16,1.16,0,0,1-.24,2,1.17,1.17,0,0,1-.64-.89.34.34,0,0,0-.17-.25A.67.67,0,0,1,15.37,3.45Z"/><path class="cls-8" d="M9.46,3.46V2c0-.44,0-.88,0-1.31a.67.67,0,0,1,1-.67.11.11,0,0,1,0,.11,1.14,1.14,0,0,0-.23.86V3.49A1,1,0,0,0,10.3,4c.11.18.24.17.35,0a.69.69,0,0,0,.09-.31.31.31,0,0,1,.07-.26,1.16,1.16,0,0,1-.24,2,1.24,1.24,0,0,1-.65-.9.37.37,0,0,0-.17-.25A.65.65,0,0,1,9.46,3.46Z"/><path class="cls-9" d="M10.81,3.46a1.06,1.06,0,0,1-.12.65c-.15.2-.27.2-.42,0a.8.8,0,0,1-.15-.52c0-.94,0-1.88,0-2.83a.94.94,0,0,1,.32-.7.61.61,0,0,1,.38.62c0,.45,0,.91,0,1.36Z"/><path class="cls-9" d="M16.72,3.46a1,1,0,0,1-.13.66c-.16.19-.31.19-.43,0A1,1,0,0,1,16,3.6c0-1,0-1.89,0-2.83a1,1,0,0,1,.32-.71.61.61,0,0,1,.38.62c0,.46,0,.91,0,1.36Z"/><path class="cls-9" d="M4.9,3.46c0,.2,0,.41-.09.6s-.32.27-.49,0a.49.49,0,0,1-.07-.31c0-1,0-1.95,0-2.93A.89.89,0,0,1,4.52.06.6.6,0,0,1,4.9.67c0,.46,0,.92,0,1.37Z"/><path class="cls-10" d="M.92,9H0V7.62H1A.36.36,0,0,1,1,7.88c0,.26,0,.53,0,.8C1,8.78,1,8.89.92,9Z"/><path class="cls-11" d="M.92,9a1.42,1.42,0,0,0,0-.58c0-.25,0-.5,0-.75h20V9H1Z"/><path class="cls-9" d="M10.46,11.86H9.93c-.24,0-.4-.16-.4-.36s.16-.36.42-.36h1c.27,0,.43.14.43.35s-.15.35-.42.37h-.53Z"/><path class="cls-9" d="M17,11.14h.55a.37.37,0,0,1,.4.35.38.38,0,0,1-.4.37H16.47a.37.37,0,0,1-.4-.36c0-.22.15-.35.42-.36H17Z"/><path class="cls-9" d="M3.92,20.5H3.41c-.27,0-.41-.13-.42-.35s.15-.36.42-.37H4.47a.36.36,0,1,1,0,.72Z"/><path class="cls-9" d="M10.46,19.77H11a.37.37,0,0,1,.39.35.36.36,0,0,1-.38.37c-.38,0-.76,0-1.13,0a.38.38,0,0,1-.38-.37.39.39,0,0,1,.39-.35h.55Z"/><path class="cls-9" d="M7.2,19.77h.56a.35.35,0,0,1,.37.36.34.34,0,0,1-.36.36c-.39,0-.77,0-1.15,0a.35.35,0,0,1-.36-.37.38.38,0,0,1,.37-.35H7.2Z"/><path class="cls-9" d="M13.74,19.77h.55a.38.38,0,0,1,.39.35.36.36,0,0,1-.37.37c-.38,0-.76,0-1.15,0a.36.36,0,0,1-.36-.37.37.37,0,0,1,.39-.35Z"/><path class="cls-9" d="M7.21,11.14h.53c.25,0,.39.14.39.35s-.12.35-.37.36a10.46,10.46,0,0,1-1.12,0,.35.35,0,0,1-.38-.37.36.36,0,0,1,.39-.34h.56Z"/><path class="cls-9" d="M13.74,11.14h.56a.36.36,0,0,1,.38.35.35.35,0,0,1-.37.36,11,11,0,0,1-1.15,0,.36.36,0,0,1-.36-.37.37.37,0,0,1,.39-.34Z"/><path class="cls-9" d="M13.74,14h.6a.33.33,0,0,1,.34.33.34.34,0,0,1-.34.37h-1.2a.35.35,0,0,1,0-.7Z"/><path class="cls-9" d="M13.75,17.6h-.6a.34.34,0,0,1-.35-.35.35.35,0,0,1,.35-.35h1.18a.35.35,0,1,1,0,.7h-.57Z"/><path class="cls-9" d="M10.48,17.6h-.6a.36.36,0,0,1-.36-.35.36.36,0,0,1,.36-.35h1.18a.35.35,0,1,1,0,.7Z"/><path class="cls-9" d="M17,17.6h-.58a.35.35,0,1,1,0-.7H17.6a.35.35,0,0,1,.35.36.34.34,0,0,1-.36.34Z"/><path class="cls-9" d="M10.47,14h.58a.35.35,0,0,1,.36.34.35.35,0,0,1-.37.36H9.91a.35.35,0,1,1,0-.7h.55Z"/><path class="cls-9" d="M17,14h.58a.34.34,0,0,1,.34.33.35.35,0,0,1-.34.37h-1.2a.35.35,0,0,1-.34-.36.34.34,0,0,1,.36-.34Z"/><path class="cls-9" d="M7.19,14.73H6.64a.36.36,0,0,1-.38-.35A.34.34,0,0,1,6.63,14H7.76a.33.33,0,0,1,.37.35.35.35,0,0,1-.37.35Z"/><path class="cls-9" d="M3.93,17.6H3.35A.34.34,0,0,1,3,17.26a.35.35,0,0,1,.36-.36H4.5a.34.34,0,0,1,.36.34.34.34,0,0,1-.36.36Z"/><path class="cls-9" d="M7.23,16.9h.53a.34.34,0,0,1,.37.35.33.33,0,0,1-.36.35H6.62a.33.33,0,0,1-.36-.34.35.35,0,0,1,.37-.36Z"/><path class="cls-9" d="M3.94,14.73H3.37A.36.36,0,0,1,3,14.38.33.33,0,0,1,3.36,14H4.49a.32.32,0,0,1,.37.34.36.36,0,0,1-.39.36Z"/><path class="cls-12" d="M15.37,3.45c0,.12,0,.23,0,.35a.4.4,0,0,0,.21.41.6.6,0,0,1,.34.52,1,1,0,0,0,.45.62c.05,0,.1.06.1.13a1.16,1.16,0,0,1-1.11-2Z"/><path class="cls-12" d="M9.46,3.46c0,.1,0,.21,0,.32a.42.42,0,0,0,.21.43A.63.63,0,0,1,10,4.7a1,1,0,0,0,.45.65s.1.06.1.13A1.16,1.16,0,0,1,9.11,5,1.14,1.14,0,0,1,9.46,3.46Z"/><path class="cls-12" d="M3.55,3.46c0,.1,0,.2,0,.3a.53.53,0,0,0,.29.51.39.39,0,0,1,.25.35,1,1,0,0,0,.49.74s.08.06.08.12A1.15,1.15,0,0,1,3.29,5.1a1.17,1.17,0,0,1,0-1.43A1,1,0,0,1,3.55,3.46Z"/></g></g></svg>