<svg xmlns="http://www.w3.org/2000/svg" viewBox="0 0 24 24.02"><defs><style>.cls-1{fill:#df7f7f;}.cls-2{fill:#eb8b8b;}.cls-3{fill:#8e4d2e;}.cls-4{fill:#fdc8a2;}.cls-5{fill:#81462a;}.cls-6{fill:#a26548;}.cls-7{fill:#f49797;}.cls-8{fill:#fdbf92;}.cls-9{fill:#94573a;}.cls-10{fill:#d3bc80;}.cls-11{fill:#dfdfdd;}.cls-12{fill:#df7e7e;}.cls-13{fill:#fdb683;}.cls-14{fill:#dd7d7d;}</style></defs><g id="Layer_2" data-name="Layer 2"><g id="Layer_1-2" data-name="Layer 1"><path d="M9.2,24c-.26,0-.59.09-.75,0s0-.47,0-.71V21.12a.52.52,0,0,0-.09-.32,3.32,3.32,0,0,1-.54-1.18c-.07,0-.07,0-.08.06C7.08,20.82,6.46,22,5.87,23.09a1.74,1.74,0,0,1-2.06.85,1.75,1.75,0,0,1-1.3-1.79c.06-.94.14-1.88.22-2.82.06-.65.08-1.31.08-2,0-.14-.05-.17-.17-.16a3.83,3.83,0,0,1-2.12-.72,1.08,1.08,0,0,1-.51-1c0-.37,0-.75,0-1.12a.87.87,0,0,1,1.3-.8,3.34,3.34,0,0,0,2,.37,1.31,1.31,0,0,1-.17-.85,1.18,1.18,0,0,1,2.25-.26L6,14.21a.9.9,0,0,0,.27-1,6.82,6.82,0,0,1,.13-2.77c.13-.52.37-1,.54-1.53a8,8,0,0,0,.17-3.09,5.35,5.35,0,0,1,10.64-1.1,12.51,12.51,0,0,1,0,2.12A5.18,5.18,0,0,0,18,9.27a7.72,7.72,0,0,1,.51,4.35c0,.08-.05.16,0,.23a4.34,4.34,0,0,1,.64,1.27c0,.05,0,.17.14.1a4.57,4.57,0,0,1,1.5-.36c.86-.16,1.72-.29,2.58-.43.4-.07.59.08.59.48v6.6a.43.43,0,0,1-.31.48c-.1,0-.1.09-.11.16a.81.81,0,0,1-.68.61l-.84.14a.32.32,0,0,0-.27.18,1.51,1.51,0,0,1-1.48.91,1.53,1.53,0,0,1-1.44-1c-.07-.16-.15-.24-.33-.22a7.68,7.68,0,0,1-2-.28l-.17,0c0,.44,0,.88,0,1.32,0,.14,0,.19-.17.18H15.6c-.09-.09-.07-.21-.07-.33q0-.51,0-1a.26.26,0,0,0-.26-.3l-1.22-.25c-.4-.08-.52-.22-.52-.63s0-1,0-1.47V16.51c-.23.41-.44.8-.65,1.2-.11.19-.23.35-.48.35s-.36-.15-.47-.35L9.85,13.9c-.06-.12-.13-.23-.27-.23a9.4,9.4,0,0,0-1.5,0,1.9,1.9,0,0,0-1.44,1.16c-.18.41-.33.83-.5,1.25a1.23,1.23,0,0,0-.07.46v4.3c.13-.32.34-.64.51-1,.48-.91,1-1.79,1.43-2.72a2.9,2.9,0,0,1,.7-1c.19-.18.26-.17.44,0,0,0,0,0,0,0,.44.53.39.43,0,.84A2.65,2.65,0,0,0,9,20.25a1.49,1.49,0,0,1,.29.93c0,.87,0,1.75,0,2.62A.26.26,0,0,1,9.2,24Z"/><path class="cls-1" d="M13.59,20c0,.52,0,1,0,1.54,0,.34.09.45.41.52.47.09.93.2,1.39.28.16,0,.21.08.2.23,0,.49,0,1,0,1.47H9.2V23.8a1.61,1.61,0,0,1,.54-.43,20.29,20.29,0,0,0,3.1-2.68c.19-.2.36-.41.55-.61S13.49,19.93,13.59,20Z"/><path class="cls-2" d="M13.59,20a21.45,21.45,0,0,1-1.68,1.76,18.89,18.89,0,0,1-2.7,2.09c0-1,0-1.92,0-2.87a.67.67,0,0,0-.13-.44,2.7,2.7,0,0,1,.27-3.67c.1-.09.11-.15,0-.24l-.09-.11c-.34-.4-.34-.4-.68,0a3.61,3.61,0,0,0-.61.94c-.58,1.25-1.3,2.43-2,3.66V16.47a1,1,0,0,1,.07-.39c.17-.4.32-.81.49-1.2A2,2,0,0,1,8.44,13.6h1.1a.3.3,0,0,1,.33.19c.67,1.25,1.36,2.5,2,3.75l.09.17a.42.42,0,0,0,.8,0l.79-1.45Z"/><path class="cls-3" d="M14.4,4.8a9.1,9.1,0,0,1-3-1.6L11.12,3a.41.41,0,0,0-.71.14A5.49,5.49,0,0,1,9.18,4.8c-.18.16-.38.3-.57.45a.38.38,0,0,0-.2.32,22,22,0,0,0,0,2.57,3.82,3.82,0,0,0,1.72,2.77.45.45,0,0,1,.24.44c0,.36,0,.72,0,1.08s0,.37-.39.37H8.52a2.9,2.9,0,0,0-1.33.29C7,13.17,7,13.12,7,13a6.21,6.21,0,0,1,.47-3.27A6.55,6.55,0,0,0,7.92,6.8,8.28,8.28,0,0,1,8,4.22,4.6,4.6,0,0,1,11.67.86h.22a.31.31,0,0,1,.28.06,4.35,4.35,0,0,1,2.24,3.26C14.44,4.38,14.53,4.59,14.4,4.8Z"/><path class="cls-4" d="M13.6,10.55a3.14,3.14,0,0,1-3.52-.75A3.18,3.18,0,0,1,9.2,7.58c0-.52,0-1,0-1.57a.32.32,0,0,1,.15-.31A5.72,5.72,0,0,0,10.84,4c.06-.11.1-.15.22-.06A10.55,10.55,0,0,0,14.4,5.66a.27.27,0,0,1,0,.36.65.65,0,0,1-.24.06.56.56,0,0,0-.49.51.57.57,0,0,0,.5.54.59.59,0,0,1,.22,0,.3.3,0,0,1,.08.2,5,5,0,0,1-.51,2.7A1.19,1.19,0,0,1,13.6,10.55Z"/><path class="cls-5" d="M14.4,4.8A4.35,4.35,0,0,0,12,.9a.34.34,0,0,0-.14-.05A3.42,3.42,0,0,1,13.66,1,4.45,4.45,0,0,1,16.91,4.8a9.54,9.54,0,0,1,0,2,6.62,6.62,0,0,0,.47,3,6.15,6.15,0,0,1,.5,2.74c0,.19,0,.37-.05.55s0,.13-.13.08a4.32,4.32,0,0,0-2.22-.32c-.26,0-.51,0-.77,0s-.29-.08-.28-.28c0-.43,0-.85,0-1.28a.28.28,0,0,1,.15-.28,3.88,3.88,0,0,0,1.77-2.61,3.39,3.39,0,0,0,.07-.64c0-.67,0-1.35,0-2,0-.32-.1-.44-.41-.49A7.88,7.88,0,0,1,14.4,4.8Z"/><path class="cls-6" d="M14.4,18.89V16.71c0-.17,0-.23.22-.18.93.2,1.87.38,2.81.56.14,0,.17.08.17.21v4.42c0,.18-.06.18-.21.15l-2.83-.56c-.15,0-.16-.1-.16-.22Z"/><path class="cls-3" d="M23.2,19.75a1.2,1.2,0,0,0-.88-.1c-.39.08-.79.12-1.18.2a.91.91,0,0,0-.74.91c0,.3,0,.6,0,.89s-.17.22-.29.24-.11-.14-.11-.22V17.33c0-.15,0-.21.19-.24L23,16.53c.14,0,.18,0,.18.13Z"/><path class="cls-4" d="M3.61,16.4a13,13,0,0,1-1.37,0A4.4,4.4,0,0,1,1,15.83.35.35,0,0,1,.8,15.5c0-.34,0-.68,0-1,0-.18.07-.21.21-.12a5.21,5.21,0,0,0,3,.44.38.38,0,0,0,.34-.55c-.1-.24-.23-.46-.34-.69A.39.39,0,0,1,4.18,13c.22-.1.42,0,.53.27l.44,1.11a.58.58,0,0,1,0,.26c0,.53,0,1.05,0,1.58,0,.16,0,.21-.21.21C4.57,16.39,4.14,16.4,3.61,16.4Z"/><path class="cls-7" d="M5.2,20.64c0,.52,0,1.05,0,1.57a1,1,0,0,1-1,1,1,1,0,0,1-.9-1.08c.08-1,.17-2.09.24-3.13,0-.16.07-.2.21-.19H5c.15,0,.2,0,.2.19C5.2,19.54,5.2,20.09,5.2,20.64Z"/><path class="cls-4" d="M13.59,11.8c0,.28,0,.55,0,.82a.93.93,0,0,0,.42.81c.12.07.14.13.07.25s-.22.56-.42.68-.52,0-.78,0h-1.6a.23.23,0,0,1-.27-.16,2.49,2.49,0,0,0-.15-.28,1.16,1.16,0,0,1-.2-.4c0-.14.2-.16.28-.27a1,1,0,0,0,.25-.67c0-.27,0-.54,0-.82.09-.07.17,0,.26,0a3.19,3.19,0,0,0,1.81,0C13.38,11.8,13.48,11.73,13.59,11.8Z"/><path class="cls-8" d="M13.6,10.55a4.55,4.55,0,0,0,.73-1.76,7.61,7.61,0,0,0,.06-1.51s0,0-.05-.08.09-.11.15-.16a.52.52,0,0,0,0-.88c-.06,0-.15-.06-.15-.15s0-.23.06-.35l1.06.25c.08,0,.15,0,.14.14a10.77,10.77,0,0,1-.1,2.34A3.08,3.08,0,0,1,13.6,10.55Z"/><path class="cls-9" d="M19.2,19.62c0,.72,0,1.45,0,2.17,0,.17-.05.21-.21.21-.59,0-.59,0-.59-.57,0-1.33,0-2.67,0-4,0-.19.05-.24.24-.23.57,0,.57,0,.57.57Z"/><path class="cls-4" d="M21.2,21.43c0-.18,0-.36,0-.55s.05-.25.22-.28c.38-.05.76-.12,1.13-.19.18,0,.25,0,.25.21,0,.39,0,.79,0,1.19,0,.11,0,.17-.14.19-.44.06-.87.13-1.31.21-.12,0-.16,0-.15-.13S21.2,21.65,21.2,21.43Z"/><path class="cls-2" d="M16.58,14.81l-2-.31.45-.83a.12.12,0,0,1,.12-.07,10.13,10.13,0,0,1,1.74.06.85.85,0,0,1,.34.14,2.51,2.51,0,0,1-.37.95C16.78,14.84,16.68,14.84,16.58,14.81Z"/><path class="cls-10" d="M18.31,16.39a2.07,2.07,0,0,1-.36,0c-1.13-.22-2.25-.46-3.38-.67-.25,0-.17-.2-.16-.33s.16-.08.22-.07l2.91.49A1,1,0,0,1,18.31,16.39Z"/><path class="cls-10" d="M19.29,16.39A1,1,0,0,1,20,15.8L23,15.31c.07,0,.21-.1.2.07s.1.28-.14.33l-3.43.68A1.8,1.8,0,0,1,19.29,16.39Z"/><path class="cls-11" d="M11.55,15.21h1.7l-.85,1.55Z"/><path class="cls-11" d="M4.39,18c-.21,0-.42,0-.63,0s-.16,0-.16-.16c0-.64,0-.64.62-.64.27,0,.55,0,.82,0s.16,0,.17.17c0,.63,0,.63-.62.63Z"/><path class="cls-12" d="M16.58,14.81c.19,0,.23-.13.29-.26l.33-.75a2.05,2.05,0,0,1,1.17,1.47A6.56,6.56,0,0,0,16.58,14.81Z"/><path class="cls-13" d="M13.59,11.8a3.44,3.44,0,0,1-1.88.15,4.13,4.13,0,0,1-.5-.15v-.38a4,4,0,0,0,2.37,0A1,1,0,0,1,13.59,11.8Z"/><path class="cls-14" d="M19.67,22.81c.43-.1.87-.35,1.18.19A.76.76,0,0,1,19.67,22.81Z"/><path d="M11.61,8c.19,0,.38,0,.49.23s.54.22.65-.07A.22.22,0,0,1,13,8h.25c.38,0,.39,0,.27.39a1.21,1.21,0,0,1-2.33-.2c0-.13,0-.21.15-.19Z"/><path d="M10.6,6a.6.6,0,1,1-.6.61A.61.61,0,0,1,10.6,6Z"/><path d="M14.34,6a.63.63,0,0,1,.46.6.59.59,0,0,1-1.12.29.57.57,0,0,1,0-.59A.62.62,0,0,1,14.34,6Z"/></g></g></svg>