<svg xmlns="http://www.w3.org/2000/svg" viewBox="0 0 24 22.24"><defs><style>.cls-1{fill:#fad0a1;}.cls-2{fill:#d0e6fd;}.cls-3{fill:#73d1dd;}.cls-4{fill:#dc6e42;}.cls-5{fill:#fab03c;}.cls-6{fill:#000101;}</style></defs><g id="Layer_2" data-name="Layer 2"><g id="Layer_1-2" data-name="Layer 1"><path d="M24,11.08a4,4,0,0,0-2.14-3.54,4.43,4.43,0,0,0-1.16-.45c.88-1.46.92-2.64.13-3.71a2.9,2.9,0,0,0-3.14-1.12,3,3,0,0,0-2.24,3.12A3.47,3.47,0,0,0,14.51,5c-.22,0-.27-.08-.11-.29a2.83,2.83,0,0,0,.53-2.25A3,3,0,0,0,12.57.05,3,3,0,0,0,9.51,1.36a3,3,0,0,0,.1,3.37c.05.07.14.11.12.22a4.81,4.81,0,0,0-1.15.42C8.39,3.59,7.7,2.62,6.37,2.26A3,3,0,0,0,3.2,3.36c-.81,1.1-.78,2.27.12,3.73l-.11,0A4,4,0,0,0,.12,10.29,11.53,11.53,0,0,0,0,12.85c0,.23.19.34.41.35s.48,0,.72,0,.26,0,.26.25c0,2,0,3.92,0,5.88,0,.54.1.64.65.64H7.49a.35.35,0,0,1,.34.19c.3.54.6,1.07.92,1.6a.9.9,0,0,0,1.26.35c.45-.24.88-.5,1.32-.75a.94.94,0,0,0,.47-.78.22.22,0,0,1,.12-.22A2.5,2.5,0,0,1,13,20a4.05,4.05,0,0,0,2.11-.7c.3-.19.61-.35.91-.53s.88-.5,1.31-.76a1.22,1.22,0,0,0,.19-2,.24.24,0,0,1-.09-.24,1.16,1.16,0,0,0-.54-1.16c-.07-.05-.12-.08-.12-.18a1.08,1.08,0,0,0-.24-.76s-.11-.09,0-.14.45-.32.76-.32h6.15c.38,0,.53-.14.53-.52C24,12.14,24,11.61,24,11.08Zm-11.15.79c-.06.12-.26.05-.4.1a1.74,1.74,0,0,0-.95.86,19.48,19.48,0,0,0-.91,1.83,2.47,2.47,0,0,1-.82,1c0-.79,0-1.54,0-2.28,0-.17.06-.2.21-.19s.47,0,.71,0a.41.41,0,0,0,.46-.46c0-.5,0-1,0-1.49,0-.15,0-.22.19-.21.45,0,.91,0,1.36,0,.14,0,.19,0,.17.17a1.47,1.47,0,0,0,0,.21C12.86,11.57,12.91,11.75,12.84,11.87Z"/><path class="cls-1" d="M12.92,12.78a2.52,2.52,0,0,1,.63.14,1.19,1.19,0,0,0,.92-.12l3.73-2.17a.39.39,0,0,1,.57,0c.22.25.17.49-.13.67l-3.2,1.85c-.27.15-.34.35-.24.57a.45.45,0,0,0,.39.24c.35,0,.48.25.34.57s0,.59.35.64a.37.37,0,0,1,.35.25.3.3,0,0,1-.12.36.41.41,0,0,0-.12.45.39.39,0,0,0,.37.27c.18,0,.35.05.4.26a.45.45,0,0,1-.25.49l-2.76,1.59a2.38,2.38,0,0,1-1.11.26,3.19,3.19,0,0,0-1.41.44c-.12.07-.19.08-.27-.06-.5-.89-1-1.77-1.53-2.65-.07-.13-.07-.2.07-.28a3.77,3.77,0,0,0,1.59-2,8.75,8.75,0,0,1,.75-1.46A.72.72,0,0,1,12.92,12.78Z"/><path class="cls-2" d="M7.87,16.13c0-.43-.16-.52-.58-.52H3.82c-.23,0-.43.05-.5.3s.13.52.47.52H7.25l0,0-.34.2a.8.8,0,0,0-.39.4c-.07.23-.21.25-.41.25-.74,0-1.48,0-2.22,0-.42,0-.6.13-.6.42s.19.4.62.4c.84,0,1.68,0,2.52,0a.29.29,0,0,1,.3.17c.15.28.31.55.49.85H2.47c-.19,0-.24-.05-.24-.24,0-2.31,0-4.61,0-6.92,0-.2,0-.24.24-.23H8.69c.19,0,.25,0,.25.23q0,1.8,0,3.6c0,.16,0,.25-.22.22A1.35,1.35,0,0,0,7.87,16.13Z"/><path class="cls-3" d="M18.59,12.33l.49-.28a1.19,1.19,0,0,0,.47-1.68,1.18,1.18,0,0,0-1.71-.47L14.13,12a.49.49,0,0,1-.31.09c-.08,0-.13,0-.13-.13a5.29,5.29,0,0,1,.25-2.12,3.33,3.33,0,0,1,3.17-2,.89.89,0,0,1,.32.08,2.68,2.68,0,0,0,1.81,0,2.55,2.55,0,0,1,2,.18,3.24,3.24,0,0,1,1.92,3c0,.36,0,.72,0,1.08,0,.11,0,.16-.16.16H18.6Z"/><path class="cls-4" d="M5.59,10.94H2c-.5,0-.61.11-.61.63a3.9,3.9,0,0,0,0,.59c0,.25-.13.22-.29.22s-.31,0-.29-.22A14.35,14.35,0,0,1,.9,10.55a3.3,3.3,0,0,1,3.38-2.7c.34,0,.65.2,1,.23A2.73,2.73,0,0,0,6.42,8,2.38,2.38,0,0,1,8,8a3.3,3.3,0,0,1,2.34,3.1c0,.36,0,.73,0,1.08s-.12.23-.27.22-.33.07-.3-.21,0-.49,0-.74S9.61,11,9.27,11Z"/><path class="cls-5" d="M16.15,7.1a4.24,4.24,0,0,0-1.6.72A4.1,4.1,0,0,0,13,10c0,.16-.1.22-.27.22-.5,0-1,0-1.49,0A.22.22,0,0,1,11,10,4.06,4.06,0,0,0,8.06,7.15c-.19-.05-.17-.1-.07-.22A3.22,3.22,0,0,1,10.74,5.7c.3,0,.58.18.89.22a2.52,2.52,0,0,0,1.19-.1A2.67,2.67,0,0,1,15,6.09,3.14,3.14,0,0,1,16.15,7.1Z"/><path class="cls-1" d="M20.57,5.13A2.15,2.15,0,1,1,18.43,3,2.15,2.15,0,0,1,20.57,5.13Z"/><path class="cls-1" d="M5.59,3A2.15,2.15,0,1,1,3.44,5.14,2.16,2.16,0,0,1,5.59,3Z"/><path class="cls-1" d="M14.14,3A2.15,2.15,0,1,1,12,.82,2.15,2.15,0,0,1,14.14,3Z"/><path class="cls-4" d="M11,20.52a.19.19,0,0,1-.13.16l-1.16.67c-.13.09-.21,0-.28-.08l-2.1-3.62c-.07-.13-.06-.22.08-.29l1.15-.67c.12-.07.2-.06.27.07l2.12,3.66Z"/><path class="cls-6" d="M5.56,14.71H3.81c-.33,0-.5-.15-.5-.42s.18-.4.49-.4H7.35c.33,0,.51.16.5.42s-.18.4-.49.4Z"/></g></g></svg>