<svg xmlns="http://www.w3.org/2000/svg" viewBox="0 0 23.75 24.15"><defs><style>.cls-1{fill:#fefefe;}</style></defs><g id="Layer_2" data-name="Layer 2"><g id="Layer_1-2" data-name="Layer 1"><path d="M8,17.41c0,.8,0,1.6,0,2.39a.62.62,0,0,1-.66.68H4.88a.7.7,0,0,1-.48-.16A.41.41,0,0,1,4.24,20c0-.43,0-.87,0-1.3h0V17.43A.66.66,0,0,1,5,16.72H7.32A.64.64,0,0,1,8,17.41Z"/><path d="M8,11.59c0,.78,0,1.57,0,2.36a.63.63,0,0,1-.7.7H5a.8.8,0,0,1-.48-.11.47.47,0,0,1-.23-.4c0-.44,0-.87,0-1.3h0V11.58a.64.64,0,0,1,.7-.69H7.33A.63.63,0,0,1,8,11.59Z"/><path d="M13.76,17.4v2.41a.64.64,0,0,1-.69.67H10.68a.64.64,0,0,1-.69-.67V17.4a.64.64,0,0,1,.67-.67q1.21,0,2.43,0A.64.64,0,0,1,13.76,17.4Z"/><path d="M13.76,11.58V14a.64.64,0,0,1-.68.68H10.67A.65.65,0,0,1,10,14V11.57a.64.64,0,0,1,.68-.68h2.41A.64.64,0,0,1,13.76,11.58Z"/><path d="M19.49,17.37c0,.83,0,1.65,0,2.48a.61.61,0,0,1-.65.63H16.38a.61.61,0,0,1-.64-.63c0-.42,0-.84,0-1.26s0-.81,0-1.21a.62.62,0,0,1,.65-.65c.81,0,1.64,0,2.46,0A.61.61,0,0,1,19.49,17.37Z"/><path d="M15.74,14c0-.81,0-1.62,0-2.44a.61.61,0,0,1,.64-.66h2.46a.62.62,0,0,1,.65.68c0,.8,0,1.6,0,2.39a.63.63,0,0,1-.69.69H16.38A.62.62,0,0,1,15.74,14Z"/><path d="M23.69,5.26A3.87,3.87,0,0,0,23,3.75a3.49,3.49,0,0,0-1.14-1.09,4.16,4.16,0,0,0-2.21-.48c-.44,0-.44,0-.45-.43a6.13,6.13,0,0,0,0-1,.92.92,0,0,0-1-.78.92.92,0,0,0-.94.83c0,.39,0,.77,0,1.16,0,.15,0,.19-.19.19h-1.9c-.16,0-.19,0-.19-.19,0-.39,0-.78,0-1.16a.82.82,0,0,0-.56-.75A1,1,0,0,0,13,1c0,.34,0,.68,0,1,0,.15,0,.2-.19.2h-1.9c-.18,0-.2-.07-.2-.21,0-.38,0-.76,0-1.14A.86.86,0,0,0,10,.05,1,1,0,0,0,8.71,1c0,.34,0,.67,0,1,0,.14,0,.18-.17.17H6.7c-.14,0-.17,0-.17-.17,0-.4,0-.79,0-1.19A.89.89,0,0,0,5.57,0a.92.92,0,0,0-1,.77,5,5,0,0,0,0,.67c0,.24.1.56,0,.69s-.45,0-.68,0A3.77,3.77,0,0,0,0,6V20.34a3.84,3.84,0,0,0,.16,1.12,3.77,3.77,0,0,0,3.66,2.69H19.9a3.77,3.77,0,0,0,3.85-3.85V6.05A5.25,5.25,0,0,0,23.69,5.26Zm-1.92,15a1.79,1.79,0,0,1-1.95,2H3.93a1.79,1.79,0,0,1-1.95-2q0-5.52,0-11c0-.22.06-.27.28-.27H21.5c.22,0,.28.05.28.27Q21.77,14.7,21.77,20.22Z"/><path class="cls-1" d="M8,17.41c0,.8,0,1.6,0,2.39a.62.62,0,0,1-.66.68H4.88a.7.7,0,0,1-.48-.16A.41.41,0,0,1,4.24,20c0-.43,0-.87,0-1.3h0V17.43A.66.66,0,0,1,5,16.72H7.32A.64.64,0,0,1,8,17.41Z"/><path class="cls-1" d="M8,11.59c0,.78,0,1.57,0,2.36a.63.63,0,0,1-.7.7H5a.8.8,0,0,1-.48-.11.47.47,0,0,1-.23-.4c0-.44,0-.87,0-1.3h0V11.58a.64.64,0,0,1,.7-.69H7.33A.63.63,0,0,1,8,11.59Z"/><path class="cls-1" d="M13.76,17.4v2.41a.64.64,0,0,1-.69.67H10.68a.64.64,0,0,1-.69-.67V17.4a.64.64,0,0,1,.67-.67q1.21,0,2.43,0A.64.64,0,0,1,13.76,17.4Z"/><path class="cls-1" d="M13.76,11.58V14a.64.64,0,0,1-.68.68H10.67A.65.65,0,0,1,10,14V11.57a.64.64,0,0,1,.68-.68h2.41A.64.64,0,0,1,13.76,11.58Z"/><path class="cls-1" d="M19.49,19.85a.61.61,0,0,1-.65.63H16.38a.61.61,0,0,1-.64-.63c0-.42,0-.84,0-1.26s0-.81,0-1.21a.62.62,0,0,1,.65-.65c.81,0,1.64,0,2.46,0a.61.61,0,0,1,.64.64C19.5,18.2,19.5,19,19.49,19.85Z"/><path class="cls-1" d="M15.74,14c0-.81,0-1.62,0-2.44a.61.61,0,0,1,.64-.66h2.46a.62.62,0,0,1,.65.68c0,.8,0,1.6,0,2.39a.63.63,0,0,1-.69.69H16.38A.62.62,0,0,1,15.74,14Z"/><path d="M8,17.41c0,.8,0,1.6,0,2.39a.62.62,0,0,1-.66.68H4.88a.7.7,0,0,1-.48-.16A.41.41,0,0,1,4.24,20c0-.43,0-.87,0-1.3h0V17.43A.66.66,0,0,1,5,16.72H7.32A.64.64,0,0,1,8,17.41Z"/><path d="M8,11.59c0,.78,0,1.57,0,2.36a.63.63,0,0,1-.7.7H5a.8.8,0,0,1-.48-.11.47.47,0,0,1-.23-.4c0-.44,0-.87,0-1.3h0V11.58a.64.64,0,0,1,.7-.69H7.33A.63.63,0,0,1,8,11.59Z"/><path d="M13.76,17.4v2.41a.64.64,0,0,1-.69.67H10.68a.64.64,0,0,1-.69-.67V17.4a.64.64,0,0,1,.67-.67q1.21,0,2.43,0A.64.64,0,0,1,13.76,17.4Z"/><path d="M19.49,19.85a.61.61,0,0,1-.65.63H16.38a.61.61,0,0,1-.64-.63c0-.42,0-.84,0-1.26s0-.81,0-1.21a.62.62,0,0,1,.65-.65c.81,0,1.64,0,2.46,0a.61.61,0,0,1,.64.64C19.5,18.2,19.5,19,19.49,19.85Z"/><path d="M13.76,11.58V14a.64.64,0,0,1-.68.68H10.67A.65.65,0,0,1,10,14V11.57a.64.64,0,0,1,.68-.68h2.41A.64.64,0,0,1,13.76,11.58Z"/><path d="M19.49,11.57c0,.8,0,1.6,0,2.39a.63.63,0,0,1-.69.69H16.38a.62.62,0,0,1-.64-.66c0-.81,0-1.62,0-2.44a.61.61,0,0,1,.64-.66h2.46A.62.62,0,0,1,19.49,11.57Z"/></g></g></svg>