<svg xmlns="http://www.w3.org/2000/svg" viewBox="0 0 23.24 23"><defs><style>.cls-1{fill:#ebeef0;}.cls-2{fill:#d0d0d5;}.cls-3{fill:#89c8fd;}.cls-4{fill:#60b6fe;}.cls-5{fill:#fecf64;}.cls-6{fill:#827582;}.cls-7{fill:#b0b0b4;}.cls-8{fill:#827682;}.cls-9{fill:#685e68;}.cls-10{fill:#544854;}.cls-11{fill:#fee076;}</style></defs><g id="Layer_2" data-name="Layer 2"><g id="Layer_1-2" data-name="Layer 1"><path d="M0,10.13V3.49A2,2,0,0,1,2.14,1.35c.33,0,.33,0,.33-.32V.82A.78.78,0,0,1,3.26,0H4a.78.78,0,0,1,.81.81c0,.17-.06.4,0,.49s.35,0,.53,0c.45,0,.89,0,1.33,0,.18,0,.26,0,.23-.22A2.29,2.29,0,0,1,7,.76.78.78,0,0,1,7.71,0h.86a.77.77,0,0,1,.75.8c0,.17-.07.41,0,.51s.34,0,.52,0h1.4c.14,0,.19,0,.18-.18a2.54,2.54,0,0,1,0-.39A.76.76,0,0,1,12.19,0h.88a.78.78,0,0,1,.74.78c0,.18-.06.41,0,.52s.35,0,.53,0c.45,0,.89,0,1.33,0,.19,0,.28,0,.25-.23a1.82,1.82,0,0,1,0-.33A.77.77,0,0,1,16.68,0h.88a.75.75,0,0,1,.73.76c0,.19-.07.43,0,.54s.36,0,.54,0a2,2,0,0,1,1.89,1.94c0,.29,0,.59,0,.88,0,3.46,0,6.92,0,10.38,0,.19,0,.26.25.25.38,0,.76,0,1.14,0a1,1,0,0,1,1.08,1.09v.95a.48.48,0,0,1,0,.27,1,1,0,0,0,0,.86,4.37,4.37,0,0,1,0,1.53.69.69,0,0,1-.31.47l-3.79,2.79a1.14,1.14,0,0,1-.73.24H10.07c-.36,0-.48-.12-.48-.49,0-1.12,0-2.23,0-3.34,0-.19-.05-.24-.24-.24H2.1a2,2,0,0,1-2-1.46A2.81,2.81,0,0,1,0,16.82Z"/><path class="cls-1" d="M13.94,14.81,9.78,17.55a.45.45,0,0,0-.19.46c0,.13,0,.17-.17.17-2.49,0-5,0-7.46,0A1.22,1.22,0,0,1,.75,16.86V5.77c0-.12,0-.16.14-.14H19.72a.4.4,0,0,1,.08.31v8.51c0,.33,0,.34-.34.34H14.19A.53.53,0,0,0,13.94,14.81Z"/><path class="cls-2" d="M19.72,4.87H1c-.21,0-.28,0-.27-.27,0-.4,0-.8,0-1.21A1.25,1.25,0,0,1,2.05,2.1c.42,0,.42,0,.42.42,0,.23,0,.47,0,.7A.77.77,0,0,0,3.25,4H4a.77.77,0,0,0,.81-.8c0-.32,0-.63,0-.94,0-.12,0-.17.17-.17H6.8c.14,0,.17,0,.16.17v.91A.79.79,0,0,0,7.8,4h.74a.77.77,0,0,0,.78-.79q0-.47,0-.93c0-.13,0-.2.17-.19h1.8c.13,0,.17,0,.17.17q0,.47,0,.93a.76.76,0,0,0,.8.81h.79a.76.76,0,0,0,.75-.77c0-.32,0-.63,0-1,0-.14,0-.2.18-.19h1.79c.13,0,.18,0,.18.17,0,.32,0,.63,0,1a.77.77,0,0,0,.78.79h.82a.75.75,0,0,0,.75-.74c0-.33,0-.67,0-1,0-.13,0-.18.18-.17a1.55,1.55,0,0,1,.79.12,1.23,1.23,0,0,1,.52,1c0,.49,0,1,0,1.47A.23.23,0,0,1,19.72,4.87Z"/><path class="cls-3" d="M21,15.56l-2.61,1.89a.37.37,0,0,1-.21.06h-6.9c0-.09.07-.1.12-.13L14,15.64a.48.48,0,0,1,.27-.09H21Z"/><path class="cls-2" d="M14.45,18.26H18.3c.33,0,.41.07.41.41v.84c0,.27-.09.37-.36.37H10.51c-.14,0-.18-.05-.18-.18,0-.42,0-.83,0-1.24,0-.16,0-.21.21-.21Z"/><path class="cls-1" d="M14.45,20.63h3.83c.37,0,.43.06.43.44v.76c0,.34-.07.42-.41.42H11.16c-.22,0-.45,0-.67,0s-.16,0-.16-.16q0-.63,0-1.26c0-.17,0-.21.21-.2Z"/><path class="cls-4" d="M19.46,19.17c0-.2,0-.36,0-.53a1.1,1.1,0,0,0-.22-.74c-.06-.07-.06-.1,0-.15l2.94-2.13c.13-.09.26,0,.27.22s0,.47,0,.7a.68.68,0,0,1-.35.68c-.83.59-1.64,1.2-2.46,1.81Z"/><path class="cls-5" d="M19.46,21.56V21a.88.88,0,0,0-.12-.51c-.09-.13-.07-.19.05-.28l2.83-2.08c.15-.12.24-.08.24.11,0,.35,0,.7,0,1a.18.18,0,0,1-.08.15Z"/><path class="cls-2" d="M13.94,14.81c.09-.08.19-.05.29-.05h5.24c.21,0,.26-.06.26-.26q0-4.44,0-8.88c.3,0,.3,0,.3.28q0,4.32,0,8.62c0,.2,0,.28-.26.27h-5.8Z"/><path class="cls-6" d="M8.57,2c0,.34,0,.69,0,1,0,.17-.05.22-.21.2H7.87c-.12,0-.16,0-.16-.16,0-.72,0-1.45,0-2.17,0-.12.06-.16.17-.16a4.51,4.51,0,0,0,.52,0c.14,0,.19.05.18.19C8.56,1.31,8.57,1.67,8.57,2Z"/><path class="cls-6" d="M4.07,2c0,.35,0,.7,0,1.05,0,.12,0,.17-.17.17-.68,0-.68,0-.68-.64s0-1.09,0-1.63c0-.16,0-.23.2-.22a3.23,3.23,0,0,0,.44,0c.18,0,.21.06.21.22,0,.35,0,.7,0,1Z"/><path class="cls-6" d="M13.05,2V3.06c0,.14,0,.2-.17.19h-.49c-.15,0-.19,0-.19-.19,0-.7,0-1.41,0-2.12,0-.15.06-.18.2-.18.65,0,.65,0,.65.63Z"/><path class="cls-6" d="M17.53,2c0,.35,0,.69,0,1,0,.14,0,.2-.19.2-.66,0-.66,0-.66-.64s0-1.1,0-1.65c0-.16,0-.21.2-.2a3.53,3.53,0,0,0,.46,0c.15,0,.19.05.19.19C17.53,1.31,17.53,1.67,17.53,2Z"/><path class="cls-7" d="M19.72,4.87c0-.41,0-.83,0-1.25a1.89,1.89,0,0,0-.47-1.4,1.07,1.07,0,0,1,.74.95c0,.53,0,1.06,0,1.58C20,5,19.82,4.84,19.72,4.87Z"/><path d="M12.84,10.75c0,.46,0,.93,0,1.4s-.06.46-.43.53c-1.2.22-2.39.48-3.59.65a7.39,7.39,0,0,1-2.48-.16l-2.6-.5c-.33-.06-.42-.16-.42-.5,0-1,0-1.93,0-2.89,0-.16-.05-.23-.21-.26-.47-.11-.93-.24-1.39-.37l-.12,0a.37.37,0,0,1-.31-.38.38.38,0,0,1,.33-.37l2.2-.58,4-1.08a.79.79,0,0,1,.43,0l6.11,1.62.2.06a.35.35,0,0,1,.26.35.34.34,0,0,1-.23.35c-.14,0-.15.11-.15.23v2.36c0,.12,0,.2.14.25a.86.86,0,0,1,.6,1c0,.56,0,1.12,0,1.68a.42.42,0,0,1-.21.43.43.43,0,0,1-.47-.1c-.43-.32-.43-.32-.85,0a.41.41,0,0,1-.49.1c-.18-.09-.2-.25-.2-.43,0-.68,0-1.36,0-2a.47.47,0,0,1,.3-.5.65.65,0,0,0,.45-.78c0-.6,0-1.2,0-1.8,0-.14,0-.2-.17-.14a3,3,0,0,1-.32.09c-.41.11-.41.11-.41.54Z"/><path class="cls-8" d="M4.07,10.64c0-.39,0-.78,0-1.17,0-.16,0-.19.2-.15l3.55.95a1,1,0,0,0,.54,0l3.51-.94c.16,0,.23,0,.22.16,0,.76,0,1.53,0,2.29,0,.13,0,.21-.17.24-1.09.18-2.16.43-3.26.57a6.6,6.6,0,0,1-2-.13L4.25,12c-.15,0-.19-.1-.18-.24Z"/><path class="cls-9" d="M3.69,8.11,7.72,7a1.37,1.37,0,0,1,.75,0c1.35.37,2.72.72,4.08,1.08l.08,0c0,.14-.15.13-.25.16-.84.24-1.68.45-2.52.68L8.6,9.32a1.16,1.16,0,0,1-.64,0L4,8.28C3.91,8.25,3.75,8.27,3.69,8.11Z"/><path class="cls-10" d="M3.69,8.11c.63.22,1.29.35,1.94.53.8.23,1.61.43,2.42.64a.86.86,0,0,0,.45,0l3.57-.95a2.16,2.16,0,0,0,.56-.18l.33.08v0L10.29,9l-2,.54a.58.58,0,0,1-.32,0L3.19,8.26A1.37,1.37,0,0,1,3.69,8.11Z"/><path class="cls-11" d="M13.75,13.44V12.31c0-.1.26-.3.37-.3s.35.2.35.31v1.11C14,13.24,14.1,13.29,13.75,13.44Z"/></g></g></svg>