<svg xmlns="http://www.w3.org/2000/svg" viewBox="0 0 24 23.9"><defs><style>.cls-1{fill:#ebeef0;}.cls-2{fill:#fd646f;}.cls-3{fill:#6cf4c1;}.cls-4{fill:#d0d7d9;}.cls-5{fill:#89c8fc;}.cls-6{fill:#89c8fd;}.cls-7{fill:#eb7b82;}.cls-8{fill:#f27881;}.cls-9{fill:#f37981;}.cls-10{fill:#fa707a;}.cls-11{fill:#f17881;}.cls-12{fill:#93cbfa;}.cls-13{fill:#92c9f7;}.cls-14{fill:#89c7fc;}.cls-15{fill:#fefefe;}</style></defs><g id="Layer_2" data-name="Layer 2"><g id="Layer_1-2" data-name="Layer 1"><path d="M21.12,14.34a.33.33,0,0,1-.23-.36c0-3.54,0-7.09,0-10.64a1.41,1.41,0,0,0-1.48-1.49h-1c-.23,0-.54.11-.67,0s0-.43,0-.65a1.16,1.16,0,0,0-2.32,0,5.23,5.23,0,0,0,0,.56c0,.11,0,.17-.15.17q-.7,0-1.41,0c-.13,0-.16-.05-.15-.17a5,5,0,0,0,0-.55A1.17,1.17,0,0,0,12.44,0a1.15,1.15,0,0,0-1.13,1.17,2.57,2.57,0,0,0,0,.48c0,.17-.05.2-.21.2-.44,0-.88,0-1.33,0-.14,0-.2,0-.19-.18a3.49,3.49,0,0,0,0-.56A1.16,1.16,0,0,0,8.53,0,1.17,1.17,0,0,0,7.29.92a3.14,3.14,0,0,0,0,.75c0,.13,0,.18-.17.18q-.69,0-1.38,0c-.12,0-.17,0-.17-.16a5.61,5.61,0,0,0,0-.58,1.16,1.16,0,0,0-2.32,0,3.23,3.23,0,0,0,0,.44c0,.19,0,.26-.25.25-.47,0-1,0-1.42,0A1.43,1.43,0,0,0,0,3.4V20.74a1.43,1.43,0,0,0,.9,1.39,2,2,0,0,0,.72.09H15a.43.43,0,0,1,.35.12,4.9,4.9,0,0,0,4.58,1.46,5,5,0,0,0,1.2-9.46ZM4.88,1.35c0,.5,0,.5-.49.5s-.48,0-.48-.49V1.17A.47.47,0,0,1,4.37.68a.5.5,0,0,1,.51.45Zm3.84.5c-.1,0-.21,0-.31,0-.47,0-.47,0-.47-.48A1.1,1.1,0,0,1,8,1,.48.48,0,0,1,8.49.68a.46.46,0,0,1,.41.44c0,.17,0,.35,0,.53S8.89,1.87,8.72,1.85ZM13,1.76c0,.08,0,.09-.11.09h-.39c-.47,0-.47,0-.47-.47a2.44,2.44,0,0,1,0-.27A.48.48,0,0,1,12.92,1,3,3,0,0,1,13,1.76Zm4-.39c0,.48,0,.48-.47.48s-.5,0-.5-.52a.7.7,0,0,1,0-.35.48.48,0,0,1,.92.13A2.26,2.26,0,0,1,17,1.37Z"/><path class="cls-1" d="M16.36,14.52A6.38,6.38,0,0,0,15,15.77a.46.46,0,0,1-.49.23,15.1,15.1,0,0,0-1.78,0,.33.33,0,0,0-.36.37c0,.59,0,1.19,0,1.79a.32.32,0,0,0,.36.35q.51,0,1,0c.16,0,.18.07.17.2a4.39,4.39,0,0,0,.13,1.3c0,.18,0,.22-.19.22-1.93,0-3.86,0-5.8,0H1.6c-.66,0-.92-.27-.92-.92q0-6.34,0-12.7c0-.23.07-.27.28-.26h19c.22,0,.29,0,.29.28q0,3.57,0,7.14c0,.21,0,.27-.26.21a4.3,4.3,0,0,0-1.6-.06c-.14,0-.18,0-.18-.16,0-.43,0-.85,0-1.28s-.11-.44-.43-.45H16.09c-.31,0-.42.13-.42.43V14c0,.4.09.49.5.49Z"/><path class="cls-2" d="M15.33,2.57a1.73,1.73,0,0,0,.3,1.1,1.21,1.21,0,0,0,.93.37.31.31,0,0,0,.27-.33.34.34,0,0,0-.33-.32.46.46,0,0,1-.45-.32c-.06-.53-.06-.53.44-.53h2.94a.48.48,0,0,1,.26,0,.61.61,0,0,1,.48.47,4,4,0,0,1,0,.77c0,.6,0,1.21,0,1.81a.74.74,0,0,1-.26,0H1a.46.46,0,0,1-.26,0c0-.8,0-1.61,0-2.41a.67.67,0,0,1,.53-.63c.52-.06,1,0,1.56,0s.43,0,.45.44c0,0,0,0,0,.07a1.22,1.22,0,0,0,.59.85,1.24,1.24,0,0,0,.53.15.3.3,0,0,0,.35-.28.31.31,0,0,0-.23-.37c-.55-.17-.62-.26-.56-.83,0,0,.09,0,.14,0H7.12s.1,0,.14,0,0,.27,0,.41A1.14,1.14,0,0,0,8.31,4c.24,0,.42-.08.44-.29s-.11-.33-.33-.36S8,3.29,8,3.06C8,3,8,3,8,3c0-.47,0-.47.43-.47H11c.27,0,.27,0,.27.27a1,1,0,0,0,0,.24,1.15,1.15,0,0,0,1.09,1,.31.31,0,0,0,.38-.28.32.32,0,0,0-.29-.38C12,3.3,11.86,3,12,2.53c1,0,2.05,0,3.07,0A.46.46,0,0,1,15.33,2.57Z"/><path class="cls-3" d="M19,23.22a4.35,4.35,0,1,1,4.35-4.33A4.35,4.35,0,0,1,19,23.22Z"/><path class="cls-4" d="M.68,20.66a1.67,1.67,0,0,0,1,.2H14.09c.21,0,.32.05.39.25a2.41,2.41,0,0,0,.22.42c-.06.06-.13,0-.19,0H1.58a.84.84,0,0,1-.82-.41A.9.9,0,0,1,.68,20.66Z"/><path class="cls-5" d="M13.06,17.23c0-.59,0-.59.58-.59h.09c.55,0,.57,0,.49.58s-.12.62-.67.62-.49,0-.49-.49Z"/><path class="cls-6" d="M17.46,13.84h-1c-.11,0-.14,0-.13-.14,0-.33,0-.66,0-1a8.85,8.85,0,0,1,1,0,.09.09,0,0,1,.1.11A8.85,8.85,0,0,1,17.46,13.84Z"/><path class="cls-7" d="M.69,5.61H20.17a0,0,0,0,1,0,0c-.05.1-.14,0-.21,0H.9C.83,5.66.74,5.71.69,5.61Z"/><path class="cls-8" d="M11.31,3.05c-.05,0,0-.1,0-.16,0-.36,0-.32-.33-.32H8.31c-.33,0-.33,0-.33.32v.17c-.09-.15,0-.31,0-.47s.07-.07.12-.07h3.13c.11,0,.13,0,.13.14S11.31,2.92,11.31,3.05Z"/><path class="cls-8" d="M19.69,2.57H16.4c-.37,0-.34,0-.34.33a1,1,0,0,1,0,.17c-.08-.15,0-.32,0-.47s.06-.08.12-.08H19.6S19.66,2.55,19.69,2.57Z"/><path class="cls-9" d="M15.33,2.57H12.25c-.08,0-.17,0-.25,0h2.28c.29,0,.59,0,.89,0C15.22,2.52,15.3,2.48,15.33,2.57Z"/><path class="cls-9" d="M7.26,2.57H3.91c0-.08.09,0,.14,0H7.12S7.23,2.49,7.26,2.57Z"/><path class="cls-10" d="M20.21,5.61h0V3c.06,0,0,.1,0,.16C20.22,4,20.21,4.81,20.21,5.61Z"/><path class="cls-11" d="M3.23,3.05a.23.23,0,0,1,0-.16c0-.36,0-.32-.35-.32H1.21c0-.06.09,0,.15,0H3.09c.11,0,.16,0,.15.14S3.24,2.92,3.23,3.05Z"/><path class="cls-12" d="M17.46,13.84c0-.3,0-.61,0-.91s0-.21-.2-.21h-.91a1.54,1.54,0,0,1,.64,0c.52,0,.53,0,.52.51A1.43,1.43,0,0,1,17.46,13.84Z"/><path d="M7.07,14.52H6.23c-.28,0-.4-.11-.4-.37q0-.88,0-1.77c0-.26.13-.37.4-.38H7.94c.28,0,.4.13.4.4,0,.58,0,1.15,0,1.72,0,.29-.12.4-.4.4Z"/><path d="M7.09,8H8c.25,0,.38.12.38.37,0,.59,0,1.19,0,1.79,0,.24-.13.35-.39.36H6.21c-.25,0-.38-.12-.38-.37,0-.6,0-1.19,0-1.79,0-.25.13-.36.39-.36Z"/><path d="M13.64,14.52h-.87c-.26,0-.38-.13-.38-.39,0-.58,0-1.16,0-1.73a.35.35,0,0,1,.38-.4h1.76a.34.34,0,0,1,.37.38v1.76c0,.26-.12.37-.37.38Z"/><path d="M16.93,8h.87a.34.34,0,0,1,.38.39q0,.87,0,1.74a.34.34,0,0,1-.38.39H16a.34.34,0,0,1-.37-.38V8.41c0-.26.12-.38.39-.38Z"/><path d="M14.9,9.3v.84c0,.28-.12.4-.39.41H12.77a.34.34,0,0,1-.38-.39q0-.87,0-1.74c0-.27.12-.39.4-.39H14.5c.28,0,.4.12.4.4Z"/><path d="M7.07,18.5H6.22c-.27,0-.39-.12-.39-.38q0-.89,0-1.77A.33.33,0,0,1,6.21,16H8a.33.33,0,0,1,.37.38c0,.59,0,1.18,0,1.76,0,.26-.12.37-.38.37Z"/><path d="M3.8,10.55H2.93c-.25,0-.38-.12-.38-.37V8.39A.33.33,0,0,1,2.93,8H4.67c.27,0,.39.12.4.4v1.72a.36.36,0,0,1-.4.4Z"/><path d="M11.62,9.3v.87c0,.26-.13.37-.39.38H9.49a.35.35,0,0,1-.39-.39V8.42c0-.27.13-.39.41-.39h1.71c.28,0,.39.12.4.4Z"/><path d="M10.36,14.52H9.49a.34.34,0,0,1-.39-.38V12.4c0-.27.13-.39.41-.4h1.71c.28,0,.4.13.4.4v1.72c0,.29-.11.4-.41.4Z"/><path d="M3.81,14.52h-.9a.33.33,0,0,1-.36-.36V12.37c0-.24.13-.36.38-.37H4.67a.36.36,0,0,1,.4.39v1.74c0,.27-.13.39-.41.39Z"/><path d="M11.62,17.24v.85c0,.29-.11.4-.39.41H9.49a.34.34,0,0,1-.39-.38V16.37A.35.35,0,0,1,9.5,16h1.74c.26,0,.37.13.38.39Z"/><path d="M3.8,18.5H3c-.29,0-.4-.11-.4-.4V16.39c0-.29.12-.41.39-.41H4.66c.28,0,.4.12.41.4v1.71c0,.28-.13.4-.4.41Z"/><path d="M16.33,18.92a.81.81,0,0,1,.52-.71.87.87,0,0,1,1,.12,2.79,2.79,0,0,1,.35.34c.1.11.16.09.26,0,.51-.53,1-1.05,1.55-1.56a.92.92,0,1,1,1.3,1.28L19,20.66a.92.92,0,0,1-1.41,0l-1-1A1,1,0,0,1,16.33,18.92Z"/><path class="cls-5" d="M7.64,13.83a5.88,5.88,0,0,1-1.11,0,8.47,8.47,0,0,1,0-1c0-.09,0-.12.13-.12h.89c.09,0,.14,0,.14.12A8.46,8.46,0,0,1,7.64,13.83Z"/><path class="cls-13" d="M7.64,13.83v-.92c0-.15,0-.19-.19-.19H6.72c-.14,0-.2,0-.19.2,0,.3,0,.61,0,.91a4.88,4.88,0,0,1,0-1.08c0-.08.07-.07.12-.07h.94c.06,0,.13,0,.13.07A4.35,4.35,0,0,1,7.64,13.83Z"/><path class="cls-5" d="M7.06,9.87c-.16,0-.43.09-.54,0s0-.36,0-.56c0-.55,0-.56.58-.55.2,0,.45-.09.58,0s0,.39,0,.58c0,.55,0,.55-.54.55Z"/><path class="cls-6" d="M14.22,12.72c0,.33,0,.66,0,1,0,.12-.05.15-.15.14h-.87c-.11,0-.16,0-.15-.14,0-.33,0-.66,0-1A7.36,7.36,0,0,1,14.22,12.72Z"/><path class="cls-13" d="M14.22,12.72H13.07c.1-.1.22,0,.33,0A2.52,2.52,0,0,1,14.22,12.72Z"/><path class="cls-6" d="M16.92,9.86c-.18,0-.43.07-.54,0s0-.36,0-.55-.09-.44,0-.55.36,0,.54,0,.43-.08.56,0,0,.35,0,.54.08.43,0,.55S17.11,9.85,16.92,9.86Z"/><path class="cls-6" d="M14.23,9.26c0,.61,0,.61-.56.61-.2,0-.46.09-.58,0s0-.37,0-.56c0-.56,0-.57.57-.56.19,0,.44-.08.56,0S14.21,9.11,14.23,9.26Z"/><path class="cls-14" d="M7.08,17.84c-.59,0-.59,0-.59-.58s0-.62.6-.62.59,0,.59.58S7.68,17.84,7.08,17.84Z"/><path class="cls-5" d="M3.8,9.87c-.59,0-.59,0-.59-.58s0-.59.58-.58c.2,0,.46-.09.58,0s0,.37,0,.56c0,.56,0,.56-.55.56Z"/><path class="cls-5" d="M10.36,9.86c-.19,0-.45.1-.56,0s0-.35,0-.54-.08-.44,0-.55.36,0,.54,0,.45-.09.58,0,0,.37,0,.56.09.44,0,.53S10.55,9.86,10.36,9.86Z"/><path class="cls-5" d="M10.93,13.82a5.88,5.88,0,0,1-1.11,0,8.56,8.56,0,0,1,0-1c0-.09,0-.13.12-.13h.92c.08,0,.12,0,.11.12A6.68,6.68,0,0,1,10.93,13.82Z"/><path class="cls-13" d="M10.93,13.82v-.91c0-.13,0-.19-.18-.19H10c-.13,0-.16.06-.16.18v.94a1.6,1.6,0,0,1,0-.72c0-.44,0-.45.43-.44.24,0,.56-.11.71.05s0,.46,0,.7A.74.74,0,0,1,10.93,13.82Z"/><path class="cls-5" d="M4.35,13.84a6.86,6.86,0,0,1-1.11,0,8.56,8.56,0,0,1,0-1c0-.1,0-.12.14-.12h.89c.09,0,.13,0,.13.13A8.58,8.58,0,0,1,4.35,13.84Z"/><path class="cls-13" d="M4.35,13.84V12.9c0-.13,0-.18-.16-.18H3.42c-.14,0-.18.06-.18.19,0,.3,0,.61,0,.92a6.14,6.14,0,0,1,0-1.05c0-.09,0-.1.12-.1h1s.12,0,.12.07A4.43,4.43,0,0,1,4.35,13.84Z"/><path class="cls-14" d="M10.37,17.84c-.6,0-.6,0-.6-.59,0-.19-.06-.44,0-.56s.37,0,.57,0c.58,0,.58,0,.58.58v0C11,17.84,11,17.84,10.37,17.84Z"/><path class="cls-14" d="M3.81,16.64c.59,0,.59,0,.59.6s0,.6-.6.6-.59,0-.59-.6S3.21,16.64,3.81,16.64Z"/><path class="cls-15" d="M18.3,20.32a.32.32,0,0,1-.19-.1l-1-1c-.13-.12-.19-.26-.05-.4s.27-.07.39,0l.55.54c.22.22.38.22.6,0l1.78-1.8a1.06,1.06,0,0,1,.2-.17c.1-.07.19,0,.27.05a.2.2,0,0,1,.05.26l-.15.18-2.2,2.22C18.48,20.24,18.41,20.32,18.3,20.32Z"/></g></g></svg>