<svg xmlns="http://www.w3.org/2000/svg" viewBox="0 0 23.93 23.92"><g id="Layer_2" data-name="Layer 2"><g id="Layer_1-2" data-name="Layer 1"><path d="M8.56,23.88a.24.24,0,0,1-.24-.26,18.55,18.55,0,0,1,.09-2.79,2.68,2.68,0,0,1,1.51-1.9,4.12,4.12,0,0,1,4.4.14,2.66,2.66,0,0,1,1.28,2.37v2a.46.46,0,0,1-.22.45h-.23c-.08-.05-.17,0-.25,0H8.82A.75.75,0,0,1,8.56,23.88Z"/><path d="M16.87,23.88a.25.25,0,0,1-.22-.28A21.27,21.27,0,0,1,16.72,21a2.73,2.73,0,0,1,1.53-2,4.2,4.2,0,0,1,4.62.32,2.66,2.66,0,0,1,1.06,2.18c0,.66,0,1.32,0,2a.64.64,0,0,1-.19.51h-.28c-.08-.05-.17,0-.25,0H17.13A.76.76,0,0,1,16.87,23.88Z"/><path d="M0,21.21c.09-.05.05-.14.06-.21a2.85,2.85,0,0,1,1.56-2.08,4.18,4.18,0,0,1,4.63.34,2.64,2.64,0,0,1,1,2.14c0,.68,0,1.35,0,2a.62.62,0,0,1-.19.49H6.84c-.08-.05-.17,0-.26,0H.37c-.18,0-.31,0-.35-.21v-.24a.34.34,0,0,0,0-.28v-.32a.17.17,0,0,0,0-.19v-.38A.34.34,0,0,0,0,22v-.32a.17.17,0,0,0,0-.19Z"/><path d="M8.56,23.88h6.32a.37.37,0,0,1,.27.05H8.56Z"/><path d="M16.87,23.88h6.35c.08,0,.17,0,.24.05H16.87Z"/><path d="M.3,23.88H6.57c.09,0,.19,0,.27.05H.3s0,0,0,0Z"/><path d="M.3,23.88v0c-.16,0-.36.06-.28-.23C.1,23.77.14,23.9.3,23.88Z"/><path d="M0,22a.21.21,0,0,1,0,.28Z"/><path d="M0,23.17a.21.21,0,0,1,0,.28Z"/><path d="M0,21.49a.11.11,0,0,1,0,.19Z"/><path d="M0,22.66c.07.06.06.12,0,.19Z"/><path d="M22.08.22C22.08,0,22,0,21.84,0H8.68c-.18,0-.22,0-.22.22q0,3.42,0,6.84a.45.45,0,0,0,.26.43c.41.21.82.44,1.22.67.15.09.21.06.3-.08L12.33,5c.22-.32.22-.31.55-.1.15.1.16.16.06.3l-2.2,3.24c-.08.11-.12.19,0,.31a1,1,0,0,1,.21.41c0,.17.12.2.27.2H21.84c.18,0,.24,0,.24-.23C22.07,6.15,22.07,3.19,22.08.22Zm-6.95,8c-.42,0-.42,0-.42-.41,0-1.15,0-2.3,0-3.45,0-.17,0-.21.2-.21.42,0,.42,0,.42.41V6.24c0,.61,0,1.21,0,1.82C15.34,8.22,15.3,8.27,15.13,8.27Zm1.61,0c-.42,0-.42,0-.42-.42V7c0-.36,0-.73,0-1.09,0-.15,0-.2.19-.2.44,0,.44,0,.44.42,0,.65,0,1.3,0,2C17,8.21,16.92,8.27,16.74,8.27Zm1.57,0c-.4,0-.4,0-.4-.4,0-1.07,0-2.15,0-3.22,0-.16.05-.2.21-.2.41,0,.41,0,.41.41V6.38c0,.57,0,1.14,0,1.7C18.53,8.26,18.49,8.31,18.31,8.3Zm2.13,0c-.37,0-.37,0-.37-.37V4.82c0-1.07,0-2.15,0-3.22,0-.17.05-.21.21-.21.42,0,.42,0,.42.41q0,3.11,0,6.21C20.7,8.22,20.65,8.28,20.44,8.27Z"/><path d="M2.72,10.16V8.24c0-.14,0-.28-.19-.29s-.2.14-.2.28c0,.83,0,1.65,0,2.48a.55.55,0,0,1-.33.56.52.52,0,0,1-.73-.36,1.63,1.63,0,0,1,0-.44A16.68,16.68,0,0,1,1.33,8,4.62,4.62,0,0,1,2.1,6.11a1.5,1.5,0,0,1,1.31-.63c.85,0,1.71,0,2.56,0A1.37,1.37,0,0,1,7.1,6.1a10.61,10.61,0,0,1,1,1.67c0,.06.07.07.12.1l1.81,1a.73.73,0,0,1,.36,1,.77.77,0,0,1-1.08.36L7.18,9A.29.29,0,0,1,7,8.7a1,1,0,0,0,0-.3.18.18,0,0,0-.18-.18.17.17,0,0,0-.19.17.72.72,0,0,0,0,.21c0,1.14,0,2.28,0,3.43,0,.18,0,.25-.23.25H2.92c-.16,0-.2,0-.2-.21C2.73,11.43,2.72,10.79,2.72,10.16Z"/><path d="M1.68,15.59a2,2,0,1,1,2,2A2,2,0,0,1,1.68,15.59Z"/><path d="M22.26,15.59a2,2,0,0,1-2,2,2,2,0,0,1-2-2,2,2,0,0,1,2-2A2,2,0,0,1,22.26,15.59Z"/><path d="M12,13.62a2,2,0,0,1-.06,3.94A2,2,0,0,1,12,13.62Z"/><path d="M6.38,3A1.74,1.74,0,1,1,4.65,1.27,1.74,1.74,0,0,1,6.38,3Z"/></g></g></svg>