<svg xmlns="http://www.w3.org/2000/svg" viewBox="0 0 24 21.12"><g id="Layer_2" data-name="Layer 2"><g id="Layer_1-2" data-name="Layer 1"><path d="M22.72,0H6.14a1.16,1.16,0,0,0-1.3,1.29V11.64a1.15,1.15,0,0,0,1.3,1.3H15.9a.62.62,0,0,1,.44.15L21,16.65v-.28c0-1.07,0-2.13,0-3.2,0-.2.06-.24.24-.23h1.53A1.14,1.14,0,0,0,24,11.67V1.27A1.14,1.14,0,0,0,22.72,0ZM9.36,7.7a1.23,1.23,0,1,1,0-2.46,1.23,1.23,0,1,1,0,2.46Zm5.07,0a1.23,1.23,0,0,1,0-2.46,1.23,1.23,0,0,1,0,2.46Zm5.06,0a1.23,1.23,0,0,1,0-2.46,1.23,1.23,0,1,1,0,2.46Z"/><path d="M19,16q-1.45-1.1-2.88-2.22a.71.71,0,0,0-.44-.15H6.06a1.85,1.85,0,0,1-1.72-1,.24.24,0,0,0-.24-.14H2.84c-.3,0-.47-.13-.47-.37s.18-.35.46-.35H3.9c.16,0,.22,0,.22-.2,0-.47,0-.93,0-1.39,0-.17-.06-.21-.22-.21-.38,0-.76,0-1.14,0a.37.37,0,0,1-.39-.36c0-.21.16-.36.42-.37H3.93c.13,0,.19,0,.19-.16,0-.49,0-1,0-1.46,0-.15-.06-.17-.19-.16H2.82c-.28,0-.45-.15-.45-.37s.17-.35.44-.36H3.9c.16,0,.22,0,.22-.21,0-.63,0-1.27,0-1.91,0-.17,0-.22-.22-.22H1.24A1.13,1.13,0,0,0,0,5.71V16.13a1.14,1.14,0,0,0,1.29,1.28H2.52c.51,0,.51,0,.51.52v3.19L3.15,21c1.49-1.15,3-2.29,4.47-3.45a.82.82,0,0,1,.54-.18c2.68,0,5.35,0,8,0,.62,0,1.24,0,1.86,0a1.12,1.12,0,0,0,1.1-1A.37.37,0,0,0,19,16Zm-2.6-1H2.89A.55.55,0,0,1,2.56,15a.34.34,0,0,1-.18-.36.33.33,0,0,1,.28-.3,1.1,1.1,0,0,1,.26,0H16.39a.39.39,0,0,1,.4.37A.37.37,0,0,1,16.38,15.08Z"/></g></g></svg>