<svg xmlns="http://www.w3.org/2000/svg" viewBox="0 0 23.99 24"><g id="Layer_2" data-name="Layer 2"><g id="Layer_1-2" data-name="Layer 1"><path d="M21.89,0c-2.33,0-4.66,0-7,0A1.77,1.77,0,0,0,13,1.9V12.12A1.77,1.77,0,0,0,14.88,14h7.21A1.76,1.76,0,0,0,24,12.62a.07.07,0,0,1,0,0V1.51A1.91,1.91,0,0,0,21.89,0Zm.6,12.1c0,.35-.07.41-.41.41H14.89c-.33,0-.4-.07-.4-.4V1.9c0-.32.07-.39.4-.39h7.19c.35,0,.41.05.41.4Z"/><path d="M9.16,10H1.82A1.75,1.75,0,0,0,0,11.83c0,.56,0,1.11,0,1.66q0,4.35,0,8.69a1.72,1.72,0,0,0,1.06,1.67,3.12,3.12,0,0,0,.39.15H9.51s0,0,0,0A1.73,1.73,0,0,0,11,22.15V11.84A1.76,1.76,0,0,0,9.16,10ZM9.5,22.12c0,.31-.07.38-.39.38H1.9c-.34,0-.4-.06-.4-.42V11.89c0-.32.07-.39.4-.39H9.11c.32,0,.39.08.39.38Z"/><path d="M24,17.43A1.72,1.72,0,0,0,22.25,16H14.74A1.72,1.72,0,0,0,13,17.74q0,2.25,0,4.5a1.73,1.73,0,0,0,1.14,1.65c.09,0,.21,0,.29.11h8.06A1.64,1.64,0,0,0,24,22.54V17.49Zm-1.46,4.7c0,.3-.07.36-.37.37H14.88c-.32,0-.39-.07-.39-.4V17.9c0-.33.07-.41.41-.41h7.19c.33,0,.4.08.4.4Z"/><path d="M9.14,0H1.85A1.74,1.74,0,0,0,0,1.86Q0,4,0,6.15A1.76,1.76,0,0,0,1.87,8H9.12A1.77,1.77,0,0,0,11,6.13V1.87A1.76,1.76,0,0,0,9.14,0ZM9.5,6.1c0,.34-.07.41-.41.41H1.9c-.33,0-.4-.07-.4-.39,0-1.42,0-2.83,0-4.24,0-.3.06-.37.36-.37H9.11c.32,0,.39.07.39.4Z"/></g></g></svg>