<svg xmlns="http://www.w3.org/2000/svg" viewBox="0 0 24 16.8"><defs><style>.cls-1{fill:#deeaf9;}.cls-2{fill:#b0dafb;}.cls-3{fill:#fe656f;}.cls-4{fill:#010101;}.cls-5{fill:#000101;}.cls-6{fill:#fe4756;}.cls-7{fill:#665e68;}.cls-8{fill:#5fb7fd;}.cls-9{fill:#fdd1a3;}.cls-10{fill:#23a7fd;}.cls-11{fill:#544e55;}.cls-12{fill:#febc85;}.cls-13{fill:#fdbc85;}.cls-14{fill:#f5a86b;}.cls-15{fill:#cf8f5b;}.cls-16{fill:#d5925e;}.cls-17{fill:#fd646e;}.cls-18{fill:#fd4655;}</style></defs><g id="Layer_2" data-name="Layer 2"><g id="Layer_1-2" data-name="Layer 1"><path d="M23.63,8.86c.29.06.37.15.37.44v6.16a1.31,1.31,0,0,1-1.34,1.33H16.47c-4.93,0-9.85,0-14.78,0A1.54,1.54,0,0,1,0,15.75V1C.07,1,.06.9.09.83A1.3,1.3,0,0,1,1.26,0H22.54a1.88,1.88,0,0,1,.58.07A1.3,1.3,0,0,1,24,1.28V7.52c0,.26-.09.35-.37.41a.33.33,0,0,1-.39-.28,1.79,1.79,0,0,1,0-.4V1.63c0-.1,0-.21,0-.31a.52.52,0,0,0-.54-.53H2.4a2.62,2.62,0,0,1-.28,0c-.25,0-.5,0-.75,0a.56.56,0,0,0-.59.59V15.16c0,.71.13.85.84.85h.54c.13,0,.27,0,.4,0H22.35c.74,0,.87-.13.87-.88V9.54a1.76,1.76,0,0,1,0-.4A.33.33,0,0,1,23.63,8.86Z"/><path class="cls-1" d="M23.63,8.86a.4.4,0,0,0-.34.46c0,2,0,4,0,6a.63.63,0,0,1-.71.72H2.16a.43.43,0,0,1-.24-.3,1.93,1.93,0,0,1-.07-.53c0-4.58,0-9.15,0-13.72A1,1,0,0,1,2.11.71H22.52a.73.73,0,0,1,.6.19.7.7,0,0,1,.18.54c0,2,0,4,0,6a.4.4,0,0,0,.34.46Z"/><path class="cls-2" d="M2.11.71a2.37,2.37,0,0,0-.19,1.12V15.29a1.19,1.19,0,0,0,.24.79c-.29,0-.58,0-.87,0a.59.59,0,0,1-.58-.58,1.48,1.48,0,0,1,0-.21V1.5C.7.9.9.7,1.5.7Z"/><path d="M8,2.76c.09-.28.17-.35.47-.35h3.26a.93.93,0,0,1,1,1q0,5,0,10a.94.94,0,0,1-1,1H3.33a.93.93,0,0,1-1-1V3.43a.93.93,0,0,1,1-1H6.58c.3,0,.38.07.46.35s0,.33-.32.4H3.39a.25.25,0,0,0-.27.28V11.7c0,.37,0,.37.34.23l1.2-.47c.37-.12.73-.28,1.09-.41s.32-.3.11-.52a2.88,2.88,0,0,1-.45-.59.66.66,0,0,1-.09-.19.8.8,0,0,0-.59-.67,1.13,1.13,0,0,1-.38-1.49.47.47,0,0,0,0-.4.33.33,0,0,1,0-.13A7.78,7.78,0,0,1,4.4,4.8a1.59,1.59,0,0,1,.31-.57,1.83,1.83,0,0,1,1.52-.64c.66,0,1.32,0,2,0a1,1,0,0,1,1,.67.39.39,0,0,0,.31.24,1,1,0,0,1,.79.8,7.48,7.48,0,0,1,.05,1.57,1.06,1.06,0,0,0,.15.57A1.13,1.13,0,0,1,10,9.2a.43.43,0,0,0-.25.29,2.16,2.16,0,0,1-.6,1c-.27.28-.23.44.13.58.81.33,1.64.62,2.44,1,.11.05.16,0,.17-.09V3.56c0-.31-.09-.39-.41-.39H8.45A.51.51,0,0,1,8,3,.25.25,0,0,1,8,2.76Z"/><path class="cls-3" d="M6.74,3.11A.38.38,0,0,0,7,2.76H8c.09.3.16.35.47.35h3.16c.33,0,.39.06.39.38,0,2.84,0,5.67,0,8.51,0,.2,0,.19-.21.12-.76-.32-1.52-.61-2.28-.91l-.33-.13c-.28-.11-.32-.35-.1-.56a2.23,2.23,0,0,0,.68-1.15.26.26,0,0,1,.19-.2,1.11,1.11,0,0,0,.48-1.84.34.34,0,0,1-.09-.24c0-.52,0-1,0-1.55a1,1,0,0,0-.92-1c-.09,0-.12,0-.15-.13A1,1,0,0,0,8.2,3.65H6.07a1.78,1.78,0,0,0-1.33.63c-.12-.13-.07-.28-.08-.42s0-.34,0-.52.07-.22.25-.22C5.52,3.12,6.13,3.13,6.74,3.11Z"/><path d="M17.88,4.57H14.75c-.62,0-.86-.25-.86-.87,0-.19,0-.37,0-.56a.7.7,0,0,1,.72-.73h6.51a.7.7,0,0,1,.73.75v.68a.7.7,0,0,1-.76.73Z"/><path class="cls-4" d="M19,6.08H16.75a1.06,1.06,0,0,1-.25,0,.35.35,0,0,1,0-.67,1.06,1.06,0,0,1,.25,0h4.62c.3,0,.45.12.46.35s-.16.36-.46.36H19Z"/><path d="M19,9.89h2.36c.3,0,.45.12.46.35s-.16.35-.46.35h-4.7c-.29,0-.45-.13-.44-.36s.15-.34.44-.34Z"/><path d="M19,12.09H16.66c-.33,0-.51-.27-.36-.52a.34.34,0,0,1,.33-.18h4.84a.35.35,0,0,1,.38.36.36.36,0,0,1-.4.34Z"/><path class="cls-5" d="M19.05,7.59h-2.3a.68.68,0,0,1-.28,0,.33.33,0,0,1-.22-.37.32.32,0,0,1,.29-.29h5a.34.34,0,0,1,.07.66.66.66,0,0,1-.28,0Z"/><path d="M19.05,8.39h2.34c.31,0,.46.12.46.35s-.16.35-.46.35h-4.7c-.26,0-.41-.1-.43-.3s.11-.4.39-.4Z"/><path d="M19.05,12.89h2.41a.35.35,0,0,1,.37.26.32.32,0,0,1-.12.37.42.42,0,0,1-.26.08h-4.8a.36.36,0,0,1-.4-.36c0-.21.15-.34.41-.34Z"/><path class="cls-4" d="M14.74,8.39h.49a.32.32,0,0,1,.33.32.31.31,0,0,1-.29.36,7.79,7.79,0,0,1-1.08,0,.33.33,0,0,1-.3-.36.34.34,0,0,1,.35-.33Z"/><path class="cls-4" d="M14.72,12.09h-.46a.35.35,0,1,1,0-.7h1a.35.35,0,0,1,.35.34.34.34,0,0,1-.34.36Z"/><path class="cls-4" d="M14.73,6.08h-.5a.35.35,0,0,1,0-.69h1a.35.35,0,0,1,0,.69h-.51Z"/><path class="cls-6" d="M6.74,3.11a1.56,1.56,0,0,1-.57,0H4.93c-.15,0-.2,0-.2.2,0,.32,0,.63,0,.94a2.08,2.08,0,0,0-.38,1.36c0,.36,0,.72,0,1.08a.43.43,0,0,0,0,.16,1.49,1.49,0,0,1-.06,1.06,1,1,0,0,0,.47,1.11,6,6,0,0,1,0,.95v1.18a.43.43,0,0,1-.08.31L3.37,12C3,12.19,3,12.2,3,11.82V3.53c0-.37,0-.42.41-.42Z"/><path class="cls-7" d="M6.33,4.36H8.25a.32.32,0,0,1,.35.27.73.73,0,0,0,.77.62c.19,0,.26.13.27.29,0,.47,0,1,0,1.42,0,.14-.07.14-.17.1a.36.36,0,0,1-.2-.29.41.41,0,0,0-.34-.42c-.22,0-.34.11-.45.27a1,1,0,0,1-.86.47H6a.37.37,0,0,1-.07-.27c0-.52,0-1,0-1.56A1.05,1.05,0,0,1,6.33,4.36Z"/><path class="cls-8" d="M6.2,12.56a2.45,2.45,0,0,0,1.92.29,2.17,2.17,0,0,0,1.21-.79c.07-.1.13-.11.25-.07l1.72.67a1.3,1.3,0,0,1,.63.53.3.3,0,0,1-.12.46.65.65,0,0,1-.24,0H4.43s-.09,0-.11-.05,0-.08,0-.12a.52.52,0,0,1,.11-.1A6,6,0,0,1,6,12.56.27.27,0,0,1,6.2,12.56Z"/><path class="cls-9" d="M7.73,7.79a1.73,1.73,0,0,0,.93-.34c.08-.06.11,0,.19,0a.61.61,0,0,1,.28.61c0,.29,0,.58,0,.87A1.56,1.56,0,0,1,7.36,10.4a1.36,1.36,0,0,1-.72-.84A3.9,3.9,0,0,1,6.5,8c0-.14.09-.16.21-.16C7.05,7.8,7.39,7.83,7.73,7.79Z"/><path class="cls-10" d="M6.2,12.56a5.29,5.29,0,0,0-1.63.85c-.07.06-.18.1-.24.24h7.48a.43.43,0,0,1-.25,0H3.45c-.15,0-.32,0-.39-.14a.41.41,0,0,1,.11-.47,1.47,1.47,0,0,1,.58-.43L5.4,12c.13-.05.21-.05.29.07A2.37,2.37,0,0,0,6.2,12.56Z"/><path class="cls-11" d="M6.33,4.36A1.72,1.72,0,0,0,6,5.58c0,.5,0,1,0,1.5h-.6a.24.24,0,0,1-.28-.26c0-.5,0-1,0-1.5A1,1,0,0,1,6.33,4.36Z"/><path class="cls-3" d="M4.73,11.49V9.27c0-.08,0-.16,0-.22h0a.71.71,0,0,1,.53.58,1.79,1.79,0,0,0,.59.88c.23.22.19.46-.11.57Z"/><path class="cls-12" d="M7.73,7.79a3.15,3.15,0,0,1-.92,0c-.19,0-.27,0-.25.24,0,.36,0,.72,0,1.07a2,2,0,0,0,.76,1.26A1.56,1.56,0,0,1,5.9,8.88c0-.31,0-.62,0-.93,0-.12,0-.17.16-.16Z"/><path class="cls-13" d="M7.64,11.12l.18,0c.22,0,.46-.17.49.24,0,.18.22.26.4.32a1.49,1.49,0,0,1-1.54.53.08.08,0,0,1,0-.07.88.88,0,0,0,.25-.76C7.43,11.22,7.47,11.12,7.64,11.12Z"/><path class="cls-14" d="M7.64,11.12c-.17,0-.15.18-.14.3a.74.74,0,0,1-.33.77,1.49,1.49,0,0,1-.78-.39c-.1-.08-.13-.14,0-.2a.5.5,0,0,0,.34-.46c0-.1,0-.14.14-.1A2.63,2.63,0,0,0,7.64,11.12Z"/><path class="cls-15" d="M9.83,8.43V7.78A.36.36,0,0,1,9.83,8.43Z"/><path class="cls-16" d="M5.18,7.76v.65C4.92,8.28,4.9,8,5.18,7.76Z"/><path class="cls-17" d="M21.13,3.14v0c.07.7.07.7-.63.7h-4l-.25,0a.81.81,0,0,1-.06-.61c0-.13.12-.12.22-.12h4.44A.58.58,0,0,1,21.13,3.14Z"/><path class="cls-18" d="M21.13,3.14H16.54c-.21,0-.31,0-.28.27a3.2,3.2,0,0,1,0,.44,12.85,12.85,0,0,1-1.52,0c-.35,0-.09-.35-.16-.53s0-.21.18-.21c.58,0,1.17,0,1.75,0h4.36C21,3.11,21.05,3.08,21.13,3.14Z"/></g></g></svg>