<svg xmlns="http://www.w3.org/2000/svg" viewBox="0 0 22.25 22"><defs><style>.cls-1{fill:#6c7ed5;}.cls-2{fill:#23a7fd;}.cls-3{fill:#60b7fd;}.cls-4{fill:#4f67d1;}.cls-5{fill:#b0dafb;}.cls-6{fill:#deeaf9;}</style></defs><g id="Layer_2" data-name="Layer 2"><g id="Layer_1-2" data-name="Layer 1"><path class="cls-1" d="M22.25,11.82c-.08.06-.06.15-.09.23a2.87,2.87,0,0,1-1.95,2.08c-.12,0-.13-.09-.14-.18s0-.23,0-.35V6.86A2.84,2.84,0,0,0,17.71,4,4.58,4.58,0,0,0,17,4a3.19,3.19,0,0,1-.69,0c-.16,0-.3.07-.45.06a2.74,2.74,0,0,0-.5,0H6.19A12.85,12.85,0,0,1,4,3.92a.1.1,0,0,1-.07,0,.22.22,0,0,1-.06-.15,3.26,3.26,0,0,1,1-2.94,2.85,2.85,0,0,1,2-.79H19.44a3,3,0,0,1,2.7,1.91,5.37,5.37,0,0,1,.11.7Z"/><path class="cls-2" d="M4.39,18.08A8,8,0,0,1,2.26,18,2.87,2.87,0,0,1,0,15.67s0-.05,0-.07V6.39A2.43,2.43,0,0,1,.38,5.17,3.1,3.1,0,0,1,2.59,3.8c.38,0,.77,0,1.15,0a.25.25,0,0,1,.25.1l0,0h.24s.07,0,.08,0a.09.09,0,0,1-.06.1L4,4.14A2.81,2.81,0,0,0,2.43,5.35,2.66,2.66,0,0,0,2,6.78v8.34a2.84,2.84,0,0,0,2.11,2.77C4.22,17.92,4.38,17.9,4.39,18.08Z"/><path class="cls-3" d="M4.39,18.08a4,4,0,0,1-1.1-.44A2.84,2.84,0,0,1,1.91,15.2c0-2.77,0-5.54,0-8.31A3,3,0,0,1,4.19,4l.14,0L4,3.89a5.24,5.24,0,0,1,1,0H15.26a2.47,2.47,0,0,1,.61,0,1.91,1.91,0,0,1,1.31.49,3,3,0,0,1,1.17,2.45v7c0,.15,0,.31-.09.43a7,7,0,0,1-.09,1.58,2.94,2.94,0,0,1-2.75,2.2,1.11,1.11,0,0,0-.88.42,14,14,0,0,1-2.43,2.32c-.15-.06-.09-.17,0-.27a13.82,13.82,0,0,0,.54-1.65s0-.09,0-.14a.44.44,0,0,0-.44-.58h-.78a3.23,3.23,0,0,1-1-.09h-6Z"/><path class="cls-4" d="M18.26,14.3V11.4c0-1.55,0-3.1,0-4.65a2.91,2.91,0,0,0-2.38-2.81l.06,0a10.06,10.06,0,0,1,1.9,0,2.94,2.94,0,0,1,2.33,2.82v7a.49.49,0,0,0,.05.31,1.86,1.86,0,0,1-.81.16C19,14.31,18.64,14.3,18.26,14.3Z"/><path class="cls-2" d="M10.44,18.09h1.78a.51.51,0,0,1,.52.69,12.1,12.1,0,0,1-.6,1.85c0,.06-.07.13,0,.2a10.84,10.84,0,0,1-1.57,1.11.43.43,0,0,1-.54-.06.47.47,0,0,1-.09-.56,11.84,11.84,0,0,0,.84-2.24c0-.08.05-.16.07-.25A.52.52,0,0,0,10.44,18.09Z"/><path class="cls-5" d="M14,12a1,1,0,0,1-1.24-.13,1,1,0,0,1-.05-1.3A1,1,0,0,1,14,10.38c0,.1,0,.15-.08.21A.85.85,0,0,0,14,11.92S14,12,14,12Z"/><path class="cls-5" d="M4.52,12.08a.92.92,0,0,1-1.19-.21,1,1,0,0,1,1.23-1.48c0,.09,0,.14-.11.2a.88.88,0,0,0,0,1.25C4.49,11.91,4.58,12,4.52,12.08Z"/><path class="cls-5" d="M10.82,12.08a1,1,0,0,1-1.25-.27,1,1,0,0,1,.12-1.29.93.93,0,0,1,1.13-.14c0,.09,0,.14-.07.2a.85.85,0,0,0,0,1.25C10.8,11.91,10.87,12,10.82,12.08Z"/><path class="cls-5" d="M7.74,12a.94.94,0,0,1-1.24-.13,1,1,0,0,1,0-1.31.94.94,0,0,1,1.22-.22c0,.1,0,.15-.08.21a.87.87,0,0,0,0,1.33A.23.23,0,0,1,7.74,12Z"/><path class="cls-6" d="M7.74,12a.89.89,0,0,1-.45-1.16,1.22,1.22,0,0,1,.4-.5A1,1,0,0,1,7.74,12Z"/><path class="cls-6" d="M10.82,12.08l-.14-.16a1,1,0,0,1,.07-1.46.5.5,0,0,0,.07-.08,1,1,0,0,1,0,1.7Z"/><path class="cls-6" d="M14,12a.88.88,0,0,1-.5-1,1.13,1.13,0,0,1,.45-.66A1,1,0,0,1,14,12Z"/><path class="cls-6" d="M4.52,12.08a.86.86,0,0,0-.13-.14,1,1,0,0,1,.17-1.55A1,1,0,0,1,4.52,12.08Z"/></g></g></svg>