<svg xmlns="http://www.w3.org/2000/svg" viewBox="0 0 22.94 20"><defs><style>.cls-1{fill:#02648d;}.cls-2{fill:#58595b;}.cls-3{fill:#1d749a;}.cls-4{fill:#f89515;}.cls-5{fill:#d2d2d2;}.cls-6{fill:#1f315f;}.cls-7{fill:#d12732;}.cls-8{fill:#4e6789;}.cls-9{fill:#41688d;}.cls-10{fill:#416a8d;}.cls-11{fill:#41678b;}.cls-12{fill:#41698d;}.cls-13{fill:#41688b;}.cls-14{fill:#466b8e;}.cls-15{fill:#457092;}.cls-16{fill:#427093;}.cls-17{fill:#446a8d;}.cls-18{fill:#416c8f;}</style></defs><g id="Layer_2" data-name="Layer 2"><g id="Layer_1-2" data-name="Layer 1"><path class="cls-1" d="M22.94,10.24a5.07,5.07,0,0,0-.18,1c0,.14,0,.28-.07.42a1.58,1.58,0,0,1-1.9,1.19l-.91-.13c-.05,0-.1,0-.12-.09a.89.89,0,0,1,0-.36.52.52,0,0,0,0-.21s0,0,0-.06a1.79,1.79,0,0,0,0-.23c.08-.44.14-.88.23-1.32a.41.41,0,0,0,0-.22s0,0,0-.06a.9.9,0,0,0,0-.23c.06-.35.12-.7.19-1.05a.85.85,0,0,0,0-.22s0,0,0-.07a.86.86,0,0,0,0-.23.19.19,0,0,1,.06-.16c.41.06.83.1,1.23.19a1.5,1.5,0,0,1,1.14,1.13s0,.09.05.11v.05a.68.68,0,0,0,0,.4Z"/><path class="cls-2" d="M0,10l1.89-.21a3.62,3.62,0,0,0,.46-.06c.14,0,.18,0,.2.16.05.39.05.38-.33.42-.65.07-1.3.14-1.95.23-.14,0-.22,0-.27-.14Z"/><path class="cls-3" d="M22.94,10.11a.36.36,0,0,1,0-.4Z"/><path class="cls-4" d="M6,14.61a5,5,0,0,1-1.08-2.67,15.4,15.4,0,0,1,.93-7.51A8.2,8.2,0,0,1,6.88,2.48a3.43,3.43,0,0,1,1.23-1,1.23,1.23,0,0,1,1.48.44,4,4,0,0,1,.73,1.52,8.27,8.27,0,0,1,.31,2.43,8.43,8.43,0,0,1,0,1.42.47.47,0,0,1,0,.17c-.09.09-.2,0-.3,0-.52-.11-1-.23-1.55-.33a1.55,1.55,0,0,0-1.22.22,1.14,1.14,0,0,0-.13,1.82,1.5,1.5,0,0,0,.85.4c.61.08,1.22.13,1.83.19a.31.31,0,0,1,.13,0c.07.07,0,.14,0,.21a11.16,11.16,0,0,1-1.54,3.68,3.88,3.88,0,0,1-1,1,1.35,1.35,0,0,1-1.43.14A3.16,3.16,0,0,1,6,14.61Z"/><path class="cls-5" d="M14.88,13.37l-2.25.34-2.55.38c0-.09,0-.16.06-.23A12.56,12.56,0,0,0,11.8,9.23,15.42,15.42,0,0,0,12,6a10.31,10.31,0,0,0-.24-1.83c0-.14-.11-.29,0-.43A10.88,10.88,0,0,1,13,4.36c.71.37,1.4.76,2.1,1.14l1,.53a13.07,13.07,0,0,1,0,2,16.76,16.76,0,0,1-.53,3.38A16.45,16.45,0,0,1,15,13.11.73.73,0,0,1,14.88,13.37Z"/><path class="cls-6" d="M14.88,13.37a9.6,9.6,0,0,1,.36-1.07A16.18,16.18,0,0,0,16.05,8a14.23,14.23,0,0,0,0-1.6c0-.12-.06-.25,0-.36L20.29,8.1l.23.13v.18c-.06.07,0,.16-.05.22v0c0,.07,0,.15,0,.22L20.25,10c-.06.06,0,.15-.05.22v.05c-.05.06,0,.15,0,.21l-.23,1.35c-.05.07,0,.15,0,.22v.05c-.05.06,0,.15,0,.22l-.05.36a.28.28,0,0,1-.18.12l-.1,0a1.15,1.15,0,0,0-.26,0l-.09,0a.83.83,0,0,0-.27,0h-.1a.84.84,0,0,0-.27,0l-.46.05a1.24,1.24,0,0,0-.27,0,1.89,1.89,0,0,1-.47.06.8.8,0,0,0-.27,0,1.89,1.89,0,0,1-.82.05Z"/><path class="cls-6" d="M11.78,3.72c.06.35.13.7.18,1a12.5,12.5,0,0,1,.1,2.87,15.66,15.66,0,0,1-.53,3.12A11.2,11.2,0,0,1,10.11,14l0,.06a5.16,5.16,0,0,1-1.23,1.28A1.88,1.88,0,0,1,6,14.61a.11.11,0,0,1,.08,0,1.38,1.38,0,0,0,1.81-.18,5.36,5.36,0,0,0,1.23-1.64,12,12,0,0,0,1.07-3,.28.28,0,0,1,0-.22,17.64,17.64,0,0,0,.3-1.91.42.42,0,0,1,.07-.24,12.21,12.21,0,0,0-.17-3.67,5.41,5.41,0,0,0-.45-1.3c-.38-.71-.88-1.23-1.79-1a1.82,1.82,0,0,1,2.7.27,5.08,5.08,0,0,1,.93,1.91A.69.69,0,0,0,11.78,3.72Z"/><path class="cls-1" d="M16.24,13.16l.82-.1c.09-.05.19,0,.27,0l.45,0c.09-.05.19,0,.27,0a1.63,1.63,0,0,1,.49,0c.09-.05.19,0,.27,0h.09c.09-.06.19,0,.27,0h.09c.09,0,.19,0,.27,0h.09a.12.12,0,0,1,.14,0L19,15.81l-.84,3.26a1.1,1.1,0,0,1-1.46.88l-.89-.23A1.1,1.1,0,0,1,15,18.41c.09-.43.2-.85.3-1.28a.34.34,0,0,1,0-.26c.21-.86.43-1.73.64-2.59A1.53,1.53,0,0,1,16,14Z"/><path class="cls-7" d="M16,14c-.1.59-.28,1.17-.41,1.75s-.24.91-.36,1.37l-1.32-.32a.53.53,0,0,1-.21-1C14.5,15.22,15.27,14.61,16,14Z"/><path class="cls-2" d="M1.32,15.91c-.08,0-.09-.08-.13-.13-.21-.3-.21-.3.09-.5.56-.38,1.13-.75,1.68-1.13.14-.1.2-.08.28.06s.2.29-.1.48L1.47,15.81Z"/><path class="cls-2" d="M.38,5l.09,0,2.07.65c.16,0,.2.12.12.26a1.39,1.39,0,0,0-.06.19c0,.11-.07.13-.17.1C1.71,6,1,5.78.26,5.56.17,5.53.13,5.5.17,5.4a2.47,2.47,0,0,0,.1-.29C.28,5.05.3,5,.38,5Z"/><path class="cls-2" d="M4.38,1.77c-.12.11-.22.23-.34.32s-.15,0-.2-.1c-.51-.5-1-1-1.54-1.52C2.2.36,2.18.3,2.3.19s.25-.26.51,0c.47.48.95,1,1.42,1.42C4.28,1.65,4.31,1.7,4.38,1.77Z"/><path class="cls-8" d="M19.76,12.75h-.14l.18-.09.08.08Z"/><path class="cls-9" d="M20.47,8.63c0-.07,0-.15.05-.22C20.51,8.49,20.55,8.57,20.47,8.63Z"/><path class="cls-10" d="M20.43,8.9c0-.07,0-.16,0-.22S20.5,8.84,20.43,8.9Z"/><path class="cls-11" d="M20.2,10.2c0-.08,0-.16.05-.22S20.28,10.14,20.2,10.2Z"/><path class="cls-12" d="M20.16,10.46c0-.07,0-.15,0-.21S20.23,10.4,20.16,10.46Z"/><path class="cls-13" d="M19.89,12c0-.07,0-.16,0-.22S20,12,19.89,12Z"/><path class="cls-12" d="M19.85,12.3c0-.08,0-.16,0-.22S19.92,12.24,19.85,12.3Z"/><path class="cls-7" d="M10.52,7.43a11.18,11.18,0,0,1-.24,1.83,3.25,3.25,0,0,1-.12.54A14.26,14.26,0,0,1,8,9.57a1.32,1.32,0,0,1-1-1.6A1.39,1.39,0,0,1,8.36,7a19.24,19.24,0,0,1,2,.39Z"/><path class="cls-14" d="M19.53,12.75c-.08.08-.18,0-.27,0C19.34,12.71,19.44,12.76,19.53,12.75Z"/><path class="cls-15" d="M19.17,12.8c-.08.07-.18,0-.27,0C19,12.76,19.08,12.8,19.17,12.8Z"/><path class="cls-16" d="M18.81,12.84c-.08.08-.18,0-.27,0C18.62,12.8,18.72,12.85,18.81,12.84Z"/><path class="cls-17" d="M18.05,12.93c-.08.08-.18,0-.27,0C17.86,12.89,18,12.94,18.05,12.93Z"/><path class="cls-18" d="M17.33,13c-.08.08-.18,0-.27,0C17.14,13,17.24,13,17.33,13Z"/></g></g></svg>