<svg xmlns="http://www.w3.org/2000/svg" viewBox="0 0 23.7 23"><g id="Layer_2" data-name="Layer 2"><g id="Layer_1-2" data-name="Layer 1"><circle cx="11.84" cy="14.45" r="2.31"/><circle cx="4.71" cy="14.41" r="2.31"/><circle cx="18.96" cy="14.29" r="2.31"/><path d="M16.57,23H7.08a8.91,8.91,0,0,1,.23-3,4.75,4.75,0,0,1,4-3.16h1a4.63,4.63,0,0,1,3.92,3,4.5,4.5,0,0,1,.31,1.74C16.56,22.06,16.56,22.53,16.57,23Z"/><path d="M19.45,16.84a4.7,4.7,0,0,1,4.06,3.36,7.29,7.29,0,0,1,.18,2.18c0,.31-.25.48-.51.62H18c0-.64,0-1.28,0-1.91a5.9,5.9,0,0,0-1.32-3.36c-.14-.18-.1-.23.07-.32a4.6,4.6,0,0,1,1.83-.57,1.05,1.05,0,0,1,.24-.06h.38A1,1,0,0,1,19.45,16.84Z"/><path d="M5.68,21.36c0,.55,0,1.09,0,1.64H.51A.59.59,0,0,1,0,22.49V21c.06-.25.12-.51.19-.77a4.71,4.71,0,0,1,4-3.35h1a4.4,4.4,0,0,1,2,.66c0,.08-.07.12-.11.17A6,6,0,0,0,5.68,21.36Z"/><path d="M19.67,3.3a.67.67,0,0,1-.51.66l-2.64,1c-1.41.52-2.83,1-4.24,1.56a1.14,1.14,0,0,1-.87,0L4.57,4A.69.69,0,0,1,4,3.29a.68.68,0,0,1,.54-.68C6.88,1.76,9.2.92,11.51.06a1,1,0,0,1,.67,0l6.93,2.53A.72.72,0,0,1,19.67,3.3Z"/><path d="M7.44,6.51C8.66,7,9.86,7.38,11,7.83a2.21,2.21,0,0,0,1.6,0L16,6.59l.23-.08c0,.87,0,1.71,0,2.56a.64.64,0,0,1-.5.59c-.93.34-1.87.63-2.77,1a2.55,2.55,0,0,1-2.24,0c-.89-.4-1.83-.68-2.74-1a.7.7,0,0,1-.55-.78Z"/><path d="M19.67,5.26c0,1,0,2,0,2.91a.68.68,0,0,1-1.35.1,1.07,1.07,0,0,1,0-.25c0-.69,0-1.38,0-2.08a.21.21,0,0,1,.18-.24Z"/></g></g></svg>