<svg xmlns="http://www.w3.org/2000/svg" viewBox="0 0 20.53 24"><defs><style>.cls-1{fill:#f4f7f8;}.cls-2{fill:#d8e6eb;}.cls-3{fill:#0592fb;}.cls-4{fill:#e7ecf1;}.cls-5{fill:#c4d2dc;}.cls-6{fill:#26a5fd;}.cls-7{fill:#fed05b;}.cls-8{fill:#fc4755;}.cls-9{fill:#fee076;}.cls-10{fill:#fd646f;}.cls-11{fill:#0181fb;}.cls-12{fill:#e5eaef;}.cls-13{fill:#e6ebf0;}.cls-14{fill:#010101;}.cls-15{fill:#5cdfc2;}.cls-16{fill:#5cdfc3;}.cls-17{fill:#fefefe;}</style></defs><g id="Layer_2" data-name="Layer 2"><g id="Layer_1-2" data-name="Layer 1"><path d="M16.17,0c.09.08.2.05.3.09a1.56,1.56,0,0,1,1,1.47c0,.83,0,1.67,0,2.51,0,.14,0,.2.19.26a4.18,4.18,0,0,1,0,8c-.12,0-.17.09-.16.22s-.09.53.05.67.43,0,.66,0,.58,0,.87,0a1.51,1.51,0,0,1,1.48,1.53v7.64A1.53,1.53,0,0,1,18.92,24H13.74a1.52,1.52,0,0,1-1.59-1.38c0-.2-.14-.14-.24-.14H1.69A1.55,1.55,0,0,1,0,20.79V13.3c0-.33.06-.41.38-.5s.33.09.39.38v7.1c0,.21,0,.42,0,.63a.75.75,0,0,0,.67.78,3,3,0,0,0,.42,0h9.82c.37,0,.37,0,.38-.38s0-.53,0-.79c0-.44,0-.88,0-1.32s.14-.44.45-.48.39.19.39.52c0,1,0,2,0,3,0,0,0,.11,0,.16a.77.77,0,0,0,.8.8c.85,0,1.7,0,2.55,0h2.56a.8.8,0,0,0,.92-.92c0-1.84,0-3.68,0-5.53,0-.32,0-.33-.34-.34H13.25c-.1,0-.21,0-.29.06a1.46,1.46,0,0,0,0,.59c0,.13,0,.26,0,.39a.44.44,0,0,1-.48.45.49.49,0,0,1-.36-.56V14.74a1.6,1.6,0,0,1,.2-.76,1.55,1.55,0,0,1,1.19-.83c1,0,2,0,2.93,0,.11,0,.24,0,.29-.09a.64.64,0,0,0,0-.43c0-.09-.13-.07-.21-.07a3.77,3.77,0,0,1-.95-.07A4.08,4.08,0,0,1,13.09,11a.65.65,0,0,0-.55-.24H6.22a.39.39,0,0,1-.37-.36A.41.41,0,0,1,6.13,10a1,1,0,0,1,.39,0h5.69q.19,0,.12-.18a6.09,6.09,0,0,1-.17-.61,4.15,4.15,0,0,1,.05-1.95c.07-.29.06-.3-.24-.31H6.23a.39.39,0,0,1-.38-.37.41.41,0,0,1,.33-.45,1.37,1.37,0,0,1,.35,0h5.79a.61.61,0,0,0,.58-.29,4.18,4.18,0,0,1,3.56-1.73c.15,0,.26,0,.25-.21s-.1-.21-.24-.21c-.32,0-.64,0-1,0-.59,0-1.17,0-1.76,0-.34,0-.47-.11-.54-.4a.42.42,0,0,1,.36-.43h2.8c.33,0,.34,0,.34-.34s0-.53,0-.8a.8.8,0,0,0-.89-.88c-.11,0-.22,0-.33,0a3.23,3.23,0,0,1-.44,0H5.46c-.41,0-.41,0-.42.41V2.36c0,.42,0,.42.44.42H12a.42.42,0,0,1,.44.39.44.44,0,0,1-.43.44,2.61,2.61,0,0,1-.4,0H1.21c-.43,0-.43,0-.43.42v7.38c0,.38-.17.49-.54.42A.44.44,0,0,1,0,11.42V1.58A1.51,1.51,0,0,1,1.22,0l.05,0Z"/><path class="cls-1" d="M.24,11.86c.36,0,.47-.09.47-.46q0-3.8,0-7.59c0-.22.06-.26.27-.26H11.83c.34,0,.43-.07.51-.36a1.13,1.13,0,0,1,.92,0c.08.28.17.35.46.36h1.8a.64.64,0,0,1,0,.6A4.64,4.64,0,0,0,13.74,5a4.05,4.05,0,0,0-.89,1,.33.33,0,0,1-.33.19H6.4a.63.63,0,0,0-.3,0,.33.33,0,0,0-.21.35.3.3,0,0,0,.28.3,1,1,0,0,0,.25,0c1.91,0,3.82,0,5.72,0,.19,0,.26,0,.19.23A4.16,4.16,0,0,0,12.5,10H6.18a.34.34,0,0,0-.29.37.33.33,0,0,0,.33.33h6.45a.49.49,0,0,1,.41.19,4,4,0,0,0,2.33,1.46l.11,0a1.07,1.07,0,0,1,.05.66c0,.13-.13.11-.23.11H13.68a.93.93,0,0,0-.23,0,1.54,1.54,0,0,0-1.31,1.69v2.54a.4.4,0,0,0,.28.43c.06,0,.13,0,.14.11a1.44,1.44,0,0,1,0,.82c-.32.08-.38.16-.38.48s0,.83,0,1.25a.39.39,0,0,1-.31.08H1.07c-.33,0-.34,0-.34-.34V13.38a.78.78,0,0,0,0-.26.42.42,0,0,0-.33-.32c0-.23,0-.46,0-.69A.23.23,0,0,0,.24,11.86Z"/><path class="cls-2" d="M12.52,18.8c0-.24,0-.48,0-.71a.23.23,0,0,0-.1-.22c.32,0,.42-.13.42-.43s0-.69,0-1a.36.36,0,0,1,.23,0h5.43c.28,0,.31,0,.31.31,0,1.68,0,3.35,0,5a.56.56,0,0,1-.51.6,1.51,1.51,0,0,1-.3,0h-4.8a.47.47,0,0,1-.36-.08c0-1,0-2,0-3A.43.43,0,0,0,12.52,18.8Z"/><path class="cls-3" d="M13.26,3.2h-.92c-.08-.29-.16-.35-.47-.35H5.22C5,2.86,5,2.8,5,2.6,5,2,5,1.46,5,.89,5,.76,5,.7,5.14.7H15.52a.35.35,0,0,1,.07.26V2.54c0,.28,0,.29-.31.3-.58,0-1.16,0-1.73,0A.41.41,0,0,0,13.26,3.2Z"/><path class="cls-4" d="M.71,13.12c.07.09,0,.18,0,.27v6.84c0,.22,0,.31.29.31H12.13c0,.37,0,.73,0,1.1,0,.11,0,.16-.14.15a.48.48,0,0,0-.12,0H1.69a.85.85,0,0,1-1-.88c0-2.57,0-5.14,0-7.71C.7,13.17.71,13.15.71,13.12Z"/><path class="cls-5" d="M12.85,22.26h5.23a1,1,0,0,0,.29,0,.45.45,0,0,0,.38-.48V16.66c0-.2,0-.26-.25-.26H12.85c.05-.1.14-.05.2-.05h6.56c.18,0,.22,0,.22.22,0,1.93,0,3.87,0,5.8a.84.84,0,0,1-.92.92H13.83A.86.86,0,0,1,12.85,22.26Z"/><path class="cls-6" d="M2.48,2.85H.89c-.14,0-.19,0-.19-.18,0-.39,0-.77,0-1.15A.82.82,0,0,1,1.55.7c.84,0,1.68,0,2.53,0,.13,0,.19,0,.19.18q0,.9,0,1.8c0,.16-.06.18-.19.18Z"/><path class="cls-7" d="M18.09,5.3a3.47,3.47,0,0,1-1.19,6.43,3.31,3.31,0,0,1-3.22-1.18c.19-.11.38,0,.56,0s.21,0,.32,0a.59.59,0,0,1,.29.13,2.82,2.82,0,0,0,4.3-2.48,2.64,2.64,0,0,0-.59-1.65,2,2,0,0,1-.28-.37c-.06-.23-.11-.46-.18-.68A.22.22,0,0,1,18.09,5.3Z"/><path class="cls-8" d="M18.75,13.92c.74-.05,1.08.26,1.08,1a4.86,4.86,0,0,0,0,.54c0,.17,0,.2-.21.2H13.06c-.17,0-.24,0-.22-.22a4.64,4.64,0,0,0,0-.53.51.51,0,0,1,.38-.08h5c.3,0,.42-.14.44-.43A.72.72,0,0,1,18.75,13.92Z"/><path class="cls-9" d="M18.09,5.3a4.1,4.1,0,0,1,.23.9c-.11,0-.18-.06-.26-.12a2.83,2.83,0,0,0-4.54,2.45,2.8,2.8,0,0,0,.87,1.82c.07.07.2.11.19.25-.24.1-.46,0-.69,0a.75.75,0,0,1-.21,0,3.48,3.48,0,0,1,4.17-5.39A1.88,1.88,0,0,1,18.09,5.3Z"/><path class="cls-10" d="M18.75,13.92v.52a.42.42,0,0,1-.47.47H12.85a.84.84,0,0,1,.94-1h5Z"/><path class="cls-11" d="M13.55,2.85c.07-.06.16,0,.24,0,.5,0,1,0,1.5,0,.19,0,.23-.07.23-.24,0-.63,0-1.25,0-1.87.94-.1,1.32.3,1.26,1.19a6.26,6.26,0,0,0,0,.75c0,.15,0,.21-.19.21Z"/><path class="cls-12" d="M13.45,13.21c.08-.07.17,0,.25,0h1.61c.16,0,.22-.05.21-.21s0-.36,0-.54a4.27,4.27,0,0,0,1.13.05c.1,0,.13,0,.12.12v0c0,.59,0,.59-.56.59Z"/><path class="cls-13" d="M15.52,4.17v-.6c.36,0,.73,0,1.09,0,.14,0,.17.05.17.18,0,.39,0,.39-.38.38A8.48,8.48,0,0,0,15.52,4.17Z"/><path d="M5,14.28v.65a.6.6,0,0,1-.6.62H3a.58.58,0,0,1-.59-.6c0-.45,0-.9,0-1.36A.57.57,0,0,1,3,13c.45,0,.91,0,1.36,0a.59.59,0,0,1,.6.62Z"/><path d="M3.68,19.45c-.22,0-.44,0-.65,0a.57.57,0,0,1-.61-.55c0-.48,0-.95,0-1.43A.55.55,0,0,1,3,16.91q.69,0,1.38,0a.57.57,0,0,1,.58.6c0,.44,0,.89,0,1.33a.58.58,0,0,1-.62.61C4.12,19.46,3.9,19.45,3.68,19.45Z"/><path d="M8.49,13.92h2.12c.3,0,.46.13.45.36s-.16.34-.45.34c-1.43,0-2.86,0-4.28,0-.31,0-.48-.16-.43-.41s.2-.29.41-.29Z"/><path class="cls-14" d="M8.47,18.53H6.33c-.29,0-.45-.13-.44-.36s.16-.35.44-.35h4.31a.37.37,0,0,1,.41.27.32.32,0,0,1-.16.39.49.49,0,0,1-.29.05Z"/><path d="M3.49,7.54a.43.43,0,0,1-.3-.16l-.67-.81a.35.35,0,0,1,0-.52.34.34,0,0,1,.51.06l.06.07c.14.14.24.41.39.4s.25-.27.38-.41.28-.36.43-.53a.35.35,0,0,1,.53-.08.35.35,0,0,1,0,.52L3.79,7.38A.41.41,0,0,1,3.49,7.54Z"/><path d="M3.49,10.52l.81-1a.38.38,0,0,1,.53-.11.37.37,0,0,1,0,.56l-1,1.26a.36.36,0,0,1-.61,0c-.23-.26-.44-.52-.66-.79A.35.35,0,1,1,3.07,10a2.52,2.52,0,0,1,.21.25Z"/><path d="M16.65,18.83a1.23,1.23,0,0,1-.31.84c-.1.11-.08.17,0,.28a1.3,1.3,0,0,1,.13,1.48A1.32,1.32,0,0,1,14,21.1a1.34,1.34,0,0,1,0-.35.31.31,0,0,1,.29-.31.32.32,0,0,1,.38.24,1.13,1.13,0,0,1,0,.18.62.62,0,1,0,.77-.68l-.17,0A.34.34,0,0,1,15,19.8a.35.35,0,0,1,.34-.35c.4-.05.62-.27.62-.62a.62.62,0,0,0-1.17-.28.49.49,0,0,0,0,.11c-.1.28-.27.39-.48.31s-.27-.27-.19-.53a1.32,1.32,0,0,1,2.59.39Z"/><path d="M18.66,19.82c0,.6,0,1.2,0,1.8,0,.28-.12.44-.33.44S18,21.9,18,21.61c0-1,0-2.09,0-3.13,0-.18,0-.26-.24-.23a1.34,1.34,0,0,1-.28,0,.31.31,0,0,1-.29-.31.3.3,0,0,1,.25-.36,3.22,3.22,0,0,1,1,0c.22,0,.28.2.28.4C18.66,18.58,18.66,19.2,18.66,19.82Z"/><path d="M14.58,10.6a2.87,2.87,0,0,1-1.12-2.32,2.72,2.72,0,0,1,1.6-2.55,2.77,2.77,0,0,1,3,.28c.09.06.16.13.24.19a2.87,2.87,0,0,1,.89,2.07,2.88,2.88,0,0,1-4.48,2.42Z"/><path class="cls-15" d="M4.25,14.26c0,.19.07.43,0,.54s-.36,0-.56,0c-.56,0-.56,0-.55-.55,0-.2-.09-.44,0-.57s.37,0,.56,0C4.26,13.69,4.26,13.7,4.25,14.26Z"/><path class="cls-16" d="M3.11,18.19c0-.58,0-.58.59-.58s.57,0,.56.57c0,.18.08.42,0,.54s-.36,0-.55,0C3.11,18.75,3.11,18.75,3.11,18.19Z"/><path class="cls-17" d="M15.89,10.42a2.16,2.16,0,0,1-1.4-3.27,2.06,2.06,0,0,1,2.14-1,2,2,0,0,1,1.71,1.34,3.42,3.42,0,0,1-1,2A3.23,3.23,0,0,1,15.89,10.42Z"/><path class="cls-1" d="M15.89,10.42c.16-.16.38-.19.56-.31a3.79,3.79,0,0,0,1.84-2.55s0,0,.05-.07A2,2,0,0,1,18,9.71,2,2,0,0,1,15.89,10.42Z"/><path d="M16,7.64V7a.37.37,0,0,1,.35-.37.35.35,0,0,1,.35.36c0,.27,0,.55,0,.82,0,.12,0,.16.16.16h.61a.35.35,0,1,1,0,.7H16.34c-.24,0-.35-.15-.36-.4Z"/></g></g></svg>