<svg xmlns="http://www.w3.org/2000/svg" viewBox="0 0 24 23.95"><defs><style>.cls-1{fill:#8aeffe;}.cls-2{fill:#eb5a6e;}.cls-3{fill:#50647f;}.cls-4{fill:#8cb8fe;}.cls-5{fill:#f8d166;}.cls-6{fill:#66cb98;}.cls-7{fill:#fec6aa;}.cls-8{fill:#5cd1e0;}.cls-9{fill:#339865;}.cls-10{fill:#eead42;}.cls-11{fill:#6f9fec;}.cls-12{fill:#d42f45;}.cls-13{fill:#010101;}.cls-14{fill:#000101;}.cls-15{fill:#efad42;}.cls-16{fill:#010100;}</style></defs><g id="Layer_2" data-name="Layer 2"><g id="Layer_1-2" data-name="Layer 1"><path d="M0,15v-.1c0-.06,0-.13,0-.2V9c0-.07,0-.14,0-.2V8.59A2.52,2.52,0,0,1,.55,7.23a2.56,2.56,0,0,1,2-1,2.06,2.06,0,0,0,.43,0c0-.08,0-.11-.06-.15A2.41,2.41,0,0,1,4.17,2.24a.33.33,0,0,0,.27-.37q0-.75,0-1.5C4.44.1,4.52,0,4.8,0H23.69A.27.27,0,0,1,24,.29c0,.1,0,.19,0,.28V11c0,.39-.12.49-.51.5H21.05c-.34,0-.45-.1-.5-.39s.2-.41.55-.41H23c.27,0,.28,0,.28-.32q0-4.66,0-9.33c0-.28,0-.31-.3-.33H5.6a.58.58,0,0,0-.32,0,.12.12,0,0,0,0,.1c0,.39,0,.79,0,1.19,0,.14.12.17.22.2a2.51,2.51,0,0,1,1.08.63,2.39,2.39,0,0,1,.19,3.2s-.06.05,0,.13H7.89A.33.33,0,0,0,8.16,6L9,4.88a1.62,1.62,0,0,1,.84-.64,1.51,1.51,0,0,1,1.62.4,1.47,1.47,0,0,1,.33,1.66,2.14,2.14,0,0,1-.35.58c-.54.7-1.08,1.4-1.6,2.11a1.32,1.32,0,0,1-1.1.56H7.82c-.16,0-.22.06-.22.22s0,.42,0,.63,0,.28.29.28h3.56a.42.42,0,0,1,.45.49c-.06.25-.25.29-.47.29H7.89c-.27,0-.28,0-.28.3v4.09c0,.11,0,.22,0,.33a1.75,1.75,0,0,0,.3,1.12,2,2,0,0,1-.13,2.31c-.16.21-.16.21.06.33a2.5,2.5,0,0,1,.66.59c.1.13.17.13.27,0a1.89,1.89,0,0,1,.73-.61c.16-.07.14-.13,0-.25a2.11,2.11,0,0,1,1.12-3.38,2.11,2.11,0,0,1,2.19,3.34c-.15.2-.16.21.07.32a1.81,1.81,0,0,1,.55.44c.11.12.2.15.32,0a2,2,0,0,1,.6-.48c.18-.09.12-.17,0-.29a2.11,2.11,0,0,1,.17-2.78,2,2,0,0,1,2-.54,2,2,0,0,1,1.49,1.53,2,2,0,0,1-.37,1.79c-.15.2-.14.2.06.32a2.07,2.07,0,0,1,.66.55c.14.18.17.18.29,0a2.21,2.21,0,0,1,.66-.56c.21-.13.21-.13.06-.33a2.09,2.09,0,0,1-.05-2.49,2,2,0,0,1,2.18-.85,2,2,0,0,1,1.62,1.65,1.94,1.94,0,0,1-.4,1.7c-.11.14-.11.21.06.31A2,2,0,0,1,24,21.73c0,.58,0,1.16,0,1.74,0,.4-.1.48-.51.48H3.76c-.43,0-.54-.11-.55-.53V22.6c0-.31,0-.31-.32-.31H2.45A.42.42,0,0,1,2,21.86c0-.1,0-.2,0-.3V16.64c0-.31,0-.31-.31-.27A1.53,1.53,0,0,1,0,15.14S0,15.05,0,15Z"/><path d="M0,8.83c.07,0,.05.09.05.14v5.8c0,.05,0,.12,0,.14Z"/><path class="cls-1" d="M20.6,11.08h-.5C20,11,20,10.87,20,10.75V9.11a.86.86,0,0,0-.95-1H13.45a.9.9,0,0,0-1,1c0,.53,0,1.06,0,1.59a.5.5,0,0,1-.06.34c-.17,0-.35-.07-.5.07,0-.3-.13-.39-.44-.39H7.76c-.17,0-.24,0-.23-.21s0-.61,0-.91c0-.13,0-.18.16-.17H8.76a1.15,1.15,0,0,0,1-.49c.59-.78,1.19-1.54,1.77-2.33a1.49,1.49,0,0,0-.85-2.38,1.43,1.43,0,0,0-1.51.5c-.35.44-.69.89-1,1.34a.35.35,0,0,1-.31.16H6.51c0-.1.06-.13.1-.18A2.36,2.36,0,0,0,5.33,2.27c-.15,0-.2-.08-.2-.24,0-.45,0-.9,0-1.35a.53.53,0,0,1,.25,0H22.69C23,.66,23,.67,23,1v9.46a.43.43,0,0,1-.07.31H21C20.8,10.76,20.65,10.84,20.6,11.08Z"/><path class="cls-2" d="M10.29,7.19c-.35.47-.71.94-1.06,1.42a.54.54,0,0,1-.47.21H7.33c-.35,0-.45.1-.45.44,0,1.67,0,3.34,0,5,0,.2-.06.24-.25.24H2.94c-.17,0-.22,0-.22-.22,0-1.62,0-3.23,0-4.85a1.77,1.77,0,0,0,0-.23.29.29,0,0,0-.28-.29.3.3,0,0,0-.35.24,1.1,1.1,0,0,0,0,.26v3.83c0,.09,0,.17,0,.26a.56.56,0,0,1-.38.07H1c-.17,0-.24.06-.24.23s0,.53,0,.79,0,.22-.08.31a.46.46,0,0,1,0-.23V9A2,2,0,0,1,1.8,7.12a1.71,1.71,0,0,1,.77-.18c1.81,0,3.62,0,5.43,0a.61.61,0,0,0,.57-.28,5.58,5.58,0,0,1,.37-.48c.46.28.87.62,1.31.94A.2.2,0,0,1,10.29,7.19Z"/><path class="cls-3" d="M6.88,16.44c-1.28-.26-2,0-2.57.89a2.06,2.06,0,0,0,.35,2.52s-.07,0-.11.07A2.07,2.07,0,0,0,3.34,21.4c-.08.33-.32.14-.49.17s-.12-.15-.12-.24c0-2,0-3.94,0-5.92,0-.2.06-.26.26-.26H6.66c.18,0,.23.06.23.24C6.87,15.74,6.88,16.09,6.88,16.44Z"/><path class="cls-2" d="M19.06,23.25a1.2,1.2,0,0,1,0-.5,9.2,9.2,0,0,1,0-1.05,1.38,1.38,0,0,1,1.25-1.28,12.34,12.34,0,0,1,1.72,0,.37.37,0,0,1,.14,0,1.45,1.45,0,0,1,.72,1.23c0,.44,0,.88,0,1.31,0,.26,0,.28-.29.28H19.27A.38.38,0,0,1,19.06,23.25Z"/><path class="cls-4" d="M14,23.25c0-.54,0-1.07,0-1.61a1.38,1.38,0,0,1,1.27-1.22c.56-.05,1.12,0,1.68,0a.7.7,0,0,1,.14,0,1.44,1.44,0,0,1,.71,1.17,11.36,11.36,0,0,1,0,1.43c0,.15,0,.24-.23.24H14.08S14,23.28,14,23.25Z"/><path class="cls-5" d="M9.05,23.25a12.36,12.36,0,0,1,0-1.61,1.37,1.37,0,0,1,1.26-1.22c.56-.05,1.14,0,1.71,0l.11,0a1.47,1.47,0,0,1,.72,1.22,12.16,12.16,0,0,1,0,1.35c0,.15,0,.27-.23.27H9.16A.23.23,0,0,1,9.05,23.25Z"/><path class="cls-6" d="M4,21.61a1.4,1.4,0,0,1,1.28-1.2c.55,0,1.09,0,1.64,0l.13,0a1.37,1.37,0,0,1,.69,1,6.17,6.17,0,0,1,.08,1.66c0,.14-.07.2-.22.2H4.13c-.09,0-.18,0-.17-.12C4,22.63,3.94,22.12,4,21.61Z"/><path class="cls-7" d="M4.8,2.86A1.71,1.71,0,1,1,3.1,4.58,1.7,1.7,0,0,1,4.8,2.86Z"/><path class="cls-7" d="M6.07,19.74a1.39,1.39,0,1,1,1.41-1.39A1.4,1.4,0,0,1,6.07,19.74Z"/><path class="cls-7" d="M21.16,19.74a1.39,1.39,0,1,1,1.4-1.39A1.39,1.39,0,0,1,21.16,19.74Z"/><path class="cls-7" d="M11.17,19.74a1.39,1.39,0,1,1,0-2.78,1.39,1.39,0,1,1,0,2.78Z"/><path class="cls-7" d="M16.08,19.74a1.37,1.37,0,0,1-1.39-1.39,1.39,1.39,0,1,1,1.39,1.39Z"/><path class="cls-8" d="M23,10.75q0-4.9,0-9.79c0-.22-.06-.28-.28-.28H5.16c.07-.07.15,0,.22,0H22.74c.56,0,.56,0,.56.56v9.21C23.3,10.78,23.3,10.78,23,10.75Z"/><path class="cls-7" d="M10.29,7.19a12.25,12.25,0,0,1-1.35-1c.24-.32.47-.64.71-1A.86.86,0,0,1,10.84,5,.84.84,0,0,1,11,6.24C10.78,6.57,10.53,6.87,10.29,7.19Z"/><path class="cls-7" d="M.69,14.91c0-.39,0-.78,0-1.17,0-.2.06-.24.24-.23H2.06c0,.62,0,1.23,0,1.85,0,.12-.08.16-.16.2A.84.84,0,0,1,.69,14.91Z"/><path class="cls-9" d="M4,21.61c0,.47,0,.95,0,1.42,0,.18.06.22.23.22q1.65,0,3.3,0c.19,0,.23-.06.23-.24,0-.39,0-.78,0-1.17A1.93,1.93,0,0,0,7,20.44a1.36,1.36,0,0,1,1.17,1.22c0,.49,0,1,0,1.47,0,.13-.06.16-.17.16H4.11c-.09,0-.18,0-.18-.12,0-.5,0-1,0-1.5C3.94,21.65,4,21.63,4,21.61Z"/><path class="cls-10" d="M9.05,23.25c1.16,0,2.33,0,3.49,0,.19,0,.26-.05.25-.25a10.09,10.09,0,0,1,0-1.1,1.68,1.68,0,0,0-.56-1.33,1.13,1.13,0,0,1-.1-.13,1.39,1.39,0,0,1,1.16,1.3c0,.45,0,.9,0,1.36,0,.12,0,.18-.16.18h-4Z"/><path class="cls-11" d="M14,23.25c1.16,0,2.33,0,3.49,0,.19,0,.25-.05.25-.25a10.84,10.84,0,0,1,0-1.14,1.66,1.66,0,0,0-.53-1.26c0-.05-.09-.1-.13-.16a1.4,1.4,0,0,1,1.16,1.31c0,.46,0,.92,0,1.38,0,.18-.11.15-.22.15H14.14C14.09,23.28,14,23.31,14,23.25Z"/><path class="cls-12" d="M19.06,23.25c1.16,0,2.32,0,3.48,0,.22,0,.28-.06.27-.27s0-.7,0-1.05a1.76,1.76,0,0,0-.57-1.38l-.09-.1a1.39,1.39,0,0,1,1.13,1.18c0,.49,0,1,0,1.49,0,.1,0,.16-.15.16H19.1Z"/><path d="M12.37,11.08c0-.64,0-1.28,0-1.92a.93.93,0,0,1,1.07-1.07h5.6a.92.92,0,0,1,1,1.05c0,.65,0,1.29,0,1.94,0,.8,0,1.59,0,2.39a.9.9,0,0,1-1,1h-3a.45.45,0,0,0-.34.15c-.57.58-1.15,1.15-1.72,1.72-.13.13-.25.25-.45.17s-.21-.26-.21-.45V14.6c0-.09,0-.15-.13-.16a.88.88,0,0,1-.9-1V11.33C12.38,11.25,12.37,11.16,12.37,11.08Z"/><path d="M18.46,2.45H14.93a.32.32,0,0,1-.27-.34A.32.32,0,0,1,15,1.8h7a.33.33,0,0,1,.35.33.33.33,0,0,1-.36.32H18.46Z"/><path d="M18.44,7.1H15.12a.61.61,0,0,1-.27,0,.33.33,0,0,1-.19-.33.31.31,0,0,1,.26-.29h7a.35.35,0,0,1,.36.32.33.33,0,0,1-.37.34H18.44Z"/><path d="M18.48,3.35h3.27a1.47,1.47,0,0,1,.21,0A.33.33,0,0,1,22,4h-7a.32.32,0,0,1-.27-.33A.31.31,0,0,1,15,3.35a1.47,1.47,0,0,1,.21,0Z"/><path d="M18.48,4.89H22a.32.32,0,0,1,.26.34.3.3,0,0,1-.27.3.74.74,0,0,1-.21,0H15a.33.33,0,0,1,0-.65h3.53Z"/><path class="cls-13" d="M12.93,1.8h.33a.31.31,0,0,1,.31.32.31.31,0,0,1-.3.33,5.45,5.45,0,0,1-.7,0,.32.32,0,0,1-.3-.33.33.33,0,0,1,.33-.32Z"/><path class="cls-13" d="M12.9,7.1h-.32a.31.31,0,0,1-.31-.32.3.3,0,0,1,.28-.32,4.33,4.33,0,0,1,.72,0,.3.3,0,0,1,.3.33.31.31,0,0,1-.32.31Z"/><path class="cls-14" d="M12.91,5.55h-.32a.31.31,0,0,1-.31-.32.29.29,0,0,1,.29-.33,5.45,5.45,0,0,1,.7,0,.31.31,0,0,1,.3.32.32.32,0,0,1-.31.33Z"/><path d="M12.92,4h-.33a.33.33,0,0,1-.32-.34.32.32,0,0,1,.32-.31c.22,0,.45,0,.67,0a.31.31,0,0,1,.31.32.32.32,0,0,1-.31.33Z"/><path class="cls-5" d="M19,13.78H16a.66.66,0,0,0-.5.2c-.39.41-.79.8-1.19,1.2,0,.05-.08.12-.2.14V14.24c0-.34-.1-.45-.45-.45-.58,0-.58,0-.58-.58,0-1.36,0-2.71,0-4.07,0-.14,0-.31.16-.37a.6.6,0,0,1,.23,0h5.35c.31,0,.35,0,.35.35,0,1.45,0,2.89,0,4.34C19.13,13.58,19.15,13.71,19,13.78Z"/><path class="cls-15" d="M19,13.78a.41.41,0,0,0,0-.27V9.07c0-.23-.07-.29-.29-.29H13.2c.07-.06.15,0,.23,0h5.68c.25,0,.33.08.33.35v4.3C19.44,13.76,19.39,13.8,19,13.78Z"/><path d="M16.23,11.92h1.86c.28,0,.42.12.41.33s-.14.32-.4.32H14.38c-.26,0-.42-.13-.41-.34s.16-.31.41-.31Z"/><path class="cls-16" d="M16.23,10.62h-1.9a.32.32,0,0,1-.33-.2.29.29,0,0,1,.05-.33.33.33,0,0,1,.29-.12h3.8a.32.32,0,0,1,.36.34c0,.2-.13.31-.38.31Z"/></g></g></svg>