<svg xmlns="http://www.w3.org/2000/svg" viewBox="0 0 18.56 24"><defs><style>.cls-1{fill:#fd646f;}.cls-2{fill:#f5dbcc;}.cls-3{fill:#fb4755;}.cls-4{fill:#fee077;}.cls-5{fill:#fdcf63;}.cls-6{fill:#6cf4c1;}.cls-7{fill:#00e298;}</style></defs><g id="Layer_2" data-name="Layer 2"><g id="Layer_1-2" data-name="Layer 1"><path d="M.84,24a1.48,1.48,0,0,1-.62-.43,1.07,1.07,0,0,1-.15-1,3.46,3.46,0,0,1,2-2.13c-.82-1.08-.81-2.12,0-2.88a1.93,1.93,0,0,1,2.61,0,2,2,0,0,1,0,2.84,3.55,3.55,0,0,1,1.33,1,3.49,3.49,0,0,1,.65,1.18A1.07,1.07,0,0,1,5.9,24s0,0,0,0Z"/><path d="M2,3.37a2,2,0,0,1,0-2.86,1.93,1.93,0,0,1,2.62,0,2,2,0,0,1,0,2.85A3.59,3.59,0,0,1,6.12,4.49,3.3,3.3,0,0,1,6.67,5.6a1.06,1.06,0,0,1-1,1.34C4.13,7,2.57,7,1,6.94A1,1,0,0,1,0,5.62,3.36,3.36,0,0,1,1.8,3.48Z"/><path d="M2,11.89A2,2,0,0,1,2,9.05a1.94,1.94,0,1,1,2.65,2.83c0,.07.13.08.19.11a3.38,3.38,0,0,1,1.76,2,1.07,1.07,0,0,1-1,1.48H1.11A1.07,1.07,0,0,1,.07,14,3.43,3.43,0,0,1,1.9,12Z"/><path d="M13.76,2.72H9.47a.72.72,0,0,1-.21,0A.34.34,0,0,1,9,2.36.34.34,0,0,1,9.25,2a.74.74,0,0,1,.21,0H18a1.2,1.2,0,0,1,.19,0,.36.36,0,0,1,.32.37.35.35,0,0,1-.32.37.74.74,0,0,1-.21,0Z"/><path d="M13.75,10.5h4.48a.34.34,0,0,1,.32.32.35.35,0,0,1-.23.39.66.66,0,0,1-.28,0H9.44a.61.61,0,0,1-.23,0A.33.33,0,0,1,9,10.83a.35.35,0,0,1,.33-.33h4.47Z"/><path d="M13.75,19h4.48a.37.37,0,0,1,.05.72,1.14,1.14,0,0,1-.26,0H9.47a.65.65,0,0,1-.28,0A.34.34,0,0,1,9,19.36.33.33,0,0,1,9.26,19h4.49Z"/><path d="M12.05,5H9.38A.39.39,0,0,1,9,4.72a.35.35,0,0,1,.24-.46.89.89,0,0,1,.28,0h5.29a.39.39,0,0,1,.41.39.38.38,0,0,1-.41.36Z"/><path d="M12.07,22H9.35a.36.36,0,0,1-.4-.38.36.36,0,0,1,.39-.37h5.37c.29,0,.47.14.47.37S15,22,14.72,22Z"/><path d="M12,13.5H9.42q-.47,0-.48-.36c0-.25.17-.39.48-.39h5.29c.32,0,.52.21.46.45a.39.39,0,0,1-.44.31Z"/><path class="cls-1" d="M5.43,23.24H1.1a.32.32,0,0,1-.32-.45,2.69,2.69,0,0,1,3.53-1.7,2.59,2.59,0,0,1,1.2,1.6A.48.48,0,0,1,5.43,23.24Z"/><path class="cls-2" d="M3.35,17.8A1.18,1.18,0,1,1,2.17,19,1.18,1.18,0,0,1,3.35,17.8Z"/><path class="cls-3" d="M5.43,23.24a1.32,1.32,0,0,0-.22-1.12,3.65,3.65,0,0,0-.9-1,2.6,2.6,0,0,1,1.62,1.69C6,23.09,5.84,23.26,5.43,23.24Z"/><path class="cls-4" d="M5.43,6.19H1.15C.82,6.2.68,6,.79,5.7A2.69,2.69,0,0,1,4.36,4.07,2.73,2.73,0,0,1,5.49,5.55.58.58,0,0,1,5.43,6.19Z"/><path class="cls-2" d="M3.35.75A1.19,1.19,0,1,1,2.17,1.94,1.19,1.19,0,0,1,3.35.75Z"/><path class="cls-5" d="M5.43,6.19c.18-.58-.16-1-.43-1.44a4.13,4.13,0,0,0-.64-.68,2.58,2.58,0,0,1,1.58,1.7C6,6.05,5.82,6.22,5.43,6.19Z"/><path class="cls-6" d="M5.43,14.71H1.08a.32.32,0,0,1-.31-.43A2.7,2.7,0,0,1,4.36,12.6a2.64,2.64,0,0,1,1.16,1.61A.45.45,0,0,1,5.43,14.71Z"/><path class="cls-2" d="M3.36,11.64a1.19,1.19,0,0,1-1.19-1.19A1.17,1.17,0,0,1,3.35,9.28a1.18,1.18,0,1,1,0,2.36Z"/><path class="cls-7" d="M5.43,14.71a1.21,1.21,0,0,0-.17-1,3.76,3.76,0,0,0-.9-1.08,2.56,2.56,0,0,1,1.58,1.69C6,14.58,5.83,14.74,5.43,14.71Z"/></g></g></svg>