<svg xmlns="http://www.w3.org/2000/svg" viewBox="0 0 23.87 24"><defs><style>.cls-1{fill:#99e6fc;}.cls-2{fill:#c8effe;}.cls-3{fill:#8e8a80;}.cls-4{fill:#706c64;}.cls-5{fill:#64dbfb;}.cls-6{fill:#63d9f9;}.cls-7{fill:#64dbfa;}.cls-8{fill:#93e5fc;}.cls-9{fill:#92e5fc;}.cls-10{fill:#63d5f4;}.cls-11{fill:#69dcfb;}.cls-12{fill:#63d0ed;}.cls-13{fill:#60ceec;}.cls-14{fill:#97e3f8;}.cls-15{fill:#45467d;}.cls-16{fill:#3b3b6a;}.cls-17{fill:#414277;}.cls-18{fill:#fdc228;}.cls-19{fill:#e94d5b;}.cls-20{fill:#fe6371;}.cls-21{fill:#2890f9;}.cls-22{fill:#43a1fe;}.cls-23{fill:#57d460;}.cls-24{fill:#6be65a;}.cls-25{fill:#fed44f;}</style></defs><g id="Layer_2" data-name="Layer 2"><g id="Layer_1-2" data-name="Layer 1"><path d="M23.87,12V22.16a1.72,1.72,0,0,1-1.2,1.77,2,2,0,0,1-.54.07H1.74A1.68,1.68,0,0,1,0,22.4a2.26,2.26,0,0,1,0-.26V1.86A1.77,1.77,0,0,1,.63.38,1.72,1.72,0,0,1,1.76,0H22.09a1.68,1.68,0,0,1,1.72,1.28,2.45,2.45,0,0,1,.06.6Z"/><path class="cls-1" d="M22.72,23.11a.83.83,0,0,1-.57.18H1.88c-.81,0-1.17-.36-1.17-1.18q0-8.86,0-17.73c0-.25.07-.29.3-.29H7.14a.56.56,0,0,1,.13.32,25.81,25.81,0,0,0,.91,3.23.45.45,0,0,1,.05.25.8.8,0,0,0-.56.44c-.11.09-.24.18-.17.35s.2.2.36.22h.37c.14,0,.25,0,.26-.2s.09-.11.17-.12H21.24a.09.09,0,0,1,.07,0,.42.42,0,0,1-.38.43,2.29,2.29,0,0,1-.37,0H9.14c-.41,0-.41,0-.24.38l.36.77c.07.16.15.25.33.15a.09.09,0,0,1,.11,0c.09.29.31.34.59.34H20.87a1.49,1.49,0,0,1,.42,0c.15.12,0,.21,0,.29a.34.34,0,0,1-.34.17,1.59,1.59,0,0,0-.38,0H10.11a2.29,2.29,0,0,1-.37,0c-.19,0-.24-.19-.32-.36a.32.32,0,0,0,.14.27s.09.06.14.08c.18.3.34.61.51.91,0,.07.1.16,0,.22a6.36,6.36,0,0,1-1.07,0,5.93,5.93,0,0,1-.73,0,.67.67,0,0,0-.67.33c-.12.11-.31.19-.23.41s.28.21.46.21h2.6a1.35,1.35,0,0,1,.35,0,.2.2,0,0,1,.08,0,5.27,5.27,0,0,1,.52.72.61.61,0,0,0,.58.3H20.9a1.82,1.82,0,0,1,.33,0c.06,0,.14,0,.11.12a.71.71,0,0,1-.43.06H10.29c-.21,0-.42,0-.55.19a1.45,1.45,0,0,1-.22.21.28.28,0,0,0,.14.48H12.3c.06-.11-.14-.21,0-.31a1,1,0,0,1,.35,0h8.25a.66.66,0,0,1,.37.05.3.3,0,0,1-.24.4,1.49,1.49,0,0,1-.42,0H13.08a.78.78,0,0,0-.36,0,3.78,3.78,0,0,0,.76.83c.11.09.27.06.41.06h7.05c.14,0,.3,0,.41.1-.09.13-.24.09-.36.09H10.69a1,1,0,0,1-.69-.24c-.66-.52-1.32-1-2-1.53l-.17-.13a.37.37,0,0,0-.41-.08.34.34,0,0,0-.13.38c0,.54.14,1.09.21,1.63a1,1,0,0,1,0,.3.62.62,0,0,0,.08.64c.14.58.17,1.17.26,1.76,0,.22,0,.43.1.65a.28.28,0,0,0,.21.25.29.29,0,0,0,.31-.12c.11-.13.21-.28.31-.41s.11-.16.21-.19.14,0,.18.12c.19.35.41.69.59,1,0,.07.12.15,0,.22a8.34,8.34,0,0,1-1.12,0H8.28a.54.54,0,0,0-.56.29c-.11.12-.31.21-.22.43s.29.17.47.17H20c-.07-.11-.25-.11-.24-.27a.2.2,0,0,1,.15-.06,11.81,11.81,0,0,1,1.33,0c.19.1.08.21,0,.3s-.36.18-.6.19c.59.3,1.16.59,1.75.84A.86.86,0,0,1,22.72,23.11Z"/><path class="cls-2" d="M8.22,7.9a17,17,0,0,1-.65-2c-.18-.6-.31-1.21-.43-1.82H22.89c.22,0,.28,0,.28.28q0,8.88,0,17.77a1,1,0,0,1-.44,1,3.61,3.61,0,0,1-.84-.34c-.47-.22-.94-.46-1.4-.71.32-.06.71.05.82-.41,0-.07.08-.11.12-.17a.27.27,0,0,0-.19-.46H18.88a1.06,1.06,0,0,1-.35,0c-.46-.27-.88-.59-1.31-.9-.07,0-.17-.11-.15-.2s.15-.09.24-.09h3.22a1.64,1.64,0,0,0,.44,0,.51.51,0,0,0,.27-.25l.1-.1c.28-.25.24-.46-.12-.59a1.22,1.22,0,0,0-.33,0c-1.65,0-3.3,0-5,0a.74.74,0,0,1-.56-.22c-.25-.24-.51-.45-.74-.7-.05-.06-.14-.13-.1-.22s.15-.08.23-.08h5.93a.57.57,0,0,0,.54-.22.1.1,0,0,1,0-.05c.32-.33.32-.33.07-.71-.08-.07-.18,0-.27,0-2.4,0-4.79,0-7.19,0a.84.84,0,0,1-.74-.33c-.17-.21-.35-.41-.52-.61a.24.24,0,0,1,0-.1c0-.06.07,0,.12,0h8.13c.26,0,.43-.08.48-.35,0,0,0-.05,0-.07.24-.22.25-.33,0-.57a.21.21,0,0,1,0-.06c-.08-.07-.18,0-.27,0H11.93a.44.44,0,0,1-.42-.22c-.18-.29-.4-.56-.56-.86.11-.1.25-.07.38-.07H20.9c.22,0,.28-.18.39-.31l.08-.08a.29.29,0,0,0,.1-.36.33.33,0,0,0-.31-.18H10.67a.65.65,0,0,1-.43-.07,8.61,8.61,0,0,1-.56-1.09.44.44,0,0,1,.23,0H20.74a.46.46,0,0,1,.23,0c.22,0,.26-.23.37-.37a.31.31,0,0,1,.05-.1c.19-.31.09-.51-.28-.53H10.48a1.13,1.13,0,0,0-.81.22l-.06.07c-.26.16-.26.16-.39-.13s-.34-.77-.52-1.15C8.63,9,8.68,9,8.81,9h12c.32,0,.43-.07.54-.37,0,0,0,0,0,0s.23-.24.15-.41S21.19,8,21,8H8.64C8.5,8,8.34,8,8.22,7.9Z"/><path class="cls-3" d="M6.67.72H22a1,1,0,0,1,1.16,1.17c0,.44,0,.88,0,1.32,0,.15-.05.21-.2.19H7a.38.38,0,0,1-.11-.23A17.28,17.28,0,0,1,6.64.87.16.16,0,0,1,6.67.72Z"/><path class="cls-4" d="M6.67.72a2.73,2.73,0,0,1,.07.76c.07.63.16,1.27.26,1.9H.89c-.08,0-.19,0-.19-.11a17.17,17.17,0,0,1,0-1.76.92.92,0,0,1,.9-.81Z"/><path d="M18.52,20.93h2.63c.21,0,.38,0,.44.27s-.08.37-.29.44H19.75a.58.58,0,0,1-.41.07H11.42a1.37,1.37,0,0,0-.57.09.48.48,0,0,1-.42,0,1.28,1.28,0,0,0-.55-.09H8.26a.85.85,0,0,1-.32,0,.32.32,0,0,1-.24-.41.4.4,0,0,1,.46-.33H9.81c0-.15-.08-.25-.15-.37l-.49-.84c0-.06,0-.16-.16-.1l-.45.59a.36.36,0,0,1-.4.18A.36.36,0,0,1,7.88,20l-.33-2.39a1,1,0,0,1-.08-.57c-.08-.67-.16-1.34-.25-2,0-.19,0-.35.16-.45a.41.41,0,0,1,.48.08l2.31,1.78a.5.5,0,0,0,.34.12H21.34a.36.36,0,0,1,.26.37c0,.2-.15.28-.3.34a.38.38,0,0,1-.27.08H11.47c.13.11.24.18.34.26s.31.29.24.52a.47.47,0,0,1-.46.34,6.59,6.59,0,0,0-.68.1.4.4,0,0,0,.33.09c1.29,0,2.59,0,3.88,0,2,.08,4,0,6.06,0a.2.2,0,0,1,.11,0,.35.35,0,0,1,.31.33.37.37,0,0,1-.3.38.46.46,0,0,1-.34.08c-1.45,0-2.9,0-4.34,0H11.7c-.27,0-.27,0-.14.23s.36.61.5.93a.24.24,0,0,0,.22.14h5.81A1,1,0,0,1,18.52,20.93Z"/><path d="M8.22,7.9H21.15c.21,0,.38,0,.43.27a.33.33,0,0,1-.28.44h-.05a.89.89,0,0,1-.28,0H8.79a4.28,4.28,0,0,1-.72,0c-.27,0-.39-.16-.37-.4S7.84,7.93,8.22,7.9Z"/><path d="M10.24,12.24l.28,0H21.19c.19,0,.35.06.39.26a.33.33,0,0,1-.25.43.82.82,0,0,1-.41.06H13.16c-1.61,0-3.22,0-4.84,0A1.4,1.4,0,0,1,8,13a.33.33,0,0,1-.27-.39c.08-.29.16-.35.46-.35Z"/><path d="M21.34,14.44a.35.35,0,0,1,.26.37c0,.19-.15.27-.3.33h-9a.4.4,0,0,1-.28.08H10.22a.83.83,0,0,1-.35-.06.34.34,0,0,1-.21-.43c.06-.27.25-.31.48-.31h11.2Z"/><path d="M9.67,10.36a.41.41,0,0,1,.44-.28H21.16c.19,0,.36.05.42.26a.34.34,0,0,1-.24.44H10.11C9.78,10.79,9.68,10.69,9.67,10.36Z"/><path d="M4.17,9.75H5.25a.64.64,0,0,1,.69.67c0,.73,0,1.47,0,2.21a.62.62,0,0,1-.69.66q-1.08,0-2.16,0a.62.62,0,0,1-.69-.68c0-.72,0-1.45,0-2.17a.65.65,0,0,1,.72-.69Z"/><path d="M4.17,14.1H5.25a.63.63,0,0,1,.69.68c0,.72,0,1.45,0,2.17a.64.64,0,0,1-.71.69H3.12a.65.65,0,0,1-.72-.72V14.81a.64.64,0,0,1,.72-.71Z"/><path d="M4.17,18.44h1.1a.62.62,0,0,1,.67.64q0,1.13,0,2.25a.63.63,0,0,1-.68.65H3.07a.61.61,0,0,1-.66-.62c0-.76,0-1.53,0-2.3a.62.62,0,0,1,.68-.62Z"/><path d="M2.44,8.55A23.73,23.73,0,0,1,2.41,6a.62.62,0,0,1,.67-.61H5.27a.63.63,0,0,1,.67.64q0,1.14,0,2.28a.6.6,0,0,1-.63.61H2.86A.48.48,0,0,1,2.44,8.55Z"/><path class="cls-5" d="M7.7,21.27c.07.31.16.38.47.38H10a.68.68,0,0,1,.51.11.29.29,0,0,0,.35,0,.63.63,0,0,1,.4-.09h8.51l.53.33H7.84a.4.4,0,0,1-.33-.08C7.28,21.69,7.35,21.45,7.7,21.27Z"/><path class="cls-6" d="M7.7,12.61c.09.31.16.35.52.35H21.33l0,0a.8.8,0,0,1-.46.07H11c-.13,0-.13.08-.1.17a.14.14,0,0,1,0,.09H7.8c-.24,0-.41-.14-.42-.34S7.5,12.66,7.7,12.61Z"/><path class="cls-7" d="M7.7,8.28c.1.3.16.34.5.34H21.25c-.09.07-.19,0-.28,0H8.81c-.14,0-.36-.07-.23.23,0,.08-.05.1-.12.1C8.24,9,8,9,7.78,9a.4.4,0,0,1-.4-.36A.33.33,0,0,1,7.7,8.28Z"/><path class="cls-5" d="M9.66,14.74c0,.3.14.39.47.4h2.13l.23.33H9.87c-.22,0-.44,0-.51-.26S9.46,14.84,9.66,14.74Z"/><path class="cls-8" d="M21,11.15H9.68s-.11,0-.14,0a.06.06,0,0,1,.09,0h11C20.77,11.11,20.88,11.07,21,11.15Z"/><path class="cls-9" d="M10.9,13.32v-.05c.09-.09.2-.07.31-.07H20.7c.11,0,.25,0,.32.12H10.9Z"/><path class="cls-10" d="M9,19.62c0-.09.07-.15.15,0,.23.42.47.84.72,1.25,0,.09,0,.11-.07.09-.21-.37-.43-.74-.65-1.11C9.12,19.74,9.1,19.65,9,19.62Z"/><path class="cls-11" d="M9.63,11.11H9.54c-.2-.16-.2-.16-.18-.45A1.5,1.5,0,0,1,9.63,11.11Z"/><path class="cls-12" d="M7.47,17.08a2.18,2.18,0,0,1,.08.57C7.42,17.47,7.29,17.3,7.47,17.08Z"/><path class="cls-13" d="M2.44,8.55a.93.93,0,0,0,.42.39C2.53,8.94,2.44,8.86,2.44,8.55Z"/><path class="cls-1" d="M16.59,19.49H21.3c-.1.3-.21.38-.59.38H17.33a.38.38,0,0,0-.25,0l1.44,1H12.24c-.13,0-.18,0-.24-.17a7.3,7.3,0,0,0-.47-.87.2.2,0,0,1,0-.08c.11-.11.25-.08.38-.08h4.86C16.69,19.65,16.57,19.6,16.59,19.49Z"/><path d="M9.67,6a.41.41,0,0,1,.45-.29h11c.2,0,.38,0,.43.27s-.08.37-.29.44a.45.45,0,0,1-.32.07c-3.6,0-7.2,0-10.81,0a1.06,1.06,0,0,1-.25,0A.35.35,0,0,1,9.67,6Z"/><path class="cls-1" d="M14.19,17.32H21.3c-.05.26-.21.34-.46.34h-6.3a3.77,3.77,0,0,0,.51.54c.16.16.34.31.51.47s.19.07.29.07H21c.09,0,.19,0,.27,0H11.09c-.17,0-.28,0-.32-.23a5.52,5.52,0,0,1,.71-.1c.21,0,.42,0,.51-.26s-.09-.37-.24-.5c.06-.15.19-.11.3-.11h2a.46.46,0,0,0,.23,0C14.27,17.47,14.16,17.41,14.19,17.32Z"/><path class="cls-1" d="M9.67,6c0,.32.12.42.46.42H21.3a.46.46,0,0,1-.52.37H9.86a.92.92,0,0,1-.28,0,.35.35,0,0,1-.25-.31.32.32,0,0,1,.14-.32A1.37,1.37,0,0,1,9.67,6Z"/><path class="cls-14" d="M21,13.32c-.09-.09-.2-.05-.3-.05H10.9L10.73,13H21.3C21.23,13.13,21.18,13.27,21,13.32Z"/><path d="M16.92,2.4H13a.87.87,0,0,1-.23,0,.33.33,0,0,1-.29-.34.34.34,0,0,1,.29-.35,1.2,1.2,0,0,1,.19,0h8a.86.86,0,0,1,.16,0,.34.34,0,0,1,.31.34.35.35,0,0,1-.31.36,1.47,1.47,0,0,1-.21,0Z"/><path d="M8,2.4c-.13,0-.25,0-.38,0A.34.34,0,0,1,7.25,2a.34.34,0,0,1,.33-.34c.25,0,.51,0,.77,0A.34.34,0,0,1,8.68,2a.34.34,0,0,1-.33.36C8.22,2.41,8.08,2.4,8,2.4Z"/><path d="M5.49,2.4c-.12,0-.25,0-.37,0A.34.34,0,0,1,4.8,2a.33.33,0,0,1,.32-.34,7.12,7.12,0,0,1,.8,0,.33.33,0,0,1,.31.35.33.33,0,0,1-.32.35C5.77,2.41,5.63,2.4,5.49,2.4Z"/><path d="M3.06,2.4c-.13,0-.25,0-.38,0A.37.37,0,0,1,2.35,2a.34.34,0,0,1,.33-.34q.39,0,.78,0a.35.35,0,0,1,.33.36.35.35,0,0,1-.33.34C3.33,2.41,3.19,2.4,3.06,2.4Z"/><path class="cls-15" d="M8.45,18.87c-.07-.55-.15-1.1-.23-1.64s-.12-1-.19-1.5l2.71,2.08c-.2,0-.34.06-.48.07-.34,0-.44.13-.44.47,0,0,0,.09,0,.11s-.21-.3-.32-.45-.14-.2-.28,0l-.54.73C8.6,18.8,8.57,18.9,8.45,18.87Z"/><path class="cls-5" d="M16.59,19.49c.08.13.25.17.35.33H11.49l-.18-.29,0,0Z"/><path class="cls-16" d="M8.45,18.87a9.39,9.39,0,0,0,.76-1c.1-.13.16-.15.25,0l.31.57c.19.11.24.32.34.49l.71,1.22s0,.07.08.08a2.46,2.46,0,0,0,.17.27c.15.18.06.25-.1.35s-.24.07-.33-.1c-.38-.68-.78-1.36-1.17-2a.36.36,0,0,0-.65-.06c-.11.13-.21.28-.33.43A.51.51,0,0,1,8.45,18.87Z"/><path class="cls-5" d="M14.19,17.32l.29.33H12c-.08,0-.17,0-.24,0l-.51-.37Z"/><path class="cls-17" d="M10.9,20.24c-.12.08-.11,0-.13-.09l-1-1.7a.1.1,0,0,0,.05-.1Z"/><path class="cls-18" d="M5.21,10.49a6.14,6.14,0,0,1,0,1c0,.3,0,.6,0,.89,0,.11,0,.16-.14.16H3.26c-.13,0-.16-.05-.16-.17,0-.6,0-1.21,0-1.81,0-.09,0-.16.12-.15H5.18l0,0c-.09.09-.2.07-.31.08H4c-.17,0-.24.07-.23.24s0,.47,0,.7.11.34.35.36.57,0,.86,0,.19-.08.19-.21c0-.29,0-.58,0-.87A.42.42,0,0,1,5.21,10.49Z"/><path class="cls-19" d="M5.21,14.83c.07.06,0,.14,0,.22,0,.55,0,1.11,0,1.66,0,.17,0,.23-.22.23q-.86,0-1.71,0c-.18,0-.22-.06-.22-.23,0-.56,0-1.12,0-1.69,0-.18.06-.24.23-.22s.22,0,.32,0a.49.49,0,0,1,.08.33c0,.23,0,.46,0,.69s.11.35.36.37h.82c.16,0,.23-.07.23-.22s0-.57,0-.85A.42.42,0,0,1,5.21,14.83Z"/><path class="cls-20" d="M5.21,14.83c0,.42,0,.84,0,1.27,0,.14,0,.19-.19.18h-1a.35.35,0,0,1-.4-.4c0-.36,0-.71,0-1.06A13.53,13.53,0,0,1,5.21,14.83Z"/><path class="cls-21" d="M5.21,19.16s0,.09,0,.13V21.1c0,.13,0,.18-.16.17H3.27c-.14,0-.17-.05-.17-.17,0-.59,0-1.18,0-1.76,0-.14,0-.21.18-.2s.25,0,.38,0a.47.47,0,0,1,.07.29c0,.24,0,.48,0,.72s.09.36.35.37H4.9c.18,0,.24-.08.24-.24s0-.57,0-.85A.39.39,0,0,1,5.21,19.16Z"/><path class="cls-22" d="M5.21,19.16c0,.42,0,.83,0,1.25,0,.15,0,.21-.2.2-.34,0-.67,0-1,0s-.34-.11-.34-.35,0-.73,0-1.1C4.17,19.15,4.69,19.13,5.21,19.16Z"/><path class="cls-23" d="M5.21,6.13c.06,0,0,.12,0,.17,0,.58,0,1.16,0,1.74,0,.14,0,.21-.2.21H3.29c-.16,0-.19-.06-.19-.21,0-.58,0-1.16,0-1.73,0-.14,0-.21.18-.19h.38c.08.09.06.2.07.31s0,.5,0,.75.09.31.32.31H4.9c.17,0,.24-.08.24-.24s0-.57,0-.85A.38.38,0,0,1,5.21,6.13Z"/><path class="cls-24" d="M5.21,6.13c0,.42,0,.83,0,1.25,0,.15,0,.2-.2.2H4c-.24,0-.34-.1-.34-.35s0-.73,0-1.1Z"/><path class="cls-25" d="M5.21,10.49c0,.41,0,.83,0,1.24,0,.16,0,.23-.21.23s-.59,0-.89,0-.45-.13-.45-.45,0-.51,0-.76.05-.26.25-.25Z"/></g></g></svg>