<svg xmlns="http://www.w3.org/2000/svg" viewBox="0 0 24 23.5"><defs><style>.cls-1{fill:#fefefe;}.cls-2{fill:#010101;}.cls-3{fill:#020202;}</style></defs><g id="Layer_2" data-name="Layer 2"><g id="Layer_1-2" data-name="Layer 1"><path d="M1.5,5.8a.41.41,0,0,1,.32-.44.54.54,0,0,1,.68.25c.08.27-.08.58-.51.54S1.53,6,1.5,5.8Z"/><path d="M5.71,4.05c0,.26-.16.4-.49.41H2c-.3,0-.47-.15-.48-.39s.18-.41.49-.41H5.23C5.53,3.66,5.71,3.8,5.71,4.05Z"/><path d="M3.35,6.15c-.27,0-.45-.16-.45-.4a.4.4,0,0,1,.44-.4H5.26c.28,0,.45.15.45.39s-.16.4-.46.41Z"/><path d="M1.5,7.43C1.5,7.19,1.68,7,2,7H5.25c.3,0,.46.15.46.4s-.17.4-.47.4H2C1.68,7.84,1.5,7.68,1.5,7.43Z"/><path d="M5.7,9.22c-.07.25-.26.31-.49.31H2.06a.83.83,0,0,1-.27,0,.36.36,0,0,1-.28-.41.36.36,0,0,1,.33-.35h3.4C5.58,8.73,5.78,9,5.7,9.22Z"/><path d="M5.71,16v4.6c0,.34-.14.49-.48.49H2a.42.42,0,0,1-.48-.48V16A.42.42,0,0,1,2,15.51H5.22C5.57,15.51,5.71,15.66,5.71,16Z"/><path d="M8.8,5.45a.68.68,0,0,0-.7,0,.35.35,0,0,0-.16.43c.06.24.25.31.48.3a.44.44,0,0,0,.49-.25A.37.37,0,0,0,8.8,5.45Zm2.83,3.28H8.38A.42.42,0,0,0,8,9c-.13.29.08.56.45.56h3.23c.32,0,.5-.16.5-.4S12,8.73,11.63,8.73Zm0-1.69H8.38a.42.42,0,0,0-.47.4.43.43,0,0,0,.48.4h3.27c.29,0,.47-.16.47-.41S12,7,11.65,7Zm0-3.38H8.41c-.31,0-.5.17-.5.41s.19.38.49.39h3.24c.31,0,.49-.16.49-.41S12,3.66,11.65,3.66Zm0,1.69H9.77a.42.42,0,0,0-.46.41.43.43,0,0,0,.46.39h1.9c.28,0,.45-.16.46-.39A.41.41,0,0,0,11.67,5.35ZM11.6,15.51H8.45c-.4,0-.54.14-.54.55v4.47c0,.43.13.56.55.56h3.13c.41,0,.54-.13.54-.56V16.06C12.13,15.65,12,15.51,11.6,15.51Zm0,0H8.45c-.4,0-.54.14-.54.55v4.47c0,.43.13.56.55.56h3.13c.41,0,.54-.13.54-.56V16.06C12.13,15.65,12,15.51,11.6,15.51ZM9.77,5.35a.42.42,0,0,0-.46.41.43.43,0,0,0,.46.39h1.9c.28,0,.45-.16.46-.39a.41.41,0,0,0-.46-.41ZM8.4,4.46h3.24c.31,0,.49-.16.49-.41s-.18-.39-.48-.39H8.41c-.31,0-.5.17-.5.41S8.1,4.45,8.4,4.46Zm0,3.38h3.27c.29,0,.47-.16.47-.41S12,7,11.65,7H8.38a.42.42,0,0,0-.47.4A.43.43,0,0,0,8.39,7.84Zm3.24.89H8.38A.42.42,0,0,0,8,9c-.13.29.08.56.45.56h3.23c.32,0,.5-.16.5-.4S12,8.73,11.63,8.73ZM8.1,5.42a.35.35,0,0,0-.16.43c.06.24.25.31.48.3a.44.44,0,0,0,.49-.25.37.37,0,0,0-.11-.45A.68.68,0,0,0,8.1,5.42ZM24,21.82c-.07-.44-.15-.88-.22-1.31q-.65-3.65-1.27-7.3c-.43-2.44-.86-4.89-1.28-7.33q-.48-2.74-1-5.51A.4.4,0,0,0,19.73,0l-3,.52L13.85,1c-.09,0-.2.09-.27,0A.46.46,0,0,0,13.1.77H.55C.12.77,0,.9,0,1.33V23c0,.42.13.55.56.55H13.11a.48.48,0,0,0,.47-.21.86.86,0,0,0,.06-.42V4.77h0c.06.33.12.64.17,1l1.23,7c.42,2.44.85,4.89,1.28,7.33l.51,3c.06.34.23.48.52.42q3.11-.53,6.2-1.08C23.94,22.34,24.05,22.17,24,21.82Zm-17.56.62c0,.2,0,.26-.25.26H1c-.19,0-.24,0-.24-.24V1.82c0-.22.06-.25.26-.25q2.54,0,5.07,0c.22,0,.29,0,.29.28q0,5.15,0,10.29T6.42,22.44Zm6.42,0c0,.19,0,.25-.25.25H7.47c-.2,0-.26,0-.26-.25V1.85c0-.21,0-.28.27-.28q2.55,0,5.1,0c.21,0,.26.05.26.26Q12.83,12.14,12.84,22.45ZM23,21.7l-3.44.6-1.7.3c-.17,0-.24,0-.27-.19-.21-1.27-.44-2.55-.66-3.83-.43-2.44-.85-4.89-1.28-7.33s-.82-4.69-1.22-7L14,2c0-.15,0-.21.16-.24l5-.88c.19,0,.3-.06.35.21q1.07,6.24,2.17,12.49.69,3.9,1.36,7.79c0,.06,0,.11,0,.15S23.06,21.68,23,21.7Zm-1.67-6.43c-.07-.43-.22-.54-.64-.46l-3.13.55c-.32.05-.43.21-.39.54l.15.88c.22,1.23.44,2.46.65,3.69,0,.24.16.38.39.39h.11l3.3-.57c.29-.06.4-.24.34-.56C21.83,18.24,21.58,16.75,21.31,15.27Zm-1.2-6.86c-.05-.25-.25-.35-.57-.3l-1.35.24-1.89.34a.38.38,0,0,0-.33.42.4.4,0,0,0,.4.36l.28,0,3-.54C20,8.84,20.16,8.67,20.11,8.41Zm-3.84-.63,2.14-.37,1.05-.18a.42.42,0,0,0,.38-.45c0-.24-.22-.36-.49-.34l-.2,0-1.62.28L16.06,7a.42.42,0,0,0-.38.45.4.4,0,0,0,.43.36Zm2.38-2.94-1.5.26a.42.42,0,0,0-.38.45c0,.21.19.35.48.35l2-.36a.38.38,0,0,0,.27-.44.39.39,0,0,0-.43-.33Zm-2.59-.45,2.83-.49a.4.4,0,1,0-.1-.79,4.34,4.34,0,0,0-.52.09l-2.82.49a.4.4,0,1,0,.14.78Zm.35,1.31A.41.41,0,0,0,16,5.31c-.38,0-.61.16-.61.44a.39.39,0,0,0,.42.39C16.18,6.14,16.42,6,16.41,5.7ZM11.6,15.51H8.45c-.4,0-.54.14-.54.55v4.47c0,.43.13.56.55.56h3.13c.41,0,.54-.13.54-.56V16.06C12.13,15.65,12,15.51,11.6,15.51ZM9.77,5.35a.42.42,0,0,0-.46.41.43.43,0,0,0,.46.39h1.9c.28,0,.45-.16.46-.39a.41.41,0,0,0-.46-.41ZM8.4,4.46h3.24c.31,0,.49-.16.49-.41s-.18-.39-.48-.39H8.41c-.31,0-.5.17-.5.41S8.1,4.45,8.4,4.46Zm0,3.38h3.27c.29,0,.47-.16.47-.41S12,7,11.65,7H8.38a.42.42,0,0,0-.47.4A.43.43,0,0,0,8.39,7.84Zm3.24.89H8.38A.42.42,0,0,0,8,9c-.13.29.08.56.45.56h3.23c.32,0,.5-.16.5-.4S12,8.73,11.63,8.73ZM8.1,5.42a.35.35,0,0,0-.16.43c.06.24.25.31.48.3a.44.44,0,0,0,.49-.25.37.37,0,0,0-.11-.45A.68.68,0,0,0,8.1,5.42Z"/><path class="cls-1" d="M8.8,5.45a.37.37,0,0,1,.11.45.44.44,0,0,1-.49.25c-.23,0-.42-.06-.48-.3a.35.35,0,0,1,.16-.43A.68.68,0,0,1,8.8,5.45Z"/><path class="cls-1" d="M12.13,9.13c0,.24-.18.4-.5.4H8.4C8,9.53,7.82,9.26,8,9a.42.42,0,0,1,.43-.24h3.25C12,8.73,12.13,8.88,12.13,9.13Z"/><path class="cls-1" d="M7.91,7.44A.42.42,0,0,1,8.38,7h3.27c.3,0,.47.15.48.39s-.18.41-.47.41H8.39A.43.43,0,0,1,7.91,7.44Z"/><path class="cls-1" d="M7.91,4.07c0-.24.19-.41.5-.41h3.24c.3,0,.47.15.48.39s-.18.4-.49.41H8.4C8.1,4.45,7.92,4.31,7.91,4.07Z"/><path class="cls-1" d="M11.67,5.35a.41.41,0,0,1,.46.41c0,.23-.18.38-.46.39H9.77a.43.43,0,0,1-.46-.39.42.42,0,0,1,.46-.41Z"/><path class="cls-1" d="M12.13,16.06v4.47c0,.43-.13.56-.54.56H8.46c-.42,0-.55-.13-.55-.56V16.06c0-.41.14-.55.54-.55H11.6C12,15.51,12.13,15.65,12.13,16.06Z"/><path class="cls-1" d="M15.81,6.14a.39.39,0,0,1-.42-.39c0-.28.23-.45.61-.44a.41.41,0,0,1,.41.39C16.42,6,16.18,6.14,15.81,6.14Z"/><path class="cls-1" d="M15.59,4.47a.4.4,0,1,1-.14-.78l2.82-.49a4.34,4.34,0,0,1,.52-.09.4.4,0,1,1,.1.79l-2.83.49Z"/><path class="cls-1" d="M19.11,4.77a.39.39,0,0,1,.43.33.38.38,0,0,1-.27.44l-2,.36c-.29,0-.45-.14-.48-.35a.42.42,0,0,1,.38-.45l1.5-.26Z"/><path class="cls-1" d="M16.11,7.81a.4.4,0,0,1-.43-.36A.42.42,0,0,1,16.06,7l1.47-.25,1.62-.28.2,0c.27,0,.46.1.49.34a.42.42,0,0,1-.38.45l-1.05.18-2.14.37Z"/><path class="cls-1" d="M19.69,8.9l-3,.54-.28,0a.4.4,0,0,1-.4-.36.38.38,0,0,1,.33-.42l1.89-.34,1.35-.24c.32,0,.52.05.57.3S20,8.84,19.69,8.9Z"/><path class="cls-1" d="M21.75,20.28l-3.3.57h-.11c-.23,0-.35-.15-.39-.39-.21-1.23-.43-2.46-.65-3.69l-.15-.88c0-.33.07-.49.39-.54l3.13-.55c.42-.08.57,0,.64.46.27,1.48.52,3,.78,4.45C22.15,20,22,20.22,21.75,20.28Z"/><path class="cls-1" d="M1.5,5.8a.41.41,0,0,1,.32-.44.54.54,0,0,1,.68.25c.08.27-.08.58-.51.54S1.53,6,1.5,5.8Z"/><path class="cls-1" d="M1.5,4.07c0-.25.18-.41.49-.41H5.23c.3,0,.48.14.48.39s-.16.4-.49.41H2C1.68,4.45,1.51,4.31,1.5,4.07Z"/><path class="cls-1" d="M5.71,5.74c0,.25-.16.4-.46.41H3.35c-.27,0-.45-.16-.45-.4a.4.4,0,0,1,.44-.4H5.26C5.54,5.35,5.71,5.5,5.71,5.74Z"/><path class="cls-1" d="M1.5,7.43C1.5,7.19,1.68,7,2,7H5.25c.3,0,.46.15.46.4s-.17.4-.47.4H2C1.68,7.84,1.5,7.68,1.5,7.43Z"/><path class="cls-1" d="M5.7,9.22c-.07.25-.26.31-.49.31H2.06a.83.83,0,0,1-.27,0,.36.36,0,0,1-.28-.41.36.36,0,0,1,.33-.35h3.4C5.58,8.73,5.78,9,5.7,9.22Z"/><path class="cls-1" d="M5.71,16v4.6c0,.34-.14.49-.48.49H2a.42.42,0,0,1-.48-.48V16A.42.42,0,0,1,2,15.51H5.22C5.57,15.51,5.71,15.66,5.71,16Z"/><path d="M12.13,16.06v4.47c0,.43-.13.56-.54.56H8.46c-.42,0-.55-.13-.55-.56V16.06c0-.41.14-.55.54-.55H11.6C12,15.51,12.13,15.65,12.13,16.06Z"/><path class="cls-2" d="M12.13,4.05c0,.25-.18.4-.49.41H8.4c-.3,0-.48-.15-.49-.39s.19-.41.5-.41h3.24C12,3.66,12.12,3.81,12.13,4.05Z"/><path d="M12.13,7.43c0,.25-.18.41-.47.41H8.39a.43.43,0,0,1-.48-.4A.42.42,0,0,1,8.38,7h3.27C12,7,12.12,7.19,12.13,7.43Z"/><path class="cls-2" d="M12.13,9.13c0,.24-.18.4-.5.4H8.4C8,9.53,7.82,9.26,8,9a.42.42,0,0,1,.43-.24h3.25C12,8.73,12.13,8.88,12.13,9.13Z"/><path d="M12.13,5.76c0,.23-.18.38-.46.39H9.77a.43.43,0,0,1-.46-.39.42.42,0,0,1,.46-.41h1.9A.41.41,0,0,1,12.13,5.76Z"/><path class="cls-3" d="M8.91,5.9a.44.44,0,0,1-.49.25c-.23,0-.42-.06-.48-.3a.35.35,0,0,1,.16-.43.68.68,0,0,1,.7,0A.37.37,0,0,1,8.91,5.9Z"/><path d="M21.75,20.28l-3.3.57h-.11c-.23,0-.35-.15-.39-.39-.21-1.23-.43-2.46-.65-3.69l-.15-.88c0-.33.07-.49.39-.54l3.13-.55c.42-.08.57,0,.64.46.27,1.48.52,3,.78,4.45C22.15,20,22,20.22,21.75,20.28Z"/><path d="M19.26,3.54a.41.41,0,0,1-.37.36l-2.83.49-.47.08a.4.4,0,1,1-.14-.78l2.82-.49a4.34,4.34,0,0,1,.52-.09A.4.4,0,0,1,19.26,3.54Z"/><path d="M19.84,6.78a.42.42,0,0,1-.38.45l-1.05.18-2.14.37-.16,0a.4.4,0,0,1-.43-.36A.42.42,0,0,1,16.06,7l1.47-.25,1.62-.28.2,0C19.62,6.42,19.81,6.54,19.84,6.78Z"/><path d="M19.69,8.9l-3,.54-.28,0a.4.4,0,0,1-.4-.36.38.38,0,0,1,.33-.42l1.89-.34,1.35-.24c.32,0,.52.05.57.3S20,8.84,19.69,8.9Z"/><path d="M19.27,5.54l-2,.36c-.29,0-.45-.14-.48-.35a.42.42,0,0,1,.38-.45l1.5-.26.46-.07a.39.39,0,0,1,.43.33A.38.38,0,0,1,19.27,5.54Z"/><path class="cls-2" d="M16.41,5.7c0,.27-.23.44-.6.44a.39.39,0,0,1-.42-.39c0-.28.23-.45.61-.44A.41.41,0,0,1,16.41,5.7Z"/><path d="M5.71,16v4.6c0,.34-.14.49-.48.49H2a.42.42,0,0,1-.48-.48V16A.42.42,0,0,1,2,15.51H5.22C5.57,15.51,5.71,15.66,5.71,16Z"/><path d="M5.71,7.44c0,.25-.17.4-.47.4H2c-.29,0-.47-.16-.47-.41S1.68,7,2,7H5.25C5.55,7,5.71,7.19,5.71,7.44Z"/><path class="cls-2" d="M5.71,4.05c0,.26-.16.4-.49.41H2c-.3,0-.47-.15-.48-.39s.18-.41.49-.41H5.23C5.53,3.66,5.71,3.8,5.71,4.05Z"/><path class="cls-2" d="M5.7,9.22c-.07.25-.26.31-.49.31H2.06a.83.83,0,0,1-.27,0,.36.36,0,0,1-.28-.41.36.36,0,0,1,.33-.35h3.4C5.58,8.73,5.78,9,5.7,9.22Z"/><path d="M5.71,5.74c0,.25-.16.4-.46.41H3.35c-.27,0-.45-.16-.45-.4a.4.4,0,0,1,.44-.4H5.26C5.54,5.35,5.71,5.5,5.71,5.74Z"/><path class="cls-2" d="M2,6.15c-.28,0-.46-.12-.49-.35a.41.41,0,0,1,.32-.44.54.54,0,0,1,.68.25C2.58,5.88,2.42,6.19,2,6.15Z"/></g></g></svg>