<svg xmlns="http://www.w3.org/2000/svg" viewBox="0 0 23.95 24"><defs><style>.cls-1{fill:#fefefe;}.cls-2{fill:#494a47;}.cls-3{fill:#f7ad46;}.cls-4{fill:#68bfdf;}.cls-5{fill:#fecdbe;}.cls-6{fill:#ccccc5;}.cls-7{fill:#333331;}.cls-8{fill:#feaf9d;}.cls-9{fill:#979797;}.cls-10{fill:#e79431;}.cls-11{fill:#3281a0;}.cls-12{fill:#3282a0;}.cls-13{fill:#f6ad45;}.cls-14{fill:#fdaf9d;}.cls-15{fill:#facabb;}.cls-16{fill:#f7aa99;}.cls-17{fill:#f6aa99;}.cls-18{fill:#f5ac45;}.cls-19{fill:#020202;}.cls-20{fill:#010101;}.cls-21{fill:#030303;}.cls-22{fill:#050505;}.cls-23{fill:#4eb6a1;}.cls-24{fill:#f7d150;}.cls-25{fill:#e05f4f;}</style></defs><g id="Layer_2" data-name="Layer 2"><g id="Layer_1-2" data-name="Layer 1"><path d="M8.06,21.75a1.76,1.76,0,0,1,1.28-.87,10.66,10.66,0,0,1,1.13,0c.07,0,.19,0,.18-.09s.08-.26-.08-.33a2.74,2.74,0,0,1-1.3-1.52,4.09,4.09,0,0,1-.08-3.39,2.91,2.91,0,0,1,2.35-1.75c.17,0,.21-.08.21-.25,0-.48,0-1,0-1.44,0-.26.08-.33.34-.33h2.2c.15,0,.2,0,.2-.19s0-.55,0-.83c0-.11,0-.16-.14-.15H.44c-.4,0-.43,0-.43-.42v-9C0,.74.05.7.44.7H15.5A.92.92,0,0,0,16,.55,3.24,3.24,0,0,1,19.41.41a3.26,3.26,0,0,1,1.81,2.92c0,.53,0,1.07,0,1.6a.81.81,0,0,1-.64.85c-.07,0-.13,0-.13.12A2.65,2.65,0,0,1,19.4,8a2,2,0,0,1,1.76,1.54,1.92,1.92,0,0,1,.07.58c0,.48,0,1,0,1.42,0,.17,0,.23.22.22h2.15c.3,0,.36.05.36.36V14c0,.28-.07.34-.35.35h-.73c-.14,0-.17,0-.17.17a9.5,9.5,0,0,0,.14,1.92,3.71,3.71,0,0,1-.1,1.78,1,1,0,0,0,0,.3c0,.73,0,1.46,0,2.19,0,.15,0,.21.18.28a1.74,1.74,0,0,1,1.06,1.57c0,.37,0,.74,0,1.11q0,.32-.3.3H.48C0,24,0,24,0,23.52A5.82,5.82,0,0,1,.07,22.2a1.77,1.77,0,0,1,1.68-1.34h.9c.07,0,.18,0,.17-.08s.08-.26-.07-.34a3.62,3.62,0,0,1-1.67-3.07A3.39,3.39,0,0,1,1.19,16a3.08,3.08,0,0,1,6.05.77,4.55,4.55,0,0,1-.69,2.74,2.26,2.26,0,0,1-1,.93c-.18.07-.09.23-.09.34s.13.08.2.09h.38A2,2,0,0,1,8.06,21.75Z"/><path class="cls-1" d="M15.24,1.21a4,4,0,0,0-.69,1.45,5.8,5.8,0,0,0-.08,1.25V5a.81.81,0,0,0,.62.81c.08,0,.15,0,.15.13a2.63,2.63,0,0,0,1,2.08,3.23,3.23,0,0,0-.39.09,2,2,0,0,0-1.42,1.83c0,.14,0,.21-.2.21H1.3c-.14-.26-.05-.54-.07-.81s0-.3.1-.41a.82.82,0,0,1,.35,0H2.92c.2,0,.29-.08.29-.28,0-1,0-2,0-3,0-.24,0-.28-.3-.28H1.69a.82.82,0,0,1-.35,0A.24.24,0,0,1,1.23,5q0-.52,0-1a.25.25,0,0,1,.09-.23.7.7,0,0,1,.35,0h2c.14,0,.39.07.39-.14s-.23-.18-.39-.18c-.71,0-1.42,0-2.14,0a.28.28,0,0,1-.18,0,.27.27,0,0,1,0-.37.69.69,0,0,1,.32,0H2.92a1,1,0,0,0,.24,0c.06,0,.1,0,.11-.11s0-.11-.08-.15a.61.61,0,0,0-.3,0c-.47,0-.94,0-1.41,0a.31.31,0,0,1-.19,0,.27.27,0,0,1,0-.36,1.63,1.63,0,0,1,.58-.05c.13,0,.25,0,.38,0s.25,0,.24-.15-.13-.17-.24-.17a6.77,6.77,0,0,0-.78,0c-.08,0-.17,0-.23-.06a.32.32,0,0,1,0-.16c0-.35,0-.4.36-.4H15A.5.5,0,0,1,15.24,1.21Z"/><path class="cls-2" d="M4.14,14.21a2.6,2.6,0,0,1,2.6,2.35,3.93,3.93,0,0,1-.81,3,1.21,1.21,0,0,1-.66.47c-.54,0-1.09,0-1.64,0-.18,0-.27-.16-.37-.28a4.17,4.17,0,0,1-.91-2.21,3.46,3.46,0,0,1,.47-2.31,2.84,2.84,0,0,1,.84-.85A1.15,1.15,0,0,1,4.14,14.21Z"/><path class="cls-2" d="M11.93,14.21a2.62,2.62,0,0,1,2.65,2.56,4.08,4.08,0,0,1-.6,2.44,1.5,1.5,0,0,1-.91.8c-.53,0-1.07,0-1.6,0-.11,0-.18-.08-.26-.15a3.57,3.57,0,0,1-1-1.92,3.76,3.76,0,0,1,.26-2.51,3.13,3.13,0,0,1,1-1.1A1,1,0,0,1,11.93,14.21Z"/><path class="cls-2" d="M19.77,14.21a2.56,2.56,0,0,1,2.4,1.53.62.62,0,0,1,.06.3c0,.7.05,1.4,0,2.1A2.49,2.49,0,0,1,21.11,20a.66.66,0,0,1-.2.06c-.55,0-1.1,0-1.65,0-.19,0-.29-.18-.4-.31A4.18,4.18,0,0,1,18,17.54,3.31,3.31,0,0,1,18.64,15,1.9,1.9,0,0,1,19.77,14.21Z"/><path class="cls-3" d="M13.9,14.4h4a3,3,0,0,0-1,1.45,4.39,4.39,0,0,0,.84,4.06,1.48,1.48,0,0,0,.63.48c.2.08.14.23.13.36s-.15.09-.23.1h-.43a1.92,1.92,0,0,0-1.93.91,1.87,1.87,0,0,0-1.81-.91h-.59c-.06,0-.18,0-.18-.08s-.07-.26.07-.34a3.64,3.64,0,0,0,1.68-3.21,3.18,3.18,0,0,0-.65-2.3A4.81,4.81,0,0,0,13.9,14.4Z"/><path class="cls-3" d="M23.46,12.26c0,.51,0,1,0,1.53,0,.1,0,.12-.13.12H20.87a3.9,3.9,0,0,1-.57-.13,3.28,3.28,0,0,0-1.46.09.38.38,0,0,1-.21,0H13.29c-.27,0-.3,0-.3-.29s0-.72,0-1.09,0-.27.28-.27h10A.37.37,0,0,1,23.46,12.26Z"/><path class="cls-4" d="M9.85,21.33c1.53,0,3.05,0,4.58,0a1.3,1.3,0,0,1,1.22,1.32c0,.21,0,.43,0,.64s-.06.23-.24.23c-1.51,0-3,0-4.51,0l-1.77,0a2.11,2.11,0,0,1,.47-2.05A1.12,1.12,0,0,1,9.85,21.33Z"/><path class="cls-4" d="M17.65,21.34h4.41a1.33,1.33,0,0,1,1.41,1.4,5.08,5.08,0,0,1,0,.78.44.44,0,0,1-.23,0h-6c-.29,0-.31,0-.32-.3a5.61,5.61,0,0,1,0-.71A1.34,1.34,0,0,1,17.65,21.34Z"/><path class="cls-4" d="M2,21.34H6.4a1.32,1.32,0,0,1,1.42,1.42c0,.25,0,.5,0,.75a.36.36,0,0,1-.23,0h-6c-.3,0-.32,0-.32-.32a2.61,2.61,0,0,1,.16-1.27A1.19,1.19,0,0,1,2,21.34Z"/><path class="cls-5" d="M16.61,3.67l.44,0a4.66,4.66,0,0,0,2-.2,3.72,3.72,0,0,1,.48-.11c.21,0,.36,0,.38.27a10.13,10.13,0,0,1,0,2.75A2,2,0,0,1,17.84,8a2.1,2.1,0,0,1-1.23-1.43,2.37,2.37,0,0,1-.12-.79V4.12A.66.66,0,0,1,16.61,3.67Z"/><path class="cls-6" d="M16.6,8.54a1.24,1.24,0,0,0,1,1,1.2,1.2,0,0,0,1.23-.4,1.08,1.08,0,0,0,.28-.54c0-.13.08-.16.2-.15A1.54,1.54,0,0,1,20.75,10c0,.54,0,1.07,0,1.61,0,.12,0,.16-.16.16h-.85c-.14,0-.17-.05-.16-.18s0-.31,0-.47a.24.24,0,1,0-.47,0,4,4,0,0,0,0,.49c0,.12,0,.17-.15.17H16.73c-.12,0-.17,0-.17-.16a3.65,3.65,0,0,0,0-.47.23.23,0,0,0-.22-.26c-.16,0-.24.1-.25.25a1.45,1.45,0,0,0,0,.36c0,.24-.06.32-.29.27a.38.38,0,0,1-.07-.29c0-.49,0-1,0-1.48a1.86,1.86,0,0,1,.5-1.23A.45.45,0,0,1,16.6,8.54Z"/><path class="cls-2" d="M17.65.51A2.88,2.88,0,0,1,20.7,2.85a6.2,6.2,0,0,1,.06,1.22c0,.06,0,.16-.08.16s-.18,0-.21-.12a1.52,1.52,0,0,1,0-.21C20.38,3,20,2.79,19.21,3l-1.05.26a5,5,0,0,1-1.59-.07c-.23,0-.45-.08-.67-.12a.23.23,0,0,1-.09-.29A3.23,3.23,0,0,1,17.4.58C17.48.54,17.57.55,17.65.51Z"/><path class="cls-6" d="M1.35,2.2c-.09.11,0,.23,0,.34a.75.75,0,0,0,0,.42c-.09.1,0,.23,0,.34a.72.72,0,0,0,0,.41c-.08.09,0,.2,0,.3,0,.31,0,.63,0,.94,0,.08,0,.18.05.24a3.18,3.18,0,0,0-.08,1V7.9a3.36,3.36,0,0,0,.08,1c-.09.06-.05.16-.05.24,0,.32,0,.64,0,1H.69c-.16,0-.22,0-.21-.2,0-.46,0-.92,0-1.37q0-3.55,0-7.11c0-.21.05-.26.26-.26H15.26s0,0,0,0H5.52c-1.31,0-2.62,0-3.92,0-.24,0-.34.05-.3.3a2.53,2.53,0,0,1,0,.28A.72.72,0,0,0,1.35,2.2Z"/><path class="cls-7" d="M4.14,14.21a2.68,2.68,0,0,0-1.68,2.08,4.14,4.14,0,0,0,.74,3.28l.11.15a.66.66,0,0,0,.6.3c.45,0,.91,0,1.36,0-.07.07-.16,0-.24,0-.52,0-1,0-1.56,0a1.24,1.24,0,0,1-1.14-.58,4,4,0,0,1-.69-3.37,2.58,2.58,0,0,1,2.1-1.86A1.07,1.07,0,0,1,4.14,14.21Z"/><path class="cls-7" d="M11.93,14.21a2.87,2.87,0,0,0-1.71,2.69A4.3,4.3,0,0,0,11,19.53a.9.9,0,0,0,.9.49,11.61,11.61,0,0,1,1.18,0c-.07.07-.17,0-.25,0H11.17a1.1,1.1,0,0,1-.89-.41,3.81,3.81,0,0,1-.91-2.44,2.88,2.88,0,0,1,.48-1.9A2.54,2.54,0,0,1,11.93,14.21Z"/><path class="cls-7" d="M19.77,14.21a2.68,2.68,0,0,0-1.67,2,4,4,0,0,0,.29,2.55,3.46,3.46,0,0,0,.7,1.08.41.41,0,0,0,.33.13h1.49c-.07.07-.17,0-.25,0-.53,0-1.05,0-1.58,0a1.18,1.18,0,0,1-1-.49,3.78,3.78,0,0,1-.67-3.68,2.42,2.42,0,0,1,2-1.64A.87.87,0,0,1,19.77,14.21Z"/><path class="cls-8" d="M16.61,3.67a13.61,13.61,0,0,0,0,2.3,2.29,2.29,0,0,0,1.16,2,.87.87,0,0,1,.11.09,2.07,2.07,0,0,1-2.07-1.66,12.35,12.35,0,0,1,0-2.58c0-.2.07-.29.29-.21S16.42,3.63,16.61,3.67Z"/><path class="cls-9" d="M16.6,8.54a1.67,1.67,0,0,0-.79,1.51c0,.56,0,1.12,0,1.69H15.1c-.13,0-.16-.05-.16-.17,0-.56,0-1.13,0-1.7a1.52,1.52,0,0,1,1.5-1.41C16.51,8.47,16.58,8.44,16.6,8.54Z"/><path class="cls-7" d="M17.65.51a4.15,4.15,0,0,0-.91.64,3.45,3.45,0,0,0-.88,1.61.37.37,0,0,0,0,.29c-.38-.09-.47,0-.56.35a2,2,0,0,0-.1.64c0,.15-.1.17-.2.18S15,4.11,15,4.05a3.76,3.76,0,0,1,.3-2A2.81,2.81,0,0,1,17.65.51Z"/><path class="cls-10" d="M23.46,12.26H13.38c-.31,0-.31,0-.32.32s0,.7,0,1,0,.26.25.25h5.53a.33.33,0,0,1-.25.05H13.23c-.32,0-.61-.16-.93-.17-.08,0-.09-.07-.09-.13q0-.63,0-1.26c0-.11,0-.14.15-.14H23.2C23.29,12.22,23.39,12.18,23.46,12.26Z"/><path class="cls-11" d="M2,21.34c-.13.15-.29.29-.41.45a2.67,2.67,0,0,0-.25,1.62c0,.08.06.09.12.09H7.81c-.06.08-.14,0-.22,0-2,0-4,0-6,0l-.87,0c-.15,0-.19-.05-.19-.19s0-.41,0-.61A1.31,1.31,0,0,1,2,21.34Z"/><path class="cls-12" d="M17.65,21.34a1.8,1.8,0,0,0-.65,1,8.85,8.85,0,0,0,0,1c0,.16.12.12.21.12h6.26c-.06.07-.15,0-.22,0q-3,0-6.06,0l-.88,0c-.14,0-.17-.05-.17-.18s0-.41,0-.61A1.32,1.32,0,0,1,17.65,21.34Z"/><path class="cls-11" d="M9.85,21.33a1.68,1.68,0,0,0-.71,1.5c0,.23,0,.45,0,.68H8.46c-.08,0-.16,0-.16-.12a8,8,0,0,1,0-1A1.34,1.34,0,0,1,9.85,21.33Z"/><path class="cls-13" d="M22.23,19.45v1.28c0,.12-.06.13-.15.12h-.77c-.07,0-.19,0-.18-.09s-.08-.26.07-.33A2.6,2.6,0,0,0,22.23,19.45Z"/><path class="cls-14" d="M18.63,8.38c-.09.47-.35.72-.74.74a.79.79,0,0,1-.78-.52c0-.06-.06-.13,0-.18s.11,0,.17,0A2.78,2.78,0,0,0,18.63,8.38Z"/><path class="cls-15" d="M12,20.52c.23,0,.46,0,.68,0s.16,0,.16.16,0,.18-.15.18H11.27c-.16,0-.14-.09-.15-.19s.06-.15.17-.15S11.76,20.52,12,20.52Z"/><path class="cls-15" d="M4.18,20.52c.23,0,.46,0,.69,0s.14.06.13.16,0,.18-.14.18H3.45c-.14,0-.15-.07-.15-.18s0-.17.15-.16S3.94,20.52,4.18,20.52Z"/><path class="cls-15" d="M19.78,20.85H19.1c-.14,0-.15-.07-.15-.18s0-.16.15-.16c.46,0,.93,0,1.39,0,.12,0,.17,0,.16.16s0,.18-.17.18Z"/><path class="cls-16" d="M15.24,5.33C15,5.27,15,5.18,15,5a.3.3,0,0,1,.15-.3c.08,0,.14-.06.14.07S15.24,5.13,15.24,5.33Z"/><path class="cls-17" d="M20.76,5a.43.43,0,0,1-.09.23c-.05,0-.1.1-.16.09s0-.11-.05-.16a1.21,1.21,0,0,1,0-.19c0-.09-.06-.25.06-.26S20.73,4.86,20.76,5Z"/><path class="cls-18" d="M21.79,14.39c.52,0,.45-.12.43.42Z"/><path d="M10.67,5.68V8.56c0,.3-.06.35-.36.35H8.92c-.25,0-.33-.07-.33-.32V2.69c0-.21.09-.31.32-.31H10.3c.33,0,.37,0,.37.36Z"/><path d="M8.21,6.05v2.5c0,.31-.05.36-.35.36H6.47c-.26,0-.34-.07-.34-.34v-5c0-.25.07-.32.33-.32H7.89c.27,0,.32,0,.32.32Z"/><path d="M5.76,6.67V8.54c0,.32,0,.37-.37.37H4c-.24,0-.32-.08-.32-.32q0-1.92,0-3.84c0-.25.07-.33.32-.33H5.44c.26,0,.31.06.32.32Z"/><path d="M1.36,8.9a.39.39,0,0,1-.14-.32V5.51a.37.37,0,0,1,.14-.32H3a.23.23,0,0,1,.26.26V8.65A.23.23,0,0,1,3,8.91Z"/><path class="cls-19" d="M1.35,3.71a.25.25,0,0,1,0-.41.84.84,0,0,1,.27,0H3.94a.23.23,0,0,1,.2.25.21.21,0,0,1-.22.22H3.28Z"/><path class="cls-20" d="M13.23,8.76h-1c-.17,0-.31,0-.31-.24s.14-.23.31-.23h2.08c.16,0,.31,0,.31.23s-.15.24-.31.24Z"/><path class="cls-20" d="M13.23,7.53h1.06c.16,0,.29,0,.29.24s-.13.23-.29.23H12.16c-.16,0-.28,0-.28-.24s.13-.23.29-.23Z"/><path class="cls-19" d="M1.35,3a.26.26,0,0,1,0-.42,1.61,1.61,0,0,1,.58,0h1.2c.16,0,.29.06.29.24S3.25,3,3.09,3Z"/><path class="cls-20" d="M13.54,7.25h-.73c-.17,0-.29-.07-.29-.24s.12-.24.29-.24h1.48c.17,0,.29,0,.29.23s-.13.24-.29.24Z"/><path class="cls-21" d="M1.35,2.2a.25.25,0,0,1,0-.41,4.19,4.19,0,0,1,1.12,0c.13,0,.21.09.2.24a.2.2,0,0,1-.22.21Z"/><path class="cls-22" d="M18.08,11.1a.22.22,0,0,1-.23.23.21.21,0,0,1-.24-.22.23.23,0,0,1,.24-.26A.23.23,0,0,1,18.08,11.1Z"/><path class="cls-22" d="M18.08,10.12a.24.24,0,0,1-.47,0,.24.24,0,1,1,.47,0Z"/><path class="cls-4" d="M10.2,5.65c0,.86,0,1.73,0,2.59,0,.16,0,.21-.19.2H9.28c-.19,0-.23,0-.22-.22V3c0-.13,0-.18.17-.17s.52,0,.78,0,.19.06.19.2C10.19,3.92,10.2,4.78,10.2,5.65Z"/><path class="cls-23" d="M6.6,6.06c0-.71,0-1.43,0-2.14,0-.18.05-.23.23-.22h.75c.12,0,.16,0,.16.16V8.27c0,.14,0,.18-.18.17H6.81c-.16,0-.21,0-.21-.21C6.61,7.51,6.6,6.79,6.6,6.06Z"/><path class="cls-24" d="M4.15,6.65c0-.52,0-1.05,0-1.58,0-.14,0-.19.19-.18s.53,0,.8,0,.16,0,.16.16c0,1.08,0,2.15,0,3.23,0,.12,0,.17-.16.16h-.8c-.15,0-.19,0-.19-.18C4.15,7.72,4.15,7.19,4.15,6.65Z"/><path class="cls-25" d="M2.83,7.05c0,.4,0,.8,0,1.2,0,.13,0,.2-.18.19h-.8c-.12,0-.16,0-.16-.16V5.8c0-.12.05-.15.16-.15h.81c.13,0,.17,0,.17.17C2.82,6.23,2.83,6.64,2.83,7.05Z"/></g></g></svg>