<svg xmlns="http://www.w3.org/2000/svg" viewBox="0 0 24.03 24"><defs><style>.cls-1{fill:#efbf20;}.cls-2{fill:#7b7b7a;}.cls-3{fill:#e7a51e;}.cls-4{fill:#060604;}.cls-5{fill:#13be6d;}.cls-6{fill:#eee;}.cls-7{fill:#fb5d3d;}.cls-8{fill:#feb59e;}.cls-9{fill:#139b6e;}.cls-10{fill:#b15035;}.cls-11{fill:#139b6d;}.cls-12{fill:#fdb59e;}.cls-13{fill:#e68d7a;}.cls-14{fill:#af4f34;}.cls-15{fill:#acacac;}.cls-16{fill:#aeaeae;}.cls-17{fill:#ebbc1f;}.cls-18{fill:#76feba;}.cls-19{fill:#75fdba;}.cls-20{fill:#020403;}.cls-21{fill:#fecac2;}.cls-22{fill:#fec8c0;}.cls-23{fill:#010100;}.cls-24{fill:#030202;}.cls-25{fill:#040303;}.cls-26{fill:#13bd6c;}</style></defs><g id="Layer_2" data-name="Layer 2"><g id="Layer_1-2" data-name="Layer 1"><path d="M21.46,18.59a.32.32,0,0,1,.36-.24h1.45a.72.72,0,0,1,.75.72c0,.2,0,.41,0,.62a.68.68,0,0,1-.53.7c-.15,0-.13.12-.13.22v3a.59.59,0,0,1,0,.26.22.22,0,0,1-.21.12.26.26,0,0,1-.24-.23.58.58,0,0,1,0-.32c0-.8,0-1.59,0-2.38a2.25,2.25,0,0,0,0-.26c0-.26,0-.28-.3-.28H1.71c-.5,0-.5,0-.5.5,0,.81,0,1.62,0,2.43a.58.58,0,0,1,0,.32c0,.15-.12.25-.28.22s-.21-.17-.21-.32c0-1,0-2,0-3,0-.16,0-.26-.21-.32A.64.64,0,0,1,0,19.74q0-.34,0-.69a.71.71,0,0,1,.73-.69h1.1c.13,0,.18,0,.17-.17,0-.47,0-.94,0-1.41s.07-.53.48-.67c.12,0,.07-.12.07-.19,0-.48,0-1,0-1.45a4,4,0,0,1,3.32-4l.19-.05L5.53,10A1.59,1.59,0,0,1,5,9.2a2.61,2.61,0,0,1-.17-.83,11.76,11.76,0,0,1,0-1.78.87.87,0,0,1,1-.84c.4,0,.79,0,1.19,0,.81,0,1.61.1,2.42.11a1.24,1.24,0,0,1,.65.15.77.77,0,0,1,.4.64,10.7,10.7,0,0,1,0,2A2.42,2.42,0,0,1,9.9,10a1.87,1.87,0,0,1-.49.39c.2.06.4.07.59.13a4.26,4.26,0,0,1,1.17.58c.31.23.31.23.58,0s.66-.53,1-.79l.17-.14a.3.3,0,1,1,.36.47c-.27.24-.55.45-.82.68a2.43,2.43,0,0,1-.25.2,1.49,1.49,0,0,0-.14.12c-.13.09-.13.18,0,.31a3.62,3.62,0,0,1,.53.89.27.27,0,0,0,.29.19h.31c2.72,0,5.45,0,8.17,0,.48,0,.48,0,.48-.48V2.24c0-.43,0-.43-.41-.43H17.66a1.39,1.39,0,0,1-.41,0A.33.33,0,0,1,17,1.45a.3.3,0,0,1,.3-.26H22c.29,0,.39.12.4.42a1.92,1.92,0,0,1,0,.24q0,5.55,0,11.11c0,.6-.06.67-.66.67H13.27c-.43,0-.42,0-.39.39,0,.18.09.24.25.23h9.14c.42,0,.66-.16.75-.48a1,1,0,0,0,0-.29c0-4,0-8.09,0-12.13,0-.53-.23-.76-.76-.76H7.53c-.52,0-.73.22-.73.75s0,.79,0,1.19,0,.35.36.31c.21,0,.27-.12.27-.31s0-.56,0-.85a.75.75,0,0,1,0-.3.34.34,0,0,1,.3-.17h7.56c.19,0,.32.09.33.3s-.16.26-.33.3a1.76,1.76,0,0,1-.4,0H8.32c-.25,0-.27,0-.28.28s0,.17,0,.26v0c0,.4,0,.4.36.47a3.87,3.87,0,0,1,3.17,3.82V9.13a1.18,1.18,0,0,1-.45,1,.82.82,0,0,1-.6.18c-.16,0-.28-.07-.31-.24s.12-.29.29-.35c.37-.12.45-.23.46-.62V6.59A3.26,3.26,0,0,0,8.2,3.43,3.23,3.23,0,0,0,4.52,6.09a5.69,5.69,0,0,0-.07.83v2c0,.5.06.59.52.76a.25.25,0,0,1,.18.37c-.05.14-.16.16-.29.15A1,1,0,0,1,4,9.4c0-.3,0-.6,0-.9,0-.71,0-1.42,0-2.12A3.64,3.64,0,0,1,6,3.25a.34.34,0,0,0,.21-.34c0-.56,0-1.11,0-1.67A1.18,1.18,0,0,1,7.47,0H22.35a1.18,1.18,0,0,1,1.26,1.25V13.53a1.19,1.19,0,0,1-1.27,1.25H13.12c-.21,0-.3,0-.28.26s0,.6,0,.91c0,.1,0,.14.14.17a.5.5,0,0,1,.42.53c0,.48,0,1,0,1.45,0,.2,0,.26.26.26h6c.18,0,.33,0,.37.24s-.07.26-.22.3a1.79,1.79,0,0,1-.4,0H1.25a2.62,2.62,0,0,0-.28,0c-.35,0-.41.07-.42.42v.21c0,.27.09.34.35.35h22c.59,0,.66-.08.61-.66,0-.25-.09-.32-.35-.32s-.78,0-1.17,0a1.33,1.33,0,0,1-.28,0C21.54,18.84,21.43,18.76,21.46,18.59Z"/><path class="cls-1" d="M22.84,23.76H1.19a.14.14,0,0,1,0-.11c0-.87,0-1.74,0-2.62a.2.2,0,0,1,.2-.23h21c.51,0,.51,0,.51.5v2.23A.36.36,0,0,1,22.84,23.76Z"/><path class="cls-1" d="M21.46,18.59a.31.31,0,0,0,.36.24H23.2c.27,0,.34.08.35.34v.52a.26.26,0,0,1-.27.27H.93c-.4,0-.44-.05-.45-.45,0-.72,0-.68.67-.68H19.63c.19,0,.38,0,.42-.24h.48c.24.2.24.2.47,0Z"/><path class="cls-2" d="M5.15,10.07a.25.25,0,0,0-.23-.32c-.4-.08-.52-.23-.52-.64s0-1.06,0-1.59a8.48,8.48,0,0,1,.08-1.59,3.3,3.3,0,0,1,6.49.2c.1.86,0,1.72,0,2.57v.48a.52.52,0,0,1-.49.56c-.15,0-.27.1-.28.27a.31.31,0,0,1-.42,0,2.78,2.78,0,0,0,.67-1.95c0-.41,0-.81,0-1.21A.78.78,0,0,0,9.75,6C9,6,8.3,5.92,7.57,5.89L5.79,5.8a.79.79,0,0,0-.86.74A10.4,10.4,0,0,0,5,8.84,3.17,3.17,0,0,0,5.53,10C5.41,10,5.25,9.92,5.15,10.07Z"/><path class="cls-3" d="M22.84,23.76c0-.87,0-1.74,0-2.61,0-.23-.07-.28-.28-.28H1.44c-.2,0-.26.05-.26.25,0,.88,0,1.76,0,2.64v0h0c0-1.06,0-2.12,0-3.19,0-.11,0-.15.15-.14H22.59c.23,0,.3.05.3.3,0,1,0,2,0,3h0Z"/><path d="M3.87,3.49a.23.23,0,0,1-.18.25,1,1,0,0,0-.77.87c0,.16-.09.32-.29.31s-.24-.16-.27-.32a1,1,0,0,0-.73-.84c-.14,0-.23-.12-.23-.27a.26.26,0,0,1,.22-.25,1,1,0,0,0,.72-.8l.06-.21a.25.25,0,0,1,.24-.16.24.24,0,0,1,.24.17c0,.08.05.16.07.25a.94.94,0,0,0,.69.74C3.77,3.27,3.87,3.34,3.87,3.49Z"/><path d="M15.82,18a.25.25,0,0,1-.26-.23,1.72,1.72,0,0,0-.18-.51,1,1,0,0,0-.57-.41c-.12-.05-.23-.11-.23-.27a.28.28,0,0,1,.23-.26,1,1,0,0,0,.7-.74c0-.09.05-.17.07-.25a.23.23,0,0,1,.23-.18.26.26,0,0,1,.25.18c0,.12.07.23.1.35a.91.91,0,0,0,.63.63c.14,0,.27.11.27.28s-.13.23-.27.26a1.05,1.05,0,0,0-.7.88C16.05,17.9,16,18,15.82,18Z"/><path class="cls-4" d="M21,18.59c0,.14-.09.24-.24.24s-.21-.12-.25-.24.1-.23.25-.23A.23.23,0,0,1,21,18.59Z"/><path class="cls-5" d="M12.16,11.46l1-.85c.13-.11.24-.23.12-.4s-.29-.08-.43,0l-1.09.88a2.65,2.65,0,0,1-.74-.49c-.07,0,0-.11,0-.15s.17-.12.25-.18a1.31,1.31,0,0,0,.53-1.05c0-.94,0-1.89,0-2.83a4.14,4.14,0,0,0-3.62-3.9c-.1,0-.21,0-.27-.12s0-.31,0-.47,0-.21.21-.21h7c.19,0,.37,0,.43-.24A1,1,0,0,1,16,1.43h0c.23.24.23.24.51,0a.82.82,0,0,1,.44,0c0,.19.15.25.31.26h.74c1.19,0,2.38,0,3.58,0,.21,0,.26.07.25.27V12.83c0,.14,0,.24-.2.24H13.06c-.09,0-.11-.12-.14-.2a4.51,4.51,0,0,0-.69-1.18C12.19,11.62,12.09,11.56,12.16,11.46Z"/><path class="cls-6" d="M17,1.46l-.46,0c-.24-.21-.24-.21-.5,0l-.46,0c0-.18-.16-.24-.35-.24H7.79c-.14,0-.25,0-.31.16a5.06,5.06,0,0,0,0,.87c0,.17-.06.25-.23.25s-.33.09-.51,0c0-.47,0-.95,0-1.42A.67.67,0,0,1,7.33.49a1.31,1.31,0,0,1,.28,0H22.23c.66,0,.9.24.9.9V13.43c0,.62-.26.88-.88.88h-9a.94.94,0,0,1,0-.75H22c.29,0,.36-.06.36-.34V1.59c0-.29-.06-.35-.35-.35H17.37C17.19,1.24,17,1.25,17,1.46Z"/><path class="cls-7" d="M4.72,15.69a.92.92,0,0,1,.37-.9s.12-.08.17-.13A.23.23,0,0,0,5,14.27a.47.47,0,0,0-.21.15.67.67,0,0,1-.64.21c-.3,0-.61,0-.91,0S3,14.6,3,14.43A3.6,3.6,0,0,1,5.87,11a4.77,4.77,0,0,1,1-.08c.78,0,1.57,0,2.36,0a3.47,3.47,0,0,1,1.85.79L9.6,12.93,6.36,15.58l-.16.11a1,1,0,0,1-.51.07H5A.33.33,0,0,1,4.72,15.69Z"/><path class="cls-8" d="M7.67,6.38l1.88.08c.39,0,.47.11.46.5a11,11,0,0,1,0,1.62,2.14,2.14,0,0,1-1.9,1.81A2.29,2.29,0,0,1,5.61,9.16,2.55,2.55,0,0,1,5.39,8.1V6.72c0-.34.13-.45.47-.43l1.81.08Z"/><path class="cls-7" d="M6.9,15.78c.58-.48,1.15-1,1.74-1.44l2.61-2.15c.15-.13.23-.11.34,0a3.6,3.6,0,0,1,.78,2.2c0,.16,0,.21-.2.21H11.05a.33.33,0,0,1-.27-.12,1.61,1.61,0,0,0-.36-.27c-.14-.07-.28-.09-.37.06s0,.28.13.35a1,1,0,0,1,.55.73c0,.34,0,.36-.3.36s-.82,0-1.24,0A1.9,1.9,0,0,0,8,16.13a.34.34,0,0,1-.49,0C7.3,16,7.06,15.94,6.9,15.78Z"/><path class="cls-6" d="M5,18.35H2.7c-.17,0-.22,0-.22-.21q0-.69,0-1.38c0-.14,0-.2.19-.19H6.29a1.17,1.17,0,0,1,1.17,1.09c.09.68.09.68-.59.68Z"/><path class="cls-6" d="M10.41,18.35H8.15c-.17,0-.19-.05-.21-.21-.09-1.11.53-1.63,1.56-1.58s2.14,0,3.21,0c.17,0,.22,0,.22.2q0,.69,0,1.38c0,.16,0,.2-.21.2Z"/><path class="cls-9" d="M8,2.4a5.71,5.71,0,0,0,.72.13,4.22,4.22,0,0,1,3.2,3.59c.08.93,0,1.86,0,2.8a2.29,2.29,0,0,1,0,.52A1.52,1.52,0,0,1,11,10.57a7,7,0,0,1,.76.55l0,0c-.28.25-.28.25-.57,0a3.82,3.82,0,0,0-1.67-.71l-.22-.06A2.8,2.8,0,0,0,9.82,10h.42a.26.26,0,0,0,.3.21,1,1,0,0,0,.94-.93,30.67,30.67,0,0,0,0-3.18A3.76,3.76,0,0,0,8.22,2.89c-.22,0-.3-.09-.27-.3A1.15,1.15,0,0,0,8,2.4Z"/><path class="cls-10" d="M6.9,15.78a1.44,1.44,0,0,1,.65.33.2.2,0,0,0,.3,0,2,2,0,0,1,1.3-.44c.42,0,.85,0,1.28,0,.24,0,.33-.06.3-.3a.79.79,0,0,1-.05.62c0,.11-.14.1-.22.1H9.17a1.63,1.63,0,0,0-1.34.64c-.11.14-.15.13-.25,0a1.65,1.65,0,0,0-1.08-.63A1.76,1.76,0,0,1,6.9,15.78Z"/><path class="cls-11" d="M12.16,11.46c.14.2.29.4.43.61a5.27,5.27,0,0,1,.47,1H13a.4.4,0,0,1-.51-.31A2.41,2.41,0,0,0,12,12c-.15-.16-.15-.27,0-.38Z"/><path class="cls-12" d="M3.05,15.68c0-.57,0-.57.54-.57h.7l-.06.24c-.05.41-.05.42-.48.41C3.51,15.75,3.27,15.82,3.05,15.68Z"/><path class="cls-8" d="M11.25,15.68l-.07-.57h1.07c.1,0,.12,0,.12.13s0,.3,0,.45A1.73,1.73,0,0,1,11.25,15.68Z"/><path class="cls-13" d="M3.05,15.68H3.9c.19,0,.33,0,.29-.25,0,0,0-.06,0-.09a2,2,0,0,0,0,.64c0,.09,0,.11-.09.11h-1c-.08,0-.12,0-.12-.11S3.05,15.79,3.05,15.68Z"/><path class="cls-14" d="M4.72,15.69H6.2a1.22,1.22,0,0,1-1.3.4C4.7,16.07,4.72,15.85,4.72,15.69Z"/><path class="cls-13" d="M11.25,15.68h1.1s0,0,0,0c0,.37,0,.37-.36.37h-.64c-.15,0-.23,0-.17-.19A1,1,0,0,0,11.25,15.68Z"/><path class="cls-15" d="M6.72,2.54a1.52,1.52,0,0,1,.51-.09c.16,0,.21-.05.21-.21s0-.41,0-.61,0-.16.05-.23c0,.43,0,.86,0,1.28,0,.14-.05.19-.18.19l-.21,0C6.68,3,6.68,3,6.72,2.54Z"/><path class="cls-16" d="M13.21,13.55c0,.25.08.49,0,.75h-.07c-.33,0-.33,0-.37-.32,0-.14,0-.28-.07-.43Z"/><path class="cls-17" d="M2.64,3.09l0,0c.07.16.32.25.28.4s-.21.23-.3.36h0c-.08-.16-.34-.25-.31-.4S2.54,3.24,2.64,3.09Z"/><path class="cls-17" d="M15.44,16.61a1.58,1.58,0,0,0,.37-.41c.11.12.21.24.32.34s0,.09,0,.14-.17.26-.28.29-.17-.18-.28-.26A.9.9,0,0,1,15.44,16.61Z"/><path class="cls-18" d="M21.41,7.39V12.2c0,.33-.06.39-.38.39h-6.1a.59.59,0,0,1-.19,0,.21.21,0,0,1-.19-.24.2.2,0,0,1,.19-.21.87.87,0,0,1,.23,0h5.61c.36,0,.36,0,.36-.38V2.63a1.92,1.92,0,0,1,0-.24.24.24,0,0,1,.47,0,1.47,1.47,0,0,1,0,.21Z"/><path d="M14.38,8c-.19,0-.47-.1-.63.05s-.19.39-.27.59-.12.3-.17.44-.15.3-.35.22-.16-.23-.1-.38c.29-.72.57-1.45.86-2.17.14-.37.29-.75.44-1.12.05-.13.11-.24.26-.24s.21.12.26.24L16,8.92c.07.17.1.32-.1.4s-.28-.06-.34-.22-.25-.6-.36-.91A.22.22,0,0,0,14.91,8Z"/><path d="M18.59,8V9c0,.29-.15.38-.4.27a.17.17,0,0,0-.15,0,1.66,1.66,0,0,1-.73.08.9.9,0,0,1,0-1.79,5,5,0,0,1,.67,0c.12,0,.16,0,.16-.17,0-.65,0-.68-.62-.66h-.31c-.17,0-.28.07-.3.24s-.11.27-.29.24-.2-.18-.18-.33a.7.7,0,0,1,.65-.62,6.17,6.17,0,0,1,.86,0,.74.74,0,0,1,.67.77Z"/><path class="cls-19" d="M13.67,12.59a.5.5,0,0,1-.24,0,.22.22,0,0,1-.12-.26c.06-.22.25-.18.41-.19s.3,0,.34.2a.22.22,0,0,1-.13.25A.48.48,0,0,1,13.67,12.59Z"/><path class="cls-20" d="M16.05,1.46a.25.25,0,0,1,.23-.22c.17,0,.23.11.27.24s-.12.24-.29.22S16.07,1.59,16.05,1.46Z"/><path class="cls-21" d="M6.54,11.36c.15,0,.31.05.31.24s-.11.23-.28.24a2.63,2.63,0,0,0-2,1.05c-.1.13-.23.19-.37.09s-.11-.24,0-.37A3.07,3.07,0,0,1,6.2,11.4Z"/><path class="cls-22" d="M4.1,13.7c0,.3-.14.48-.31.46a.24.24,0,0,1-.22-.28c0-.28.15-.47.31-.47S4.11,13.52,4.1,13.7Z"/><path class="cls-23" d="M7.79,9.7a1.06,1.06,0,0,1-1-.61c-.07-.15-.06-.27.09-.34a.24.24,0,0,1,.33.12c.29.48.75.48,1,0,.09-.15.21-.21.36-.13a.24.24,0,0,1,.07.35A1,1,0,0,1,7.79,9.7Z"/><path class="cls-24" d="M7.47,7.81V7.45a.22.22,0,0,1,.23-.22.21.21,0,0,1,.24.19c0,.25,0,.51,0,.76a.21.21,0,0,1-.25.2.23.23,0,0,1-.22-.24Z"/><path class="cls-25" d="M6.28,7.39c0-.18.06-.32.25-.31s.24.15.23.32,0,.29-.23.29S6.28,7.56,6.28,7.39Z"/><path class="cls-24" d="M8.66,7.38c0-.17.05-.31.24-.3s.24.15.23.32-.05.29-.23.29S8.65,7.55,8.66,7.38Z"/><path class="cls-26" d="M14.42,6.3c.15.39.29.74.43,1.08.05.11.06.17-.1.17h-.67c-.12,0-.15,0-.1-.14Z"/><path class="cls-26" d="M17.62,8h.1c.13.05.36-.14.39.16s-.09.64-.39.68a2.26,2.26,0,0,1-.45,0,.42.42,0,0,1-.39-.4A.4.4,0,0,1,17.24,8a2.41,2.41,0,0,1,.38,0Z"/></g></g></svg>