<svg xmlns="http://www.w3.org/2000/svg" viewBox="0 0 24 24.05"><g id="Layer_2" data-name="Layer 2"><g id="Layer_1-2" data-name="Layer 1"><path d="M11.81,24.05l-.48-.37a2.57,2.57,0,0,0-1.69-.58H.86a1.34,1.34,0,0,1-.35,0,.68.68,0,0,1-.5-.75.71.71,0,0,1,.66-.62h.77V20.43a.84.84,0,0,1,.16.07,3.05,3.05,0,0,0,4.14-.77A.38.38,0,0,1,6,19.59c1.39,0,2.79,0,4.18,0a2.55,2.55,0,0,1,1.83.8,2.55,2.55,0,0,1,1.26-.72,2.82,2.82,0,0,1,.65-.08h7.85a.73.73,0,0,1,.79.79v1.32c.54,0,1.16-.16,1.45.52v.38a.9.9,0,0,1-.94.52H14.35a2.54,2.54,0,0,0-1.67.56l-.49.38Z"/><path d="M12.52,0c.37.08.75.13,1.12.23a6.1,6.1,0,0,1,4.45,6.16,3.89,3.89,0,0,1-.91,2.28c0-.09,0-.15,0-.2V6.64a1.4,1.4,0,0,0-1.48-1.47c-.3,0-.6,0-.89,0a2,2,0,0,1-1.53-1.07,1.38,1.38,0,0,0-1.61-.74,1.35,1.35,0,0,0-.88.68,2,2,0,0,1-2,1.15,3.76,3.76,0,0,0-.82,0A1.36,1.36,0,0,0,6.85,6.55c0,.69,0,1.38,0,2.14l-.2-.24A4.15,4.15,0,0,1,6,5.3,6.15,6.15,0,0,1,10.59.17c.3-.07.6-.11.89-.17Z"/><path d="M18.19,0l.35.1a2.48,2.48,0,0,1,1.84,2,2.5,2.5,0,0,1-.93,2.55s0,0-.09,0A7.63,7.63,0,0,0,16.7.25L17.53,0Z"/><path d="M15.52,13.56a5.32,5.32,0,0,1,6,4.62H14a4.28,4.28,0,0,0-1.86.41.36.36,0,0,1-.25,0A4.35,4.35,0,0,0,10,18.17H6.36c-.09-.59-.17-1.14-.27-1.69a3,3,0,0,0-1-1.73c-.35-.31-.35-.31-.4-.79a8.71,8.71,0,0,1,3.77-.43c0,.24,0,.46,0,.67a3.51,3.51,0,0,0,7,.74,4.76,4.76,0,0,0,.07-.75C15.53,14,15.52,13.78,15.52,13.56Z"/><path d="M8.25,6.56A3.57,3.57,0,0,0,12,4.72a3.55,3.55,0,0,0,3.7,1.84s0,.05,0,.07c0,.78,0,1.57,0,2.34a3.73,3.73,0,0,1-7.34.34A7.71,7.71,0,0,1,8.25,8C8.24,7.56,8.25,7.08,8.25,6.56Z"/><path d="M3.27,14l-1.38.24c-.11-.62-.23-1.28-.34-1.93C1.07,9.55.6,6.85.12,4.14c0-.19-.07-.39-.1-.58A.7.7,0,1,1,1.4,3.32L2.06,7l1.2,6.85A.15.15,0,0,1,3.27,14Z"/><path d="M3.26,19.58a1.63,1.63,0,0,1-1.61-1.34q-.09-.45-.15-.9a1.63,1.63,0,0,1,3.21-.6,5.74,5.74,0,0,1,.16,1.36A1.58,1.58,0,0,1,3.26,19.58Z"/><path d="M14.07,13.19a9.57,9.57,0,0,1,0,1.42,2.07,2.07,0,0,1-2.27,1.74,2.13,2.13,0,0,1-1.9-2.05V13.17A5.2,5.2,0,0,0,14.07,13.19Z"/></g></g></svg>